SplineFontDB: 3.2
FontName: UnowanCCI
FullName: Unowan CCI
FamilyName: Unowan CCI
Weight: Regular
Copyright: Shankar Sivarajan
UComments: "2023-6-18: Created with FontForge (http://fontforge.org)"
Version: 
ItalicAngle: 0
UnderlinePosition: -100
UnderlineWidth: 50
Ascent: 800
Descent: 200
InvalidEm: 0
LayerCount: 2
Layer: 0 0 "Back" 1
Layer: 1 0 "Fore" 0
XUID: [1021 146 -1796264217 10339]
FSType: 0
OS2Version: 0
OS2_WeightWidthSlopeOnly: 0
OS2_UseTypoMetrics: 1
CreationTime: 1687110331
ModificationTime: 1688321965
PfmFamily: 17
TTFWeight: 400
TTFWidth: 5
LineGap: 90
VLineGap: 0
OS2TypoAscent: 0
OS2TypoAOffset: 1
OS2TypoDescent: 0
OS2TypoDOffset: 1
OS2TypoLinegap: 90
OS2WinAscent: 0
OS2WinAOffset: 1
OS2WinDescent: 0
OS2WinDOffset: 1
HheadAscent: 0
HheadAOffset: 1
HheadDescent: 0
HheadDOffset: 1
OS2Vendor: 'PfEd'
Lookup: 258 8 0 "'kern' Horizontal Kerning lookup 0" { "'kern' Horizontal Kerning lookup 0-1" [150,0,2] "'kern' Horizontal Kerning lookup 0-2" [150,0,2] "'kern' Horizontal Kerning lookup 0-3" [150,0,2] } ['kern' ('DFLT' <'dflt' > 'cyrl' <'dflt' > 'grek' <'dflt' > 'latn' <'dflt' > ) ]
MarkAttachClasses: 1
DEI: 91125
KernClass2: 2 2 "'kern' Horizontal Kerning lookup 0-3"
 3 L l
 3 L l
 0 {} 0 {} 0 {} -75 {}
KernClass2: 2 2 "'kern' Horizontal Kerning lookup 0-2"
 3 S s
 3 S s
 0 {} 0 {} 0 {} -125 {}
KernClass2: 2 2 "'kern' Horizontal Kerning lookup 0-1"
 3 V v
 35 E e Epsilon epsilon uni0415 uni0435
 0 {} 0 {} 0 {} -100 {}
LangName: 1033
Encoding: UnicodeBmp
Compacted: 1
UnicodeInterp: none
NameList: AGL For New Fonts
DisplaySize: -48
AntiAlias: 1
FitToEm: 0
WinInfo: 0 39 14
BeginPrivate: 0
EndPrivate
TeXData: 1 0 0 419430 209715 139810 0 1048576 139810 783286 444596 497025 792723 393216 433062 380633 303038 157286 324010 404750 52429 2506097 1059062 262144
BeginChars: 65537 354

StartChar: A
Encoding: 65 65 0
Width: 500
Flags: HW
LayerCount: 2
Fore
SplineSet
248 800 m 0
 262 800 279 791 286 778 c 0
 290 771 296 750 303 719 c 0
 312 678 313 671 318 670 c 0
 321 669 333 663 346 657 c 0
 385 638 418 603 438 560 c 0
 450 534 455 513 457 483 c 0
 460 427 442 373 404 331 c 2
 391 317 l 1
 407 244 l 2
 438 110 451 47 449 36 c 0
 443 3 401 -10 375 13 c 0
 365 22 362 27 351 84 c 2
 343 127 l 1
 326 116 l 2
 277 82 207 84 166 120 c 0
 161 124 157 127 156 126 c 0
 155 125 151 103 146 78 c 0
 135 17 134 15 114 5 c 0
 101 -2 89 -1 74 6 c 0
 59 14 50 27 50 41 c 0
 50 47 57 83 66 122 c 0
 75 161 89 222 96 256 c 2
 108 318 l 1
 91 337 l 2
 72 357 53 392 46 420 c 0
 35 461 39 514 56 554 c 0
 74 597 112 637 153 657 c 0
 166 663 178 669 180 669 c 0
 185 669 186 672 197 723 c 0
 203 750 210 775 213 780 c 0
 219 790 236 800 248 800 c 0
249 599 m 0
 180 599 124 543 124 474 c 0
 124 405 180 349 249 349 c 0
 318 349 374 405 374 474 c 0
 374 543 318 599 249 599 c 0
248 303 m 0
 226 303 205 288 197 260 c 0
 189 231 201 198 227 185 c 0
 236 180 257 180 268 184 c 0
 294 194 309 230 300 262 c 0
 292 290 270 303 248 303 c 0
204 474 m 0
 204 499 224 519 249 519 c 0
 274 519 294 499 294 474 c 0
 294 449 274 429 249 429 c 0
 224 429 204 449 204 474 c 0
204 474 m 0
 204 449 224 429 249 429 c 0
 274 429 294 449 294 474 c 0
 294 499 274 519 249 519 c 0
 224 519 204 499 204 474 c 0
204 474 m 0
 204 499 224 519 249 519 c 0
 274 519 294 499 294 474 c 0
 294 449 274 429 249 429 c 0
 224 429 204 449 204 474 c 0
EndSplineSet
Validated: 37
EndChar

StartChar: B
Encoding: 66 66 1
Width: 550
Flags: HW
LayerCount: 2
Fore
SplineSet
226 800 m 1
 268 800 l 1
 309 800 l 1
 310 787 l 2
 311 775 312 775 321 772 c 0
 326 770 332 769 334 769 c 0
 336 769 348 764 362 757 c 0
 408 734 448 686 462 637 c 2
 466 620 l 1
 486 619 l 2
 507 618 514 614 525 600 c 0
 533 590 533 564 525 554 c 0
 514 540 507 536 486 535 c 2
 466 534 l 1
 460 515 l 2
 442 454 389 401 328 384 c 0
 316 381 312 379 311 375 c 0
 310 370 312 368 324 364 c 0
 368 349 412 314 436 270 c 0
 449 243 455 218 455 186 c 0
 455 154 449 128 436 101 c 0
 402 34 323 -6 242 2 c 1
 242 2 l 1
 172 12 111 63 91 128 c 2
 87 143 l 1
 66 144 l 2
 37 146 22 159 20 183 c 0
 18 209 36 226 68 229 c 2
 87 231 l 1
 91 246 l 2
 107 299 156 346 211 364 c 0
 229 370 230 378 215 382 c 0
 209 384 204 385 202 385 c 0
 200 385 188 390 174 397 c 0
 153 408 145 413 123 435 c 0
 101 457 97 464 86 486 c 0
 69 521 63 545 65 586 c 0
 67 643 83 679 123 719 c 0
 151 747 172 759 206 769 c 2
 225 775 l 1
 226 788 l 1
 226 800 l 1
270 705 m 0
 201 705 145 649 145 580 c 0
 145 511 201 455 270 455 c 0
 339 455 395 511 395 580 c 0
 395 649 339 705 270 705 c 0
268 291 m 0
 211 291 165 244 165 187 c 0
 165 130 211 83 268 83 c 0
 325 83 372 130 372 187 c 0
 372 244 325 291 268 291 c 0
225 580 m 0
 225 605 245 625 270 625 c 0
 295 625 315 605 315 580 c 0
 315 555 295 535 270 535 c 0
 245 535 225 555 225 580 c 0
225 580 m 0
 225 555 245 535 270 535 c 0
 295 535 315 555 315 580 c 0
 315 605 295 625 270 625 c 0
 245 625 225 605 225 580 c 0
225 580 m 0
 225 605 245 625 270 625 c 0
 295 625 315 605 315 580 c 0
 315 555 295 535 270 535 c 0
 245 535 225 555 225 580 c 0
EndSplineSet
Validated: 37
EndChar

StartChar: exclam
Encoding: 33 33 2
Width: 450
Flags: HW
LayerCount: 2
Fore
SplineSet
223 800 m 2
 223 800 l 2
 232 800 242 796 250 790 c 0
 269 774 267 786 269 566 c 2
 271 366 l 1
 292 359 l 2
 322 349 341 338 365 315 c 0
 437 247 454 148 409 62 c 0
 396 38 362 0 337 -16 c 0
 291 -46 232 -57 179 -46 c 0
 100 -30 36 29 15 106 c 0
 8 132 8 189 15 214 c 0
 34 283 84 337 151 359 c 0
 158 362 167 364 169 364 c 0
 173 364 173 389 173 558 c 0
 173 692 174 756 176 765 c 0
 182 787 202 801 223 800 c 2
347 160 m 1
 97 160 l 1
 97 91 153 35 222 35 c 0
 291 35 347 91 347 160 c 1
177 160 m 0
 177 185 197 205 222 205 c 0
 247 205 267 185 267 160 c 0
 267 135 247 115 222 115 c 0
 197 115 177 135 177 160 c 0
EndSplineSet
Validated: 37
EndChar

StartChar: question
Encoding: 63 63 3
Width: 450
Flags: HW
LayerCount: 2
Fore
SplineSet
215 800 m 0
 240 800 269 795 292 786 c 0
 334 770 382 727 402 686 c 0
 419 652 423 632 423 589 c 0
 423 545 420 527 402 491 c 0
 392 471 385 462 363 440 c 0
 334 411 308 395 276 386 c 0
 261 382 259 380 258 374 c 0
 257 367 259 367 278 361 c 0
 307 352 332 338 356 315 c 0
 420 254 440 170 411 87 c 0
 392 31 343 -19 287 -38 c 0
 250 -51 208 -53 168 -46 c 0
 127 -39 91 -19 61 11 c 0
 18 54 -4 110 0 171 c 0
 5 257 64 338 153 362 c 1
 164 364 l 1
 164 399 l 2
 164 428 165 434 170 444 c 0
 179 461 186 466 218 470 c 0
 239 473 252 477 265 483 c 0
 287 494 309 517 319 539 c 0
 326 554 327 559 327 588 c 0
 327 618 326 622 319 636 c 0
 309 656 296 673 278 684 c 0
 257 697 240 701 203 702 c 0
 172 703 170 703 160 711 c 0
 130 734 134 779 166 793 c 0
 178 798 195 800 215 800 c 0
337 158 m 1
 87 158 l 1
 87 89 143 33 212 33 c 0
 281 33 337 89 337 158 c 1
167 158 m 0
 167 183 187 203 212 203 c 0
 237 203 257 183 257 158 c 0
 257 133 237 113 212 113 c 0
 187 113 167 133 167 158 c 0
167 158 m 0
 167 133 187 113 212 113 c 0
 237 113 257 133 257 158 c 0
 257 183 237 203 212 203 c 0
 187 203 167 183 167 158 c 0
167 158 m 0
 167 183 187 203 212 203 c 0
 237 203 257 183 257 158 c 0
 257 133 237 113 212 113 c 0
 187 113 167 133 167 158 c 0
EndSplineSet
Validated: 37
EndChar

StartChar: C
Encoding: 67 67 4
Width: 750
Flags: HW
LayerCount: 2
Fore
SplineSet
374 800 m 0
 421 800 443 797 485 784 c 0
 578 755 657 683 697 595 c 0
 725 533 739 444 723 423 c 0
 709 405 709 405 636 404 c 2
 570 403 l 1
 565 388 l 2
 550 335 502 281 450 260 c 0
 412 245 360 242 320 252 c 0
 267 266 216 307 192 356 c 0
 164 413 164 474 191 531 c 2
 203 556 l 1
 181 579 l 2
 169 592 158 603 157 603 c 0
 155 604 142 584 132 565 c 0
 80 462 104 332 191 251 c 0
 236 209 288 187 352 181 c 0
 388 178 399 174 408 161 c 0
 413 154 414 147 416 113 c 0
 418 65 417 33 411 22 c 0
 402 4 375 -5 357 3 c 1
 357 3 l 1
 347 8 338 17 334 27 c 0
 332 31 332 48 332 65 c 0
 332 95 332 96 326 97 c 0
 323 98 309 101 296 103 c 0
 227 116 164 150 114 203 c 0
 68 252 40 303 26 369 c 0
 18 406 18 479 25 513 c 0
 48 624 114 711 211 761 c 0
 266 790 310 800 374 800 c 0
371 715 m 0
 348 715 325 711 302 705 c 0
 281 699 247 684 228 672 c 2
 216 665 l 1
 241 641 l 1
 265 617 l 1
 284 627 l 2
 337 654 410 655 461 629 c 0
 513 603 551 557 566 505 c 2
 570 489 l 1
 603 489 l 2
 629 489 636 489 636 492 c 0
 636 501 622 545 612 565 c 0
 565 660 471 716 371 715 c 0
371 570 m 0
 302 570 246 514 246 445 c 0
 246 376 302 320 371 320 c 0
 440 320 496 376 496 445 c 0
 496 514 440 570 371 570 c 0
326 445 m 0
 326 470 346 490 371 490 c 0
 396 490 416 470 416 445 c 0
 416 420 396 400 371 400 c 0
 346 400 326 420 326 445 c 0
326 445 m 0
 326 420 346 400 371 400 c 0
 396 400 416 420 416 445 c 0
 416 470 396 490 371 490 c 0
 346 490 326 470 326 445 c 0
326 445 m 0
 326 470 346 490 371 490 c 0
 396 490 416 470 416 445 c 0
 416 420 396 400 371 400 c 0
 346 400 326 420 326 445 c 0
EndSplineSet
Validated: 37
EndChar

StartChar: D
Encoding: 68 68 5
Width: 650
Flags: HW
LayerCount: 2
Fore
SplineSet
248 770 m 0
 251 770 254 770 258 770 c 0
 340 769 424 736 490 679 c 0
 653 538 661 282 509 129 c 0
 451 71 377 35 293 24 c 0
 255 19 234 19 221 25 c 1
 221 25 l 1
 187 40 187 90 221 107 c 0
 225 109 241 112 261 113 c 0
 279 114 303 117 314 120 c 0
 401 141 480 212 511 297 c 0
 532 354 533 428 513 487 c 0
 490 555 434 619 370 650 c 0
 339 665 290 679 288 673 c 0
 288 672 288 656 288 637 c 2
 288 602 l 1
 297 600 l 2
 312 597 341 585 357 575 c 0
 386 557 419 520 434 490 c 0
 451 456 458 413 453 372 c 0
 447 318 428 277 390 241 c 0
 362 214 336 200 299 190 c 0
 270 182 214 182 186 190 c 0
 124 207 76 247 50 303 c 0
 38 330 32 351 30 381 c 0
 24 480 88 572 180 598 c 2
 196 603 l 1
 197 674 l 2
 198 753 199 754 217 765 c 0
 224 770 228 770 248 770 c 0
240 525 m 0
 171 525 115 469 115 400 c 0
 115 331 171 275 240 275 c 0
 309 275 365 331 365 400 c 0
 365 469 309 525 240 525 c 0
195 400 m 0
 195 425 215 445 240 445 c 0
 265 445 285 425 285 400 c 0
 285 375 265 355 240 355 c 0
 215 355 195 375 195 400 c 0
195 400 m 0
 195 375 215 355 240 355 c 0
 265 355 285 375 285 400 c 0
 285 425 265 445 240 445 c 0
 215 445 195 425 195 400 c 0
195 400 m 0
 195 425 215 445 240 445 c 0
 265 445 285 425 285 400 c 0
 285 375 265 355 240 355 c 0
 215 355 195 375 195 400 c 0
EndSplineSet
Validated: 37
EndChar

StartChar: E
Encoding: 69 69 6
Width: 650
Flags: W
HStem: 39 87<365.937 551> 352 1<308.239 319.761> 353 89<6.58472 108 275.481 352.519 518 620.562> 669 91<392 577.249>
VStem: 269 90<359.481 435.793>
LayerCount: 2
Fore
SplineSet
474 760 m 0xd8
 545 760 549 760 559 755 c 0
 587 742 593 703 570 682 c 0
 555 669 549 668 466 669 c 2
 392 669 l 1
 380 663 l 2
 370 658 366 655 361 644 c 0
 357 637 354 624 353 617 c 2
 352 604 l 1
 368 600 l 2
 401 592 431 575 459 548 c 0
 487 521 503 495 513 460 c 2
 518 442 l 1
 555 442 l 2xb8
 587 442 594 441 602 437 c 0
 614 431 619 426 624 414 c 0
 633 393 623 368 602 357 c 0
 597 354 586 353 557 352 c 2
 518 350 l 1
 514 335 l 2
 495 267 439 213 370 195 c 2
 353 191 l 1
 354 182 l 2
 355 166 360 154 369 144 c 0
 384 126 384 126 473 126 c 2
 551 126 l 1
 563 119 l 2
 583 107 591 81 580 60 c 0
 574 49 568 44 557 39 c 0
 545 34 397 34 374 39 c 1
 349 44 328 56 308 76 c 0
 281 103 269 133 264 178 c 2
 262 194 l 1
 250 197 l 2
 243 199 229 204 218 209 c 0
 166 234 126 282 112 338 c 2
 109 350 l 1
 70 352 l 2
 26 353 18 356 7 372 c 0
 -2 386 -2 407 7 421 c 0
 18 438 29 441 71 441 c 2
 108 441 l 1
 112 457 l 2
 128 519 179 575 243 595 c 2
 265 602 l 1
 265 617 l 2
 265 670 299 723 347 746 c 0
 372 758 390 760 474 760 c 0xd8
314 522 m 0
 245 522 189 467 189 398 c 0
 189 329 245 273 314 273 c 0
 383 273 439 329 439 398 c 0
 439 467 383 522 314 522 c 0
269 398 m 0
 269 423 289 442 314 442 c 0xb8
 339 442 359 423 359 398 c 0
 359 373 339 353 314 353 c 0xd8
 289 353 269 373 269 398 c 0
269 398 m 0
 269 373 289 352 314 352 c 0xd8
 339 352 359 373 359 398 c 0
 359 423 339 442 314 442 c 0
 289 442 269 423 269 398 c 0
269 398 m 0
 269 423 289 442 314 442 c 0xb8
 339 442 359 423 359 398 c 0
 359 373 339 353 314 353 c 0
 289 353 269 373 269 398 c 0
EndSplineSet
Validated: 37
EndChar

StartChar: F
Encoding: 70 70 7
Width: 750
Flags: HW
LayerCount: 2
Fore
SplineSet
227 770 m 0
 250 770 274 767 297 759 c 0
 360 738 413 683 429 621 c 2
 433 603 l 1
 561 602 l 2
 680 601 689 601 698 597 c 0
 709 592 717 579 719 566 c 0
 722 547 717 539 615 435 c 0
 562 381 516 336 512 334 c 0
 503 329 482 329 473 334 c 0
 469 336 447 356 425 379 c 2
 385 420 l 1
 378 413 l 2
 361 393 318 366 290 359 c 2
 276 356 l 1
 275 327 l 1
 275 298 l 1
 325 297 l 2
 383 296 391 294 402 277 c 0
 416 255 410 226 388 213 c 0
 377 207 377 207 326 207 c 2
 275 207 l 1
 275 175 l 2
 275 144 275 143 282 133 c 0
 291 121 302 113 317 111 c 0
 340 107 357 89 357 66 c 0
 357 35 333 16 299 21 c 0
 285 23 260 36 243 48 c 2
 230 57 l 1
 217 48 l 2
 200 35 186 29 168 24 c 0
 151 19 142 19 129 23 c 1
 129 23 l 1
 111 30 100 45 100 65 c 0
 100 79 104 90 115 99 c 0
 123 106 130 108 150 113 c 0
 160 115 177 130 181 139 c 0
 184 146 185 166 185 250 c 2
 185 354 l 1
 159 362 l 2
 94 383 45 436 27 504 c 0
 12 562 22 627 52 674 c 0
 92 735 158 769 227 770 c 0
230 686 m 0
 161 686 105 630 105 561 c 0
 105 492 161 436 230 436 c 0
 299 436 355 492 355 561 c 0
 355 630 299 686 230 686 c 0
489 515 m 1
 465 515 441 515 434 514 c 2
 423 512 l 1
 457 475 l 2
 476 455 493 439 494 439 c 0
 495 439 511 455 529 475 c 1
 529 475 l 1
 563 511 l 1
 548 513 l 2
 538 514 513 515 489 515 c 1
 489 515 l 1
185 561 m 0
 185 586 205 606 230 606 c 0
 255 606 275 586 275 561 c 0
 275 536 255 516 230 516 c 0
 205 516 185 536 185 561 c 0
185 561 m 0
 185 536 205 516 230 516 c 0
 255 516 275 536 275 561 c 0
 275 586 255 606 230 606 c 0
 205 606 185 586 185 561 c 0
185 561 m 0
 185 586 205 606 230 606 c 0
 255 606 275 586 275 561 c 0
 275 536 255 516 230 516 c 0
 205 516 185 536 185 561 c 0
EndSplineSet
Validated: 37
EndChar

StartChar: G
Encoding: 71 71 8
Width: 500
Flags: HW
LayerCount: 2
Fore
SplineSet
251 810 m 0
 276 810 302 809 318 805 c 0
 380 792 452 756 467 731 c 0
 478 713 471 695 430 626 c 0
 421 611 414 598 414 597 c 0
 414 596 419 587 426 577 c 0
 449 542 458 510 458 463 c 0
 458 388 430 333 373 296 c 0
 364 290 315 266 263 241 c 0
 211 216 169 195 169 194 c 0
 169 193 182 186 198 179 c 0
 253 154 410 76 423 68 c 0
 438 59 444 45 444 28 c 0
 444 4 429 -13 406 -15 c 0
 394 -16 384 -12 217 71 c 0
 120 119 38 162 34 165 c 0
 16 181 16 207 33 225 c 0
 37 229 64 244 94 258 c 0
 124 272 149 284 149 285 c 0
 149 286 142 291 133 297 c 0
 99 319 68 361 54 402 c 0
 44 431 42 482 49 512 c 0
 54 535 70 570 83 586 c 2
 91 597 l 1
 70 632 l 2
 29 698 26 709 36 729 c 0
 49 754 121 791 185 805 c 0
 201 809 226 810 251 810 c 0
254 721 m 0
 230 721 205 719 189 715 c 0
 165 709 136 698 136 694 c 0
 136 692 153 661 158 655 c 0
 160 653 164 653 175 658 c 0
 183 661 198 667 209 669 c 0
 247 678 294 673 330 657 c 2
 342 652 l 1
 355 672 l 2
 362 683 367 694 367 695 c 0
 367 698 325 714 304 718 c 0
 291 720 273 721 254 721 c 0
251 597 m 0
 182 597 126 541 126 472 c 0
 126 403 182 347 251 347 c 0
 320 347 376 403 376 472 c 0
 376 541 320 597 251 597 c 0
206 472 m 0
 206 497 226 517 251 517 c 0
 276 517 296 497 296 472 c 0
 296 447 276 427 251 427 c 0
 226 427 206 447 206 472 c 0
206 472 m 0
 206 447 226 427 251 427 c 0
 276 427 296 447 296 472 c 0
 296 497 276 517 251 517 c 0
 226 517 206 497 206 472 c 0
206 472 m 0
 206 497 226 517 251 517 c 0
 276 517 296 497 296 472 c 0
 296 447 276 427 251 427 c 0
 226 427 206 447 206 472 c 0
EndSplineSet
Validated: 37
EndChar

StartChar: H
Encoding: 72 72 9
Width: 750
Flags: HW
LayerCount: 2
Fore
SplineSet
289 750 m 0
 294 750 298 749 303 747 c 0
 320 740 330 725 330 706 c 0
 330 683 318 670 288 660 c 0
 246 646 212 625 182 595 c 0
 160 573 135 537 122 509 c 0
 114 491 102 451 104 446 c 0
 105 444 115 443 138 444 c 2
 170 445 l 1
 175 461 l 2
 177 470 183 485 188 495 c 0
 232 585 336 629 433 598 c 0
 496 578 550 523 567 461 c 2
 571 445 l 1
 604 444 l 1
 638 443 l 1
 638 450 l 2
 638 460 627 497 618 516 c 0
 599 557 560 601 522 626 c 0
 495 643 487 648 457 658 c 0
 443 663 429 669 426 672 c 0
 413 684 408 706 415 723 c 0
 420 735 426 741 437 746 c 0
 450 752 458 752 484 743 c 0
 611 701 701 600 726 468 c 0
 732 438 732 371 726 338 c 0
 706 226 634 128 533 78 c 0
 510 67 464 50 455 50 c 0
 446 50 430 58 423 66 c 0
 414 76 411 94 414 107 c 0
 418 122 430 132 453 140 c 0
 464 144 480 150 489 154 c 0
 539 177 589 226 617 282 c 0
 627 301 637 333 638 347 c 2
 639 357 l 1
 629 357 l 2
 623 357 608 356 595 356 c 2
 571 356 l 1
 569 345 l 2
 568 339 564 327 560 317 c 0
 535 260 480 214 417 199 c 0
 389 192 338 194 312 202 c 0
 264 217 223 246 197 287 c 0
 186 304 175 331 172 347 c 2
 171 355 l 1
 138 356 l 2
 120 357 104 357 103 357 c 0
 101 356 107 327 115 305 c 0
 129 266 152 232 185 201 c 0
 216 171 254 150 294 138 c 0
 328 128 342 96 324 69 c 0
 317 58 301 50 288 50 c 0
 283 50 267 54 254 58 c 1
 254 58 l 1
 169 86 102 142 56 222 c 0
 6 309 -4 419 30 521 c 0
 47 573 74 615 116 657 c 0
 157 698 199 724 254 742 c 0
 271 748 281 750 289 750 c 0
370 525 m 0
 301 525 245 469 245 400 c 0
 245 331 301 275 370 275 c 0
 439 275 495 331 495 400 c 0
 495 469 439 525 370 525 c 0
325 400 m 0
 325 425 345 445 370 445 c 0
 395 445 415 425 415 400 c 0
 415 375 395 355 370 355 c 0
 345 355 325 375 325 400 c 0
325 400 m 0
 325 375 345 355 370 355 c 0
 395 355 415 375 415 400 c 0
 415 425 395 445 370 445 c 0
 345 445 325 425 325 400 c 0
325 400 m 0
 325 425 345 445 370 445 c 0
 395 445 415 425 415 400 c 0
 415 375 395 355 370 355 c 0
 345 355 325 375 325 400 c 0
EndSplineSet
Validated: 37
EndChar

StartChar: I
Encoding: 73 73 10
Width: 450
Flags: W
HStem: 355 90<182.481 259.519> 780 20G<214.5 229>
VStem: 176 90<6.14353 199 361.481 438.519 601 775.444>
LayerCount: 2
Fore
SplineSet
222 800 m 2
 236 800 249 794 259 781 c 0
 264 774 264 769 265 687 c 2
 266 601 l 1
 283 596 l 2
 348 578 404 521 423 451 c 0
 429 427 429 373 423 349 c 0
 404 279 348 221 283 203 c 2
 266 199 l 1
 266 114 l 2
 266 31 266 30 260 21 c 0
 257 16 251 9 247 6 c 0
 238 -1 214 -2 203 3 c 1
 192 8 181 21 179 33 c 0
 178 38 178 68 179 99 c 0
 180 130 180 165 179 177 c 2
 177 199 l 1
 155 206 l 2
 124 216 103 229 78 254 c 0
 18 313 -1 396 29 475 c 0
 50 531 101 579 156 595 c 2
 178 601 l 1
 178 683 l 2
 178 762 178 764 184 776 c 0
 192 792 207 800 222 800 c 2
221 525 m 0
 152 525 96 469 96 400 c 0
 96 331 152 275 221 275 c 0
 290 275 346 331 346 400 c 0
 346 469 290 525 221 525 c 0
176 400 m 0
 176 425 196 445 221 445 c 0
 246 445 266 425 266 400 c 0
 266 375 246 355 221 355 c 0
 196 355 176 375 176 400 c 0
176 400 m 0
 176 375 196 355 221 355 c 0
 246 355 266 375 266 400 c 0
 266 425 246 445 221 445 c 0
 196 445 176 425 176 400 c 0
176 400 m 0
 176 425 196 445 221 445 c 0
 246 445 266 425 266 400 c 0
 266 375 246 355 221 355 c 0
 196 355 176 375 176 400 c 0
EndSplineSet
Validated: 37
EndChar

StartChar: J
Encoding: 74 74 11
Width: 550
Flags: HW
LayerCount: 2
Fore
SplineSet
476 770 m 0
 478 770 481 769 483 769 c 0
 497 767 511 756 517 744 c 0
 528 719 522 705 482 667 c 2
 453 639 l 1
 464 619 l 2
 498 555 494 471 454 411 c 0
 429 373 386 342 342 329 c 2
 323 323 l 1
 322 228 l 2
 321 146 320 132 316 120 c 0
 292 47 220 7 142 24 c 0
 88 36 44 79 33 134 c 0
 26 169 30 191 47 203 c 0
 54 208 59 209 75 209 c 0
 90 209 95 208 101 204 c 0
 113 195 117 187 120 169 c 0
 123 145 126 137 136 126 c 0
 148 114 160 109 177 109 c 0
 194 109 209 116 219 129 c 0
 232 145 233 149 234 239 c 2
 235 322 l 1
 228 324 l 2
 191 332 159 348 134 372 c 0
 89 414 70 462 70 527 c 0
 70 601 102 660 163 701 c 0
 225 742 308 746 375 710 c 2
 390 702 l 1
 422 733 l 2
 452 762 462 770 476 770 c 0
278 652 m 0
 209 652 153 596 153 527 c 0
 153 458 209 402 278 402 c 0
 347 402 403 458 403 527 c 0
 403 596 347 652 278 652 c 0
233 527 m 0
 233 552 253 572 278 572 c 0
 303 572 323 552 323 527 c 0
 323 502 303 482 278 482 c 0
 253 482 233 502 233 527 c 0
233 527 m 0
 233 502 253 482 278 482 c 0
 303 482 323 502 323 527 c 0
 323 552 303 572 278 572 c 0
 253 572 233 552 233 527 c 0
233 527 m 0
 233 552 253 572 278 572 c 0
 303 572 323 552 323 527 c 0
 323 502 303 482 278 482 c 0
 253 482 233 502 233 527 c 0
EndSplineSet
Validated: 37
EndChar

StartChar: K
Encoding: 75 75 12
Width: 600
Flags: HW
LayerCount: 2
Fore
SplineSet
227 750 m 0
 238 750 250 746 258 738 c 0
 271 725 272 720 272 658 c 2
 272 601 l 1
 282 599 l 2
 336 585 382 548 408 498 c 2
 418 480 l 1
 466 528 l 2
 492 554 517 577 521 579 c 0
 537 587 557 582 570 568 c 0
 579 559 582 551 582 539 c 0
 582 522 575 512 517 456 c 2
 461 401 l 1
 516 346 l 2
 583 279 589 270 578 245 c 0
 567 221 541 212 518 223 c 0
 512 226 491 244 463 273 c 0
 438 298 418 318 418 318 c 0
 418 318 413 309 407 298 c 0
 383 252 334 214 284 202 c 2
 272 199 l 1
 272 143 l 2
 272 81 271 76 258 63 c 0
 247 52 227 47 212 53 c 0
 201 57 192 65 188 74 c 0
 184 82 183 90 183 141 c 2
 183 198 l 1
 167 203 l 2
 134 211 105 229 79 256 c 0
 52 285 36 312 27 348 c 0
 -2 460 67 576 177 600 c 2
 183 601 l 1
 183 659 l 2
 183 711 184 717 188 726 c 0
 195 741 211 750 227 750 c 0
227 525 m 0
 158 525 102 469 102 400 c 0
 102 331 158 275 227 275 c 0
 296 275 352 331 352 400 c 0
 352 469 296 525 227 525 c 0
182 400 m 0
 182 425 202 445 227 445 c 0
 252 445 272 425 272 400 c 0
 272 375 252 355 227 355 c 0
 202 355 182 375 182 400 c 0
182 400 m 0
 182 375 202 355 227 355 c 0
 252 355 272 375 272 400 c 0
 272 425 252 445 227 445 c 0
 202 445 182 425 182 400 c 0
182 400 m 0
 182 425 202 445 227 445 c 0
 252 445 272 425 272 400 c 0
 272 375 252 355 227 355 c 0
 202 355 182 375 182 400 c 0
EndSplineSet
Validated: 37
EndChar

StartChar: L
Encoding: 76 76 13
Width: 600
Flags: W
HStem: 25 170<343.437 513.107> 28 350<223.18 309.077> 458 90<230.481 307.519> 628 85<199.127 337.642> 730 20G<51 74> 730 20G<51 74>
VStem: 224 90<148 294 464.481 541.519>
LayerCount: 2
Fore
SplineSet
67 750 m 0x7a
 81 750 92 742 122 712 c 2
 153 681 l 1
 173 691 l 2
 200 706 223 711 257 713 c 0
 320 716 370 698 413 657 c 0
 477 596 495 503 465 421 c 0
 444 364 388 314 330 299 c 2
 310 295 l 1
 308 244 310 200 310 148 c 1
 323 159 l 2
 353 183 388 195 431 195 c 0
 478 195 506 185 534 157 c 0
 572 119 583 59 557 36 c 0
 545 25 541 25 397 25 c 0xba
 314 25 257 27 252 28 c 0
 239 32 223 37 223 49 c 2
 223 294 l 1
 206 299 l 2
 151 313 101 354 75 409 c 0
 46 468 50 552 83 605 c 2
 90 616 l 1
 57 649 l 2
 22 684 19 692 21 710 c 0
 24 730 41 747 61 750 c 0
 63 750 65 750 67 750 c 0x7a
269 628 m 0
 200 628 144 572 144 503 c 0
 144 434 200 378 269 378 c 0x72
 338 378 394 434 394 503 c 0
 394 572 338 628 269 628 c 0
224 503 m 0
 224 528 244 548 269 548 c 0
 294 548 314 528 314 503 c 0
 314 478 294 458 269 458 c 0
 244 458 224 478 224 503 c 0
224 503 m 0
 224 478 244 458 269 458 c 0
 294 458 314 478 314 503 c 0
 314 528 294 548 269 548 c 0
 244 548 224 528 224 503 c 0
224 503 m 0
 224 528 244 548 269 548 c 0
 294 548 314 528 314 503 c 0
 314 478 294 458 269 458 c 0
 244 458 224 478 224 503 c 0
EndSplineSet
Validated: 37
EndChar

StartChar: M
Encoding: 77 77 14
Width: 750
Flags: HW
LayerCount: 2
Fore
SplineSet
380 660 m 0
 401 660 422 659 437 656 c 0
 485 647 534 627 575 599 c 2
 598 583 l 1
 618 603 l 2
 642 629 651 634 668 634 c 0
 689 634 704 622 711 602 c 0
 717 583 709 567 681 540 c 2
 660 520 l 1
 665 515 l 2
 682 496 706 450 719 411 c 0
 750 319 743 224 700 134 c 0
 683 99 670 87 648 87 c 0
 628 87 611 101 605 119 c 0
 601 132 602 140 619 174 c 0
 638 214 646 242 648 285 c 0
 651 362 631 420 580 479 c 0
 541 525 492 552 424 567 c 2
 417 569 l 1
 417 535 l 1
 417 501 l 1
 424 499 l 2
 468 489 509 463 537 428 c 0
 577 377 593 308 576 235 c 0
 562 174 511 122 454 100 c 0
 403 81 342 81 290 101 c 0
 254 116 214 151 194 185 c 0
 152 256 156 354 204 419 c 0
 234 459 269 484 311 496 c 0
 321 499 329 501 329 501 c 0
 330 502 331 566 330 567 c 0
 327 570 280 556 258 546 c 0
 216 526 182 499 154 461 c 0
 117 412 100 360 100 296 c 0
 100 243 108 216 132 167 c 0
 149 133 150 118 135 102 c 0
 114 79 79 83 61 111 c 0
 42 141 23 191 15 234 c 0
 8 269 9 331 16 364 c 0
 27 414 45 457 72 498 c 2
 87 520 l 1
 64 544 l 2
 49 559 40 570 39 575 c 0
 38 579 37 584 36 586 c 0
 32 599 49 625 64 631 c 0
 85 640 101 633 130 604 c 2
 151 584 l 1
 170 597 l 2
 209 624 255 643 305 654 c 0
 324 658 353 660 380 660 c 0
374 420 m 0
 305 420 249 364 249 295 c 0
 249 226 305 170 374 170 c 0
 443 170 499 226 499 295 c 0
 499 364 443 420 374 420 c 0
329 295 m 0
 329 320 349 340 374 340 c 0
 399 340 419 320 419 295 c 0
 419 270 399 250 374 250 c 0
 349 250 329 270 329 295 c 0
329 295 m 0
 329 270 349 250 374 250 c 0
 399 250 419 270 419 295 c 0
 419 320 399 340 374 340 c 0
 349 340 329 320 329 295 c 0
329 295 m 0
 329 320 349 340 374 340 c 0
 399 340 419 320 419 295 c 0
 419 270 399 250 374 250 c 0
 349 250 329 270 329 295 c 0
EndSplineSet
Validated: 37
EndChar

StartChar: N
Encoding: 78 78 15
Width: 750
Flags: HW
LayerCount: 2
Fore
SplineSet
688 720 m 0
 700 720 712 715 720 705 c 0
 730 692 730 685 725 627 c 0
 719 561 707 420 693 247 c 0
 687 175 681 111 680 107 c 0
 677 90 655 76 635 76 c 0
 619 76 611 83 549 146 c 2
 488 209 l 1
 481 204 l 2
 427 166 339 161 277 192 c 0
 181 243 134 360 178 470 c 1
 189 493 l 1
 164 518 l 2
 148 534 139 541 138 539 c 0
 137 537 136 523 135 506 c 0
 132 441 110 187 101 107 c 0
 99 90 96 74 94 70 c 0
 83 48 56 39 33 49 c 0
 22 54 15 64 11 76 c 0
 9 83 12 138 32 365 c 0
 45 519 57 649 58 654 c 0
 62 681 92 697 118 686 c 0
 124 684 149 660 189 620 c 2
 251 558 l 1
 260 564 l 2
 312 595 382 602 444 581 c 0
 497 562 546 514 565 463 c 0
 576 434 579 410 578 374 c 0
 577 337 573 322 559 292 c 2
 549 272 l 1
 574 247 l 2
 588 233 599 223 600 223 c 0
 601 223 602 233 603 247 c 0
 612 379 637 671 641 687 c 0
 646 708 668 720 688 720 c 0
369 507 m 0
 300 507 244 451 244 382 c 0
 244 313 300 258 369 258 c 0
 438 258 494 313 494 382 c 0
 494 451 438 507 369 507 c 0
324 382 m 0
 324 407 344 427 369 427 c 0
 394 427 414 407 414 382 c 0
 414 357 394 338 369 338 c 0
 344 338 324 357 324 382 c 0
324 382 m 0
 324 357 344 338 369 338 c 0
 394 338 414 357 414 382 c 0
 414 407 394 428 369 428 c 0
 344 428 324 407 324 382 c 0
324 382 m 0
 324 407 344 427 369 427 c 0
 394 427 414 407 414 382 c 0
 414 357 394 338 369 338 c 0
 344 338 324 357 324 382 c 0
EndSplineSet
Validated: 37
EndChar

StartChar: O
Encoding: 79 79 16
Width: 800
Flags: W
HStem: 350 90<346.481 423.519> 678 92<273.235 491.533>
VStem: 340 90<117.579 186 356.481 433.519> 668 92<282.258 501.853>
LayerCount: 2
Fore
SplineSet
396 770 m 0
 470 770 543 748 607 706 c 0
 634 688 676 648 697 620 c 0
 747 553 774 463 770 378 c 0
 765 280 728 197 660 129 c 0
 606 75 544 41 468 26 c 0
 435 19 375 18 343 23 c 0
 258 36 188 71 129 129 c 0
 74 184 41 246 26 323 c 0
 18 361 18 424 25 461 c 0
 50 593 138 700 263 746 c 0
 306 762 351 770 396 770 c 0
405 678 m 0
 376 678 342 675 322 670 c 0
 276 658 239 636 202 601 c 0
 160 561 133 517 119 463 c 0
 80 315 173 158 323 119 c 0
 352 111 350 109 350 150 c 2
 350 186 l 1
 334 190 l 2
 267 209 210 264 190 330 c 0
 180 364 179 413 187 450 c 0
 203 521 261 581 334 601 c 0
 369 611 425 610 458 600 c 0
 523 580 577 529 598 465 c 0
 620 400 612 333 576 279 c 0
 547 236 499 201 450 189 c 2
 440 187 l 1
 440 150 l 2
 440 121 440 114 443 114 c 0
 453 114 499 128 517 137 c 0
 591 172 648 240 669 318 c 0
 677 347 681 387 678 418 c 0
 667 545 564 655 439 675 c 0
 430 677 418 678 405 678 c 0
395 520 m 0
 326 520 270 464 270 395 c 0
 270 326 326 270 395 270 c 0
 464 270 520 326 520 395 c 0
 520 464 464 520 395 520 c 0
350 395 m 0
 350 420 370 440 395 440 c 0
 420 440 440 420 440 395 c 0
 440 370 420 350 395 350 c 0
 370 350 350 370 350 395 c 0
350 395 m 0
 350 370 370 350 395 350 c 0
 420 350 440 370 440 395 c 0
 440 420 420 440 395 440 c 0
 370 440 350 420 350 395 c 0
350 395 m 0
 350 420 370 440 395 440 c 0
 420 440 440 420 440 395 c 0
 440 370 420 350 395 350 c 0
 370 350 350 370 350 395 c 0
EndSplineSet
Validated: 37
EndChar

StartChar: P
Encoding: 80 80 17
Width: 500
Flags: HW
LayerCount: 2
Fore
SplineSet
66 740 m 0
 71 740 76 739 81 737 c 0
 89 734 99 726 122 702 c 0
 144 679 154 670 156 672 c 0
 163 678 194 692 211 697 c 0
 234 703 276 706 300 702 c 0
 343 695 381 676 414 645 c 0
 461 600 483 546 479 482 c 0
 476 422 454 375 412 336 c 0
 372 299 325 281 267 281 c 0
 227 281 191 291 157 312 c 2
 146 319 l 1
 145 182 l 1
 144 45 l 1
 138 35 l 2
 126 17 101 10 81 19 c 1
 81 19 l 1
 69 24 59 37 57 47 c 2
 57 534 l 1
 63 552 l 2
 66 562 73 578 78 589 c 2
 88 608 l 1
 58 638 l 2
 24 670 18 679 20 697 c 0
 22 722 44 740 66 740 c 0
272 616 m 0
 203 616 147 560 147 491 c 0
 147 422 203 366 272 366 c 0
 341 366 397 422 397 491 c 0
 397 560 341 616 272 616 c 0
227 491 m 0
 227 516 247 536 272 536 c 0
 297 536 317 516 317 491 c 0
 317 466 297 446 272 446 c 0
 247 446 227 466 227 491 c 0
227 491 m 0
 227 466 247 446 272 446 c 0
 297 446 317 466 317 491 c 0
 317 516 297 536 272 536 c 0
 247 536 227 516 227 491 c 0
227 491 m 0
 227 516 247 536 272 536 c 0
 297 536 317 516 317 491 c 0
 317 466 297 446 272 446 c 0
 247 446 227 466 227 491 c 0
EndSplineSet
Validated: 37
EndChar

StartChar: Q
Encoding: 81 81 18
Width: 600
Flags: HW
LayerCount: 2
Fore
SplineSet
221 660 m 0
 253 660 283 652 312 638 c 0
 367 611 404 565 420 502 c 0
 426 479 426 435 421 412 c 0
 416 392 409 370 399 354 c 2
 391 341 l 1
 433 299 l 2
 456 276 475 258 476 258 c 0
 477 258 485 265 494 274 c 0
 504 285 515 292 521 295 c 0
 559 313 598 274 579 237 c 0
 577 233 567 222 557 212 c 2
 539 194 l 1
 558 174 l 2
 584 148 589 137 583 117 c 0
 578 100 557 85 540 85 c 0
 536 85 529 87 524 89 c 0
 517 92 493 115 422 186 c 2
 329 279 l 1
 319 273 l 2
 305 264 284 256 265 251 c 0
 251 247 244 247 218 247 c 0
 191 247 185 248 168 253 c 0
 62 282 -4 379 12 485 c 0
 19 534 36 567 71 601 c 0
 109 638 152 657 207 660 c 0
 212 660 216 660 221 660 c 0
216 578 m 0
 147 578 91 522 91 453 c 0
 91 384 147 328 216 328 c 0
 285 328 341 384 341 453 c 0
 341 522 285 578 216 578 c 0
171 453 m 0
 171 478 191 498 216 498 c 0
 241 498 261 478 261 453 c 0
 261 428 241 408 216 408 c 0
 191 408 171 428 171 453 c 0
171 453 m 0
 171 428 191 408 216 408 c 0
 241 408 261 428 261 453 c 0
 261 478 241 498 216 498 c 0
 191 498 171 478 171 453 c 0
171 453 m 0
 171 478 191 498 216 498 c 0
 241 498 261 478 261 453 c 0
 261 428 241 408 216 408 c 0
 191 408 171 428 171 453 c 0
EndSplineSet
Validated: 37
EndChar

StartChar: R
Encoding: 82 82 19
Width: 525
Flags: HW
LayerCount: 2
Fore
SplineSet
251 700 m 2
 251 700 l 2
 290 700 308 696 339 681 c 0
 362 670 374 662 393 644 c 0
 412 626 426 608 438 582 c 0
 454 549 456 537 456 495 c 0
 456 452 452 436 434 402 c 2
 423 381 l 1
 464 341 l 2
 516 290 522 277 511 253 c 0
 501 230 470 220 449 232 c 0
 447 233 426 253 403 276 c 2
 361 318 l 1
 339 307 l 2
 307 291 287 285 251 285 c 0
 208 285 174 294 143 314 c 0
 136 318 129 322 129 322 c 0
 129 322 130 264 130 194 c 0
 131 103 130 64 128 57 c 0
 121 33 96 19 70 27 c 0
 59 30 45 44 42 56 c 0
 40 64 39 121 40 298 c 2
 41 529 l 1
 46 547 l 2
 67 621 124 677 197 695 c 0
 213 699 223 700 251 700 c 2
252 617 m 0
 183 617 127 561 127 492 c 0
 127 423 183 367 252 367 c 0
 321 367 377 423 377 492 c 0
 377 561 321 617 252 617 c 0
207 492 m 0
 207 517 227 537 252 537 c 0
 277 537 297 517 297 492 c 0
 297 467 277 447 252 447 c 0
 227 447 207 467 207 492 c 0
207 492 m 0
 207 467 227 447 252 447 c 0
 277 447 297 467 297 492 c 0
 297 517 277 537 252 537 c 0
 227 537 207 517 207 492 c 0
207 492 m 0
 207 517 227 537 252 537 c 0
 277 537 297 517 297 492 c 0
 297 467 277 447 252 447 c 0
 227 447 207 467 207 492 c 0
EndSplineSet
Validated: 37
EndChar

StartChar: S
Encoding: 83 83 20
Width: 700
Flags: W
HStem: 350 90<301.481 378.519>
VStem: 130 85<325.127 437> 295 90<-22.9759 33 356.481 433.519 757 800.582> 465 85<354 462.685>
CounterMasks: 1 70
LayerCount: 2
Fore
SplineSet
340 820 m 2
 355 820 369 814 378 801 c 0
 384 792 384 788 384 738 c 0
 384 691 384 685 379 677 c 0
 368 659 333 650 318 662 c 0
 309 669 299 668 270 661 c 0
 214 647 159 611 124 566 c 2
 115 554 l 1
 139 538 l 2
 152 529 164 522 166 521 c 0
 168 520 176 528 184 537 c 0
 208 566 241 589 281 600 c 0
 313 609 368 609 398 600 c 0
 469 578 519 528 543 456 c 0
 549 439 550 430 550 395 c 2
 550 354 l 1
 575 338 l 2
 651 288 666 275 669 257 c 0
 672 242 668 229 645 195 c 0
 591 113 508 58 410 38 c 2
 385 33 l 1
 384 15 l 2
 382 -12 366 -28 342 -30 c 0
 331 -31 327 -29 318 -24 c 2
 299 -13 296 -5 295 55 c 0
 295 104 295 108 301 116 c 0
 309 127 322 134 338 136 c 0
 350 137 353 136 362 130 c 0
 375 121 385 121 422 133 c 0
 467 147 500 169 537 207 c 0
 551 222 563 235 562 237 c 0
 561 239 550 247 537 256 c 2
 513 272 l 1
 493 251 l 2
 458 213 417 192 363 185 c 0
 306 178 248 196 203 234 c 0
 181 253 165 274 151 303 c 0
 134 338 130 354 130 398 c 2
 130 437 l 1
 78 473 l 2
 49 493 22 512 18 517 c 0
 3 536 8 555 37 598 c 0
 90 678 182 738 275 754 c 2
 295 757 l 1
 296 774 l 2
 298 795 305 808 320 815 c 0
 327 818 333 820 340 820 c 2
340 520 m 0
 271 520 215 464 215 395 c 0
 215 326 271 270 340 270 c 0
 409 270 465 326 465 395 c 0
 465 464 409 520 340 520 c 0
295 395 m 0
 295 420 315 440 340 440 c 0
 365 440 385 420 385 395 c 0
 385 370 365 350 340 350 c 0
 315 350 295 370 295 395 c 0
295 395 m 0
 295 370 315 350 340 350 c 0
 365 350 385 370 385 395 c 0
 385 420 365 440 340 440 c 0
 315 440 295 420 295 395 c 0
295 395 m 0
 295 420 315 440 340 440 c 0
 365 440 385 420 385 395 c 0
 385 370 365 350 340 350 c 0
 315 350 295 370 295 395 c 0
EndSplineSet
Validated: 37
EndChar

StartChar: T
Encoding: 84 84 21
Width: 500
Flags: HW
LayerCount: 2
Fore
SplineSet
248 690 m 1
 346 690 442 690 448 688 c 0
 459 685 473 673 477 661 c 0
 484 643 477 621 461 609 c 2
 451 602 l 1
 370 601 l 1
 288 600 l 1
 288 526 l 1
 288 451 l 1
 306 446 l 2
 369 428 420 377 442 312 c 0
 450 289 452 269 451 237 c 0
 449 196 440 167 420 135 c 0
 406 113 375 82 353 69 c 0
 311 44 256 34 208 43 c 1
 208 43 l 1
 185 47 169 52 151 61 c 0
 97 88 58 136 43 193 c 0
 38 211 37 219 37 247 c 0
 37 294 46 326 68 361 c 0
 96 404 136 434 182 446 c 2
 199 451 l 1
 201 492 l 2
 202 515 202 548 202 566 c 2
 201 600 l 1
 120 601 l 2
 50 602 38 603 32 606 c 0
 -3 626 5 679 45 688 c 0
 52 690 150 690 248 690 c 1
 248 690 l 1
245 368 m 0
 176 368 120 312 120 243 c 0
 120 174 176 118 245 118 c 0
 314 118 370 174 370 243 c 0
 370 312 314 368 245 368 c 0
200 243 m 0
 200 268 220 288 245 288 c 0
 270 288 290 268 290 243 c 0
 290 218 270 198 245 198 c 0
 220 198 200 218 200 243 c 0
200 243 m 0
 200 218 220 198 245 198 c 0
 270 198 290 218 290 243 c 0
 290 268 270 288 245 288 c 0
 220 288 200 268 200 243 c 0
200 243 m 0
 200 268 220 288 245 288 c 0
 270 288 290 268 290 243 c 0
 290 218 270 198 245 198 c 0
 220 198 200 218 200 243 c 0
EndSplineSet
Validated: 37
EndChar

StartChar: U
Encoding: 85 85 22
Width: 800
Flags: HW
LayerCount: 2
Fore
SplineSet
394 680 m 0
 401 680 407 679 414 676 c 0
 426 670 435 661 438 647 c 0
 441 637 441 636 455 633 c 0
 474 629 511 610 530 595 c 0
 563 569 592 522 603 479 c 0
 615 430 607 371 582 329 c 2
 574 315 l 1
 600 290 l 2
 614 276 625 264 626 265 c 0
 652 297 675 358 677 406 c 0
 679 443 682 454 693 464 c 0
 701 471 717 478 725 478 c 0
 733 478 748 472 756 464 c 0
 772 450 774 431 767 380 c 0
 756 295 722 226 662 166 c 0
 602 106 531 70 445 58 c 0
 422 55 380 54 358 56 c 0
 297 63 235 85 184 119 c 0
 151 141 104 188 83 220 c 0
 45 277 25 337 21 407 c 0
 19 438 22 452 34 464 c 0
 54 484 90 480 105 456 c 0
 109 449 111 442 113 416 c 0
 117 364 129 321 151 285 c 0
 157 275 163 266 164 265 c 0
 165 264 177 276 191 290 c 2
 217 316 l 1
 209 330 l 2
 160 413 182 529 259 594 c 0
 279 611 314 629 335 633 c 0
 349 636 351 637 352 644 c 0
 356 665 374 679 394 680 c 0
395 558 m 0
 326 558 270 502 270 433 c 0
 270 364 326 308 395 308 c 0
 464 308 520 364 520 433 c 0
 520 502 464 558 395 558 c 0
281 251 m 1
 255 227 l 2
 241 214 230 202 230 201 c 0
 230 197 267 175 289 167 c 0
 307 160 340 150 347 150 c 0
 349 150 350 159 350 186 c 2
 350 221 l 1
 336 226 l 2
 328 228 312 235 301 241 c 2
 281 251 l 1
510 250 m 1
 491 241 l 2
 480 236 465 229 456 226 c 2
 440 221 l 1
 440 186 l 2
 440 166 442 150 443 150 c 0
 444 150 453 152 464 155 c 0
 502 165 536 180 560 199 c 0
 560 199 550 211 536 225 c 2
 510 250 l 1
350 433 m 0
 350 458 370 478 395 478 c 0
 420 478 440 458 440 433 c 0
 440 408 420 388 395 388 c 0
 370 388 350 408 350 433 c 0
350 433 m 0
 350 408 370 388 395 388 c 0
 420 388 440 408 440 433 c 0
 440 458 420 478 395 478 c 0
 370 478 350 458 350 433 c 0
350 433 m 0
 350 458 370 478 395 478 c 0
 420 478 440 458 440 433 c 0
 440 408 420 388 395 388 c 0
 370 388 350 408 350 433 c 0
EndSplineSet
Validated: 37
EndChar

StartChar: V
Encoding: 86 86 23
Width: 650
Flags: W
HStem: 174 90<235.481 312.519> 670 90<152.498 393.887>
VStem: 229 90<180.481 257.519>
LayerCount: 2
Fore
SplineSet
266 760 m 0
 274 760 281 760 289 760 c 0
 362 757 422 739 466 709 c 0
 475 703 484 698 485 698 c 0
 486 698 499 708 514 718 c 0
 529 728 551 741 562 746 c 0
 580 755 584 756 596 755 c 0
 614 754 625 746 633 729 c 0
 645 705 634 681 607 668 c 0
 587 659 538 629 534 625 c 0
 532 623 532 616 534 604 c 0
 538 571 529 529 508 488 c 0
 489 451 463 420 427 397 c 0
 416 390 406 384 406 384 c 0
 406 384 413 375 422 365 c 0
 520 264 493 95 369 32 c 0
 358 26 340 19 329 16 c 0
 303 9 258 8 232 13 c 0
 154 28 91 85 69 161 c 0
 57 204 62 241 72 285 c 0
 83 318 99 344 121 366 c 0
 136 381 139 385 135 386 c 0
 132 387 124 392 116 397 c 0
 29 453 -14 577 25 655 c 0
 57 718 152 759 266 760 c 0
274 670 m 0
 221 670 168 660 136 641 c 0
 108 624 100 614 100 590 c 0
 100 495 193 428 302 443 c 0
 365 452 416 490 435 542 c 0
 438 551 441 567 443 579 c 0
 446 599 446 600 441 611 c 0
 435 623 420 635 399 646 c 0
 367 662 321 670 274 670 c 0
274 344 m 0
 205 344 149 288 149 219 c 0
 149 150 205 94 274 94 c 0
 343 94 399 150 399 219 c 0
 399 288 343 344 274 344 c 0
229 219 m 0
 229 244 249 264 274 264 c 0
 299 264 319 244 319 219 c 0
 319 194 299 174 274 174 c 0
 249 174 229 194 229 219 c 0
229 219 m 0
 229 194 249 174 274 174 c 0
 299 174 319 194 319 219 c 0
 319 244 299 264 274 264 c 0
 249 264 229 244 229 219 c 0
229 219 m 0
 229 244 249 264 274 264 c 0
 299 264 319 244 319 219 c 0
 319 194 299 174 274 174 c 0
 249 174 229 194 229 219 c 0
EndSplineSet
Validated: 37
EndChar

StartChar: W
Encoding: 87 87 24
Width: 750
Flags: HW
LayerCount: 2
Fore
SplineSet
369 720 m 2
 369 720 l 2
 389 720 409 706 414 690 c 0
 415 685 416 637 416 572 c 2
 416 461 l 1
 426 459 l 2
 461 450 495 430 521 402 c 2
 539 382 l 1
 555 395 l 2
 596 428 621 472 625 525 c 0
 627 552 628 556 636 565 c 0
 646 577 655 581 671 581 c 0
 687 581 697 577 707 565 c 0
 720 551 722 535 716 496 c 0
 705 423 662 357 597 314 c 0
 583 305 577 299 577 296 c 0
 577 294 578 279 579 263 c 0
 582 200 561 149 516 105 c 0
 488 77 456 59 418 50 c 0
 397 45 354 43 333 47 c 1
 333 47 l 1
 286 56 241 81 213 114 c 0
 178 155 162 195 160 248 c 0
 159 265 161 283 162 288 c 2
 164 298 l 1
 144 311 l 2
 82 352 35 424 23 496 c 0
 17 533 19 549 30 564 c 0
 45 585 88 586 104 565 c 0
 110 557 112 547 115 518 c 0
 120 467 144 425 183 394 c 0
 191 388 198 382 199 382 c 0
 200 382 205 387 210 394 c 0
 232 422 273 449 313 459 c 2
 323 461 l 1
 323 573 l 2
 323 646 323 687 325 691 c 0
 331 707 351 720 369 720 c 2
369 375 m 0
 300 375 244 319 244 250 c 0
 244 181 300 125 369 125 c 0
 438 125 494 181 494 250 c 0
 494 319 438 375 369 375 c 0
324 250 m 0
 324 275 344 295 369 295 c 0
 394 295 414 275 414 250 c 0
 414 225 394 205 369 205 c 0
 344 205 324 225 324 250 c 0
324 250 m 0
 324 225 344 205 369 205 c 0
 394 205 414 225 414 250 c 0
 414 275 394 295 369 295 c 0
 344 295 324 275 324 250 c 0
324 250 m 0
 324 275 344 295 369 295 c 0
 394 295 414 275 414 250 c 0
 414 225 394 205 369 205 c 0
 344 205 324 225 324 250 c 0
EndSplineSet
Validated: 37
EndChar

StartChar: X
Encoding: 88 88 25
Width: 600
Flags: HW
LayerCount: 2
Fore
SplineSet
524 650 m 2
 524 650 l 2
 531 650 538 649 544 646 c 0
 553 641 561 632 566 623 c 0
 571 614 571 596 566 586 c 0
 564 582 544 560 517 532 c 2
 472 486 l 1
 481 470 l 2
 498 438 506 404 504 366 c 0
 502 330 495 301 479 275 c 2
 471 263 l 1
 517 217 l 2
 563 172 568 166 570 152 c 0
 573 130 555 106 531 101 c 0
 523 99 520 99 511 102 c 0
 500 106 497 107 437 169 c 2
 408 199 l 1
 402 195 l 2
 341 157 250 157 192 194 c 2
 182 201 l 1
 165 183 l 2
 107 122 92 108 83 104 c 0
 74 100 64 99 55 102 c 2
 55 102 l 1
 29 110 13 137 22 160 c 0
 25 167 33 177 72 216 c 2
 119 262 l 1
 111 277 l 2
 101 294 96 306 91 327 c 0
 85 350 85 399 91 422 c 0
 96 442 104 463 113 477 c 2
 119 488 l 1
 73 534 l 2
 48 559 26 583 24 586 c 0
 10 614 34 650 66 650 c 0
 84 650 90 644 139 594 c 2
 182 550 l 1
 191 556 l 2
 250 593 336 593 396 557 c 2
 408 550 l 1
 452 595 l 2
 476 620 499 642 504 645 c 0
 509 648 517 650 524 650 c 2
295 500 m 0
 226 500 170 444 170 375 c 0
 170 306 226 250 295 250 c 0
 364 250 420 306 420 375 c 0
 420 444 364 500 295 500 c 0
250 375 m 4
 250 400 270 420 295 420 c 4
 320 420 340 400 340 375 c 4
 340 350 320 330 295 330 c 4
 270 330 250 350 250 375 c 4
EndSplineSet
Validated: 37
EndChar

StartChar: Y
Encoding: 89 89 26
Width: 520
Flags: HW
LayerCount: 2
Fore
SplineSet
57 740 m 2
 57 740 l 2
 71 740 85 729 113 702 c 2
 144 672 l 1
 165 683 l 2
 225 713 298 711 355 680 c 2
 370 672 l 1
 402 703 l 2
 436 737 445 742 464 739 c 0
 484 736 502 714 502 694 c 0
 502 679 496 669 465 638 c 2
 434 608 l 1
 444 588 l 2
 458 561 463 537 465 502 c 0
 466 468 463 443 452 415 c 0
 428 354 372 305 314 293 c 2
 302 290 l 1
 302 212 l 2
 303 135 303 134 309 125 c 0
 315 115 327 109 343 106 c 0
 367 102 384 86 386 65 c 0
 389 37 369 15 340 15 c 0
 318 15 278 32 266 47 c 0
 261 53 260 53 247 43 c 0
 232 31 217 24 199 19 c 0
 181 14 169 14 156 19 c 1
 156 19 l 1
 144 23 133 33 130 46 c 0
 123 72 141 96 175 106 c 0
 196 112 207 121 210 133 c 0
 211 138 212 173 212 216 c 2
 212 289 l 1
 194 295 l 2
 159 305 120 330 97 358 c 0
 64 397 48 441 48 492 c 0
 48 531 57 568 74 596 c 2
 80 607 l 1
 50 638 l 2
 33 656 18 673 16 678 c 0
 6 701 16 724 40 735 c 0
 46 738 51 740 57 740 c 2
257 619 m 0
 188 619 132 563 132 494 c 0
 132 425 188 369 257 369 c 0
 326 369 382 425 382 494 c 0
 382 563 326 619 257 619 c 0
212 494 m 0
 212 519 232 539 257 539 c 0
 282 539 302 519 302 494 c 0
 302 469 282 449 257 449 c 0
 232 449 212 469 212 494 c 0
212 494 m 0
 212 469 232 449 257 449 c 0
 282 449 302 469 302 494 c 0
 302 519 282 539 257 539 c 0
 232 539 212 519 212 494 c 0
212 494 m 0
 212 519 232 539 257 539 c 0
 282 539 302 519 302 494 c 0
 302 469 282 449 257 449 c 0
 232 449 212 469 212 494 c 0
EndSplineSet
Validated: 37
EndChar

StartChar: Z
Encoding: 90 90 27
Width: 450
Flags: HW
LayerCount: 2
Fore
SplineSet
122 740 m 0
 156 740 161 730 266 625 c 0
 328 564 383 507 389 499 c 0
 422 453 435 391 424 338 c 0
 415 294 398 260 370 231 c 0
 343 203 304 180 273 175 c 0
 268 174 262 174 260 173 c 0
 258 172 268 160 290 138 c 2
 323 104 l 1
 349 106 l 2
 386 108 401 101 410 81 c 0
 420 59 413 34 393 22 c 0
 382 16 380 16 338 15 c 0
 300 14 294 15 286 19 c 0
 274 25 64 233 49 254 c 0
 35 274 22 301 15 325 c 0
 11 341 10 351 10 378 c 0
 10 408 11 415 17 434 c 0
 35 494 71 538 122 564 c 0
 140 573 168 582 177 582 c 0
 183 582 180 586 150 616 c 2
 116 650 l 1
 86 650 l 2
 47 650 36 655 27 677 c 0
 19 697 25 719 42 731 c 0
 52 738 54 738 93 739 c 0
 105 739 114 740 122 740 c 0
219 502 m 0
 150 502 94 447 94 378 c 0
 94 309 150 253 219 253 c 0
 288 253 344 309 344 378 c 0
 344 447 288 502 219 502 c 0
174 378 m 0
 174 403 194 422 219 422 c 0
 244 422 264 403 264 378 c 0
 264 353 244 333 219 333 c 0
 194 333 174 353 174 378 c 0
174 378 m 0
 174 353 194 332 219 332 c 0
 244 332 264 353 264 378 c 0
 264 403 244 422 219 422 c 0
 194 422 174 403 174 378 c 0
174 378 m 0
 174 403 194 422 219 422 c 0
 244 422 264 403 264 378 c 0
 264 353 244 333 219 333 c 0
 194 333 174 353 174 378 c 0
EndSplineSet
Validated: 37
EndChar

StartChar: uni0394
Encoding: 916 916 32
Width: 625
Flags: HW
LayerCount: 2
Fore
SplineSet
308.186523438 800 m 1
 308.186523438 800 l 1
 322.44140625 800 339.251953125 790.245117188 346.551757812 777.736328125 c 0
 350.765625 770.517578125 356.545898438 750.009765625 363.138671875 718.89453125 c 0
 370.6953125 683.233398438 373.329101562 673.349609375 376.920898438 670.575195312 c 0
 441.108398438 647.721679688 489.244140625 593.760742188 504.646484375 527.390625 c 1
 540.149414062 527.390625 l 2
 582.643554688 527.358398438 593.31640625 523.985351562 604.526367188 507.044921875 c 0
 613.780273438 493.115234375 613.805664062 471.705078125 604.618164062 457.823242188 c 0
 594.0078125 441.790039062 585.471679688 439.077148438 541.237304688 437.685546875 c 2
 504.502929688 436.529296875 l 1
 495.43359375 397.819335938 475.030273438 362.69140625 445.900390625 335.631835938 c 1
 449.049804688 326.580078125 455.77734375 301.443359375 461.99609375 275.23828125 c 2
 494.791992188 156.00390625 l 2
 505.889648438 114.586914062 511.116210938 94.8564453125 513.1875 83.3984375 c 0
 515.524414062 77.978515625 516.708007812 72.12109375 516.708007812 66.19921875 c 2
 516.708007812 66.1982421875 l 2
 516.708007812 52.6416015625 510.272460938 38.7666015625 497.38671875 29.1396484375 c 0
 490.354492188 23.8857421875 486.075195312 23.5986328125 403.791992188 22.86328125 c 2
 217.123046875 22.3037109375 l 2
 133.724609375 22.3037109375 132.33203125 22.404296875 123.63671875 28.3115234375 c 0
 118.78125 31.6162109375 112.397460938 37.57421875 109.452148438 41.552734375 c 0
 103.55859375 49.5087890625 101.372070312 68.1884765625 104.288085938 80.3076171875 c 0
 106.231445312 91.6103515625 111.452148438 111.315429688 122.874023438 153.940429688 c 2
 155.669921875 273.173828125 l 2
 162.739257812 302.966796875 170.471679688 331.400390625 172.850585938 336.359375 c 0
 172.875 336.409179688 172.90625 336.458984375 172.9296875 336.508789062 c 0
 144.190429688 363.517578125 124.078125 398.421875 115.124023438 436.831054688 c 1
 78.470703125 437.984375 l 2
 34.236328125 439.375976562 25.7001953125 442.088867188 15.08984375 458.123046875 c 0
 5.90234375 472.004882812 5.9267578125 493.4140625 15.1806640625 507.344726562 c 0
 26.3916015625 524.284179688 37.064453125 527.657226562 79.5576171875 527.689453125 c 2
 115.158203125 527.689453125 l 1
 126.583984375 573.342773438 168.262695312 632.575195312 219.204101562 660.314453125 c 0
 227.234375 664.392578125 235.53125 667.922851562 244.038085938 670.881835938 c 0
 246.772460938 674.498046875 249.467773438 686.151367188 257.572265625 723.153320312 c 0
 263.421875 749.866210938 270.5 775.4296875 273.299804688 779.9609375 c 0
 279.669921875 790.267578125 296.61328125 800 308.186523438 800 c 1
309.854492188 607.180664062 m 0
 240.826171875 607.180664062 184.869140625 551.22265625 184.869140625 482.1953125 c 0
 184.869140625 413.16796875 240.827148438 357.209960938 309.854492188 357.2109375 c 0
 378.880859375 357.2109375 434.838867188 413.16796875 434.838867188 482.1953125 c 0
 434.838867188 551.22265625 378.880859375 607.1796875 309.854492188 607.180664062 c 0
250.65625 291.192382812 m 1
 250.65625 291.192382812 l 2
 247.538085938 278.780273438 242.854492188 261.255859375 236.02734375 235.776367188 c 2
 206.34765625 127.172851562 l 2
 204.513671875 120.568359375 203.020507812 115.21484375 201.458007812 109.609375 c 1
 201.572265625 109.606445312 201.68359375 109.604492188 201.797851562 109.6015625 c 2
 399.541015625 110.419921875 l 2
 405.953125 110.419921875 411.103515625 110.413085938 416.559570312 110.408203125 c 1
 414.905273438 116.34375 413.284179688 122.15625 411.318359375 129.236328125 c 2
 381.638671875 237.840820312 l 2
 375.236328125 261.734375 370.745117188 278.541992188 367.635742188 290.79296875 c 1
 348.8984375 285.122070312 329.430664062 282.233398438 309.854492188 282.219726562 c 0
 289.783203125 282.22265625 269.826171875 285.248046875 250.65625 291.192382812 c 1
264.864257812 482.1953125 m 0
 264.864257812 507.041015625 285.006835938 527.18359375 309.853515625 527.18359375 c 0
 334.700195312 527.18359375 354.84375 507.041015625 354.84375 482.1953125 c 0
 354.84375 457.348632812 334.700195312 437.206054688 309.853515625 437.206054688 c 0
 285.006835938 437.206054688 264.864257812 457.348632812 264.864257812 482.1953125 c 0
264.853515625 482.1953125 m 0
 264.853515625 457.342773438 285.000976562 437.1953125 309.853515625 437.1953125 c 0
 334.706054688 437.1953125 354.854492188 457.342773438 354.854492188 482.1953125 c 0
 354.854492188 507.047851562 334.706054688 527.1953125 309.853515625 527.1953125 c 0
 285.000976562 527.1953125 264.853515625 507.047851562 264.853515625 482.1953125 c 0
264.859375 482.1953125 m 0
 264.859375 507.044921875 285.00390625 527.189453125 309.853515625 527.189453125 c 0
 334.703125 527.189453125 354.848632812 507.044921875 354.848632812 482.1953125 c 0
 354.848632812 457.345703125 334.703125 437.200195312 309.853515625 437.200195312 c 0
 285.00390625 437.200195312 264.859375 457.345703125 264.859375 482.1953125 c 0
EndSplineSet
Validated: 41
EndChar

StartChar: Theta
Encoding: 920 920 36
Width: 775
Flags: HW
LayerCount: 2
Fore
SplineSet
386 770 m 1
 386 770 l 1
 607 770 785 582 760 352 c 0
 743 196 627 63 476 28 c 0
 433 18 337 17 298 27 c 1
 298 27 l 1
 188 55 100 126 51 225 c 0
 -15 358 -1 507 89 626 c 0
 137 690 225 745 303 761 c 0
 331 767 359 770 386 770 c 1
386 681 m 1
 386 681 l 1
 311 681 236 652 180 594 c 0
 34 444 93 194 291 123 c 0
 307 117 325 113 332 113 c 0
 344 113 345 114 343 149 c 1
 343 149 l 1
 342 185 l 1
 312 196 l 2
 252 218 207 264 186 322 c 2
 176 351 l 1
 148 352 l 2
 122 354 120 355 114 374 c 0
 109 389 109 398 114 414 c 0
 120 434 121 435 148 437 c 0
 176 439 176 439 184 463 c 0
 201 513 252 569 299 590 c 0
 331 604 400 609 440 600 c 0
 503 586 561 532 586 466 c 2
 598 434 l 1
 619 437 l 2
 631 439 643 438 648 434 c 0
 660 425 665 390 657 370 c 0
 651 356 647 353 625 352 c 0
 609 351 598 347 596 342 c 0
 569 283 527 211 442 187 c 0
 434 185 432 177 432 147 c 2
 432 111 l 1
 455 115 l 2
 514 124 595 184 631 243 c 0
 702 360 682 511 583 603 c 0
 527 655 456 681 386 681 c 1
261 390 m 0
 261 459 317 515 386 515 c 0
 455 515 511 459 511 390 c 0
 511 321 455 265 386 265 c 0
 317 265 261 321 261 390 c 0
261 390 m 0
 261 321 317 265 386 265 c 0
 455 265 511 321 511 390 c 0
 511 459 455 515 386 515 c 0
 317 515 261 459 261 390 c 0
261 390 m 0
 261 321 317 265 386 265 c 0
 455 265 511 321 511 390 c 0
 511 459 455 515 386 515 c 0
 317 515 261 459 261 390 c 0
341 390 m 0
 341 415 361 435 386 435 c 0
 411 435 431 415 431 390 c 0
 431 365 411 345 386 345 c 0
 361 345 341 365 341 390 c 0
341 390 m 0
 341 365 361 345 386 345 c 0
 411 345 431 365 431 390 c 0
 431 415 411 435 386 435 c 0
 361 435 341 415 341 390 c 0
341 390 m 0
 341 415 361 435 386 435 c 0
 411 435 431 415 431 390 c 0
 431 365 411 345 386 345 c 0
 361 345 341 365 341 390 c 0
EndSplineSet
Validated: 37
EndChar

StartChar: Lambda
Encoding: 923 923 39
Width: 650
Flags: HW
LayerCount: 2
Fore
SplineSet
274 763 m 0
 310 763 343 754 362 743 c 0
 408 721 443 686 465 640 c 0
 488 591 490 525 467 466 c 0
 459 449 441 424 428 409 c 2
 404 382 l 1
 438 358 l 2
 478 329 495 309 515 271 c 0
 527 248 530 235 532 192 c 0
 534 140 534 140 552 126 c 0
 562 118 582 106 597 99 c 0
 634 82 641 76 641 55 c 0
 641 33 620 10 600 10 c 0
 583 10 550 27 515 52 c 2
 490 70 l 1
 445 48 l 2
 420 35 384 23 360 18 c 0
 312 8 232 8 186 17 c 0
 109 32 49 67 24 110 c 0
 12 130 10 141 10 168 c 0
 10 251 51 320 135 377 c 2
 148 386 l 1
 137 394 l 2
 117 409 88 453 76 487 c 0
 41 590 90 700 191 747 c 0
 216 758 246 763 274 763 c 0
274 678 m 0
 205 678 149 622 149 553 c 0
 149 484 205 428 274 428 c 0
 343 428 399 484 399 553 c 0
 399 622 343 678 274 678 c 0
275 324 m 0
 240 324 230 322 199 307 c 0
 94 255 64 156 141 116 c 0
 185 93 269 85 339 96 c 0
 433 111 470 158 439 222 c 0
 422 256 393 283 347 307 c 0
 319 321 310 324 275 324 c 0
229 553 m 0
 229 578 249 598 274 598 c 0
 299 598 319 578 319 553 c 0
 319 528 299 508 274 508 c 0
 249 508 229 528 229 553 c 0
229 553 m 0
 229 528 249 508 274 508 c 0
 299 508 319 528 319 553 c 0
 319 578 299 598 274 598 c 0
 249 598 229 578 229 553 c 0
229 553 m 0
 229 578 249 598 274 598 c 0
 299 598 319 578 319 553 c 0
 319 528 299 508 274 508 c 0
 249 508 229 528 229 553 c 0
EndSplineSet
Validated: 37
EndChar

StartChar: Xi
Encoding: 926 926 42
Width: 650
Flags: HW
LayerCount: 2
Fore
SplineSet
340 810 m 2
 340 810 l 2
 519 810 531 808 541 798 c 0
 548 791 552 781 552 767 c 0
 552 753 548 743 541 736 c 0
 531 726 524 725 445 725 c 2
 359 725 l 1
 359 656 l 1
 359 587 l 1
 386 577 l 2
 442 558 490 509 508 455 c 2
 517 428 l 1
 558 428 l 2
 608 428 619 420 619 384 c 0
 619 353 611 348 560 345 c 2
 518 342 l 1
 508 315 l 2
 485 257 441 214 386 195 c 2
 359 186 l 1
 359 127 l 1
 359 68 l 1
 442 68 l 2
 518 68 525 68 538 58 c 0
 554 45 557 16 544 -3 c 2
 535 -15 l 1
 320 -15 l 2
 122 -15 104 -14 97 -6 c 0
 78 16 84 51 107 62 c 0
 115 66 151 68 198 68 c 2
 275 68 l 1
 275 128 l 1
 275 188 l 1
 256 193 l 2
 196 210 151 261 127 318 c 1
 118 345 l 1
 75 345 l 2
 34 345 30 345 20 358 c 0
 5 377 6 399 22 415 c 0
 33 426 40 428 77 428 c 2
 119 428 l 1
 135 484 184 554 250 578 c 2
 275 587 l 1
 275 656 l 1
 275 725 l 1
 193 725 l 2
 121 725 108 727 98 735 c 0
 82 748 82 784 97 799 c 0
 107 809 115 810 253 810 c 0
 286 810 314 810 340 810 c 2
320 512 m 0
 251 512 195 456 195 387 c 0
 195 318 251 262 320 262 c 0
 389 262 445 318 445 387 c 0
 445 456 389 512 320 512 c 0
275 387 m 0
 275 412 295 432 320 432 c 0
 345 432 365 412 365 387 c 0
 365 362 345 342 320 342 c 0
 295 342 275 362 275 387 c 0
275 387 m 0
 275 362 295 342 320 342 c 0
 345 342 365 362 365 387 c 0
 365 412 345 432 320 432 c 0
 295 432 275 412 275 387 c 0
275 387 m 0
 275 412 295 432 320 432 c 0
 345 432 365 412 365 387 c 0
 365 362 345 342 320 342 c 0
 295 342 275 362 275 387 c 0
EndSplineSet
Validated: 37
EndChar

StartChar: Pi
Encoding: 928 928 44
Width: 750
Flags: HW
LayerCount: 2
Fore
SplineSet
365 760 m 5
 365 760 l 5
 373 760 382 759 391 759 c 4
 490 754 556 726 630 652 c 4
 671 611 682 596 703 553 c 4
 742 473 754 389 736 304 c 4
 727 261 692 186 665 153 c 4
 628 108 543 55 481 39 c 4
 446 30 428 36 419 63 c 4
 409 95 418 107 466 126 c 4
 513 145 565 180 591 212 c 4
 677 317 668 483 569 582 c 4
 537 614 466 653 434 655 c 6
 415 657 l 5
 415 628 l 6
 415 596 414 598 462 577 c 4
 543 542 595 441 578 354 c 4
 552 220 421 147 292 195 c 4
 268 204 252 215 225 242 c 4
 171 297 144 398 184 479 c 4
 212 535 253 570 318 592 c 4
 326 595 327 601 327 627 c 4
 327 645 325 660 323 660 c 4
 308 660 251 635 222 616 c 4
 141 563 97 484 97 390 c 4
 97 278 154 186 254 136 c 4
 309 110 367 118 321 42 c 5
 305 26 261 43 239 47 c 5
 128 90 47 180 16 295 c 4
 -4 369 0 433 20 509 c 5
 51 601 119 678 207 721 c 4
 263 749 306 760 365 760 c 5
375 517 m 4
 306 517 250 461 250 392 c 4
 250 323 306 267 375 267 c 4
 444 267 500 323 500 392 c 4
 500 461 444 517 375 517 c 4
330 392 m 4
 330 417 350 437 375 437 c 4
 400 437 420 417 420 392 c 4
 420 367 400 347 375 347 c 4
 350 347 330 367 330 392 c 4
330 392 m 4
 330 367 350 347 375 347 c 4
 400 347 420 367 420 392 c 4
 420 417 400 437 375 437 c 4
 350 437 330 417 330 392 c 4
330 392 m 4
 330 417 350 437 375 437 c 4
 400 437 420 417 420 392 c 4
 420 367 400 347 375 347 c 4
 350 347 330 367 330 392 c 4
EndSplineSet
Validated: 37
EndChar

StartChar: Sigma
Encoding: 931 931 46
Width: 550
Flags: HW
LayerCount: 2
Fore
SplineSet
246 750 m 2
 246 750 l 1
 246 750 l 2
 292 750 339 740 379 721 c 2
 410 707 l 1
 426 726 l 2
 446 750 459 754 480 743 c 0
 499 733 507 720 507 701 c 0
 507 687 446 599 432 592 c 0
 417 585 393 597 386 615 c 0
 372 652 256 676 183 658 c 0
 169 655 156 649 155 645 c 0
 154 641 158 625 165 610 c 0
 175 586 178 583 188 587 c 0
 194 589 222 591 249 591 c 0
 309 591 345 575 388 535 c 0
 498 432 467 251 329 187 c 0
 291 170 233 169 185 176 c 0
 172 180 170 178 161 155 c 0
 150 126 152 124 193 115 c 0
 243 104 288 109 350 132 c 0
 373 140 382 146 384 156 c 0
 388 174 411 187 428 183 c 0
 446 178 507 91 507 70 c 0
 507 49 484 28 461 28 c 0
 447 28 440 32 427 48 c 2
 411 68 l 1
 379 54 l 2
 322 29 266 20 201 28 c 0
 159 33 96 50 65 66 c 0
 38 80 38 92 66 164 c 0
 78 195 88 222 88 225 c 0
 88 228 80 243 70 258 c 0
 26 327 15 443 82 520 c 0
 88 526 94 532 94 536 c 0
 94 540 83 571 69 606 c 0
 38 684 38 696 72 712 c 0
 108 729 177 745 227 749 c 0
 233 749 239 750 246 750 c 2
244 507 m 0
 175 507 119 451 119 382 c 0
 119 313 175 257 244 257 c 0
 313 257 369 313 369 382 c 0
 369 451 313 507 244 507 c 0
199 382 m 0
 199 407 219 427 244 427 c 0
 269 427 289 407 289 382 c 0
 289 357 269 337 244 337 c 0
 219 337 199 357 199 382 c 0
199 382 m 0
 199 357 219 337 244 337 c 0
 269 337 289 357 289 382 c 0
 289 407 269 427 244 427 c 0
 219 427 199 407 199 382 c 0
199 382 m 0
 199 407 219 427 244 427 c 0
 269 427 289 407 289 382 c 0
 289 357 269 337 244 337 c 0
 219 337 199 357 199 382 c 0
EndSplineSet
Validated: 37
EndChar

StartChar: Phi
Encoding: 934 934 49
Width: 775
Flags: HW
LayerCount: 2
Fore
SplineSet
384 860 m 1
 384 860 l 1
 422 860 428 851 428 794 c 2
 428 748 l 1
 468 739 l 2
 636 703 758 550 758 376 c 0
 758 268 725 188 650 112 c 0
 589 51 530 19 443 2 c 2
 428 -1 l 1
 428 -49 l 2
 428 -88 426 -99 418 -106 c 0
 404 -119 366 -118 352 -104 c 1
 352 -104 l 1
 343 -95 341 -86 341 -48 c 2
 341 -2 l 1
 301 7 l 2
 134 44 11 197 10 369 c 0
 9 472 42 557 110 631 c 0
 159 684 252 734 316 743 c 2
 341 747 l 1
 341 791 l 2
 341 849 348 860 384 860 c 1
341 653 m 1
 318 648 l 2
 276 639 219 606 186 573 c 0
 99 486 78 356 133 244 c 0
 151 208 200 155 232 136 c 0
 264 117 314 96 329 96 c 0
 340 96 341 99 341 132 c 0
 341 159 339 167 333 167 c 0
 316 167 267 194 240 218 c 0
 222 235 205 256 194 279 c 0
 168 332 168 401 194 465 c 1
 221 519 267 558 332 580 c 0
 340 583 341 590 341 618 c 2
 341 653 l 1
428 650 m 1
 428 617 l 2
 428 590 430 583 438 580 c 0
 501 559 554 514 578 461 c 0
 607 398 600 315 560 255 c 0
 538 221 488 182 453 172 c 2
 428 165 l 1
 428 130 l 1
 428 95 l 1
 448 99 l 2
 459 101 487 111 509 122 c 0
 626 179 690 315 658 440 c 0
 644 494 624 530 582 572 c 0
 540 614 491 641 450 647 c 2
 428 650 l 1
384 497 m 0
 315 497 259 441 259 372 c 0
 259 303 315 248 384 248 c 0
 453 248 509 303 509 372 c 0
 509 441 453 497 384 497 c 0
339 372 m 0
 339 397 359 417 384 417 c 0
 409 417 429 397 429 372 c 0
 429 347 409 328 384 328 c 0
 359 328 339 347 339 372 c 0
339 372 m 0
 339 347 359 328 384 328 c 0
 409 328 429 347 429 372 c 0
 429 397 409 418 384 418 c 0
 359 418 339 397 339 372 c 0
339 372 m 0
 339 397 359 417 384 417 c 0
 409 417 429 397 429 372 c 0
 429 347 409 328 384 328 c 0
 359 328 339 347 339 372 c 0
EndSplineSet
Validated: 37
EndChar

StartChar: Psi
Encoding: 936 936 51
Width: 725
Flags: HW
LayerCount: 2
Fore
SplineSet
356 860 m 2
 356 860 l 2
 370 860 383 856 393 849 c 2
 407 838 l 1
 407 718 l 2
 407 625 409 597 414 597 c 0
 430 597 488 565 508 544 c 0
 520 532 532 522 535 522 c 0
 546 522 585 569 598 597 c 0
 606 614 613 642 615 663 c 0
 620 711 628 722 662 723 c 0
 695 724 708 709 708 672 c 0
 708 589 664 501 598 454 c 2
 572 436 l 1
 571 392 l 2
 570 340 559 305 529 265 c 0
 507 235 464 204 430 193 c 2
 407 186 l 1
 407 105 l 2
 407 13 405 17 457 -6 c 0
 479 -16 490 -24 494 -35 c 0
 502 -56 495 -72 477 -82 c 0
 447 -98 412 -90 380 -60 c 2
 366 -47 l 1
 352 -61 l 2
 325 -88 284 -98 257 -84 c 1
 257 -84 l 1
 237 -74 228 -51 237 -33 c 0
 244 -18 251 -13 292 5 c 2
 313 14 l 1
 315 101 l 1
 316 187 l 1
 293 194 l 2
 242 208 187 263 165 318 c 0
 157 339 153 360 153 391 c 0
 153 434 152 435 136 443 c 0
 90 465 40 531 21 591 c 0
 15 612 10 640 10 664 c 0
 10 710 19 723 53 723 c 0
 84 723 96 709 102 663 c 0
 109 604 132 558 169 529 c 2
 188 515 l 1
 213 541 l 2
 228 557 253 574 277 585 c 2
 316 603 l 1
 316 723 l 2
 316 841 316 844 328 852 c 0
 335 857 345 860 356 860 c 2
364 521 m 0
 295 521 239 465 239 396 c 0
 239 327 295 271 364 271 c 0
 433 271 489 327 489 396 c 0
 489 465 433 521 364 521 c 0
319 396 m 0
 319 421 339 441 364 441 c 0
 389 441 409 421 409 396 c 0
 409 371 389 351 364 351 c 0
 339 351 319 371 319 396 c 0
319 396 m 0
 319 371 339 351 364 351 c 0
 389 351 409 371 409 396 c 0
 409 421 389 441 364 441 c 0
 339 441 319 421 319 396 c 0
319 396 m 0
 319 421 339 441 364 441 c 0
 389 441 409 421 409 396 c 0
 409 371 389 351 364 351 c 0
 339 351 319 371 319 396 c 0
EndSplineSet
Validated: 37
EndChar

StartChar: uni03A9
Encoding: 937 937 52
Width: 850
Flags: HW
LayerCount: 2
Fore
SplineSet
275 626 m 0
 365 668 460 671 559 623 c 0
 667 571 754 469 776 368 c 0
 784 332 780 245 769 204 c 2
 761 176 l 1
 784 176 l 2
 814 176 827 160 822 126 c 0
 817 90 807 85 735 85 c 0
 677 85 672 86 660 98 c 0
 643 115 644 126 666 181 c 0
 702 271 703 339 669 410 c 0
 633 486 552 553 477 569 c 2
 460 573 l 1
 460 536 l 1
 460 500 l 1
 483 493 l 2
 514 485 560 452 584 420 c 0
 655 327 630 180 531 118 c 0
 489 92 454 83 403 86 c 0
 347 89 302 109 265 149 c 0
 187 232 187 355 265 439 c 0
 287 463 345 497 362 497 c 0
 367 497 369 507 369 535 c 2
 369 573 l 1
 351 570 l 2
 341 568 316 557 294 547 c 0
 246 524 185 467 164 425 c 0
 122 342 123 281 168 172 c 0
 200 95 190 86 82 89 c 2
 82 89 l 2
 19 91 10 97 10 136 c 0
 10 164 22 176 50 176 c 0
 67 176 69 177 66 185 c 0
 64 190 59 213 54 235 c 0
 22 387 116 552 275 626 c 0
292 293 m 0
 292 362 348 418 417 418 c 0
 486 418 542 362 542 293 c 0
 542 224 486 168 417 168 c 0
 348 168 292 224 292 293 c 0
292 293 m 0
 292 224 348 168 417 168 c 0
 486 168 542 224 542 293 c 0
 542 362 486 418 417 418 c 0
 348 418 292 362 292 293 c 0
292 293 m 0
 292 224 348 168 417 168 c 0
 486 168 542 224 542 293 c 0
 542 362 486 418 417 418 c 0
 348 418 292 362 292 293 c 0
372 293 m 0
 372 318 392 338 417 338 c 0
 442 338 462 318 462 293 c 0
 462 268 442 248 417 248 c 0
 392 248 372 268 372 293 c 0
372 293 m 0
 372 268 392 248 417 248 c 0
 442 248 462 268 462 293 c 0
 462 318 442 338 417 338 c 0
 392 338 372 318 372 293 c 0
372 293 m 0
 372 318 392 338 417 338 c 0
 442 338 462 318 462 293 c 0
 462 268 442 248 417 248 c 0
 392 248 372 268 372 293 c 0
EndSplineSet
Validated: 37
EndChar

StartChar: uni0411
Encoding: 1041 1041 54
Width: 500
Flags: HW
LayerCount: 2
Fore
SplineSet
254 750 m 0
 445 750 440 751 453 725 c 0
 467 699 458 661 432 633 c 0
 399 597 322 571 269 577 c 0
 239 580 192 595 162 611 c 0
 150 617 139 623 137 624 c 0
 135 625 134 585 134 536 c 0
 134 487 134 446 135 446 c 0
 136 446 148 452 162 459 c 0
 201 479 245 486 286 480 c 0
 473 453 535 213 384 102 c 0
 347 75 319 65 270 63 c 0
 224 61 202 65 167 83 c 2
 144 95 l 1
 109 60 l 2
 78 29 72 25 59 25 c 0
 51 25 39 29 32 33 c 0
 17 42 7 62 11 78 c 0
 13 84 29 104 47 123 c 2
 81 158 l 1
 68 184 l 2
 61 199 53 221 51 235 c 0
 45 267 44 712 50 727 c 0
 59 750 64 750 254 750 c 0
259 397 m 0
 190 397 134 341 134 272 c 0
 134 203 190 147 259 147 c 0
 328 147 384 203 384 272 c 0
 384 341 328 397 259 397 c 0
214 272 m 0
 214 297 234 317 259 317 c 0
 284 317 304 297 304 272 c 0
 304 247 284 227 259 227 c 0
 234 227 214 247 214 272 c 0
EndSplineSet
Validated: 33
EndChar

StartChar: uni0413
Encoding: 1043 1043 56
Width: 550
Flags: HW
LayerCount: 2
Fore
SplineSet
83 169 m 1
 138 107 l 1
 101 66 l 1
 58 25 42 21 16 47 c 0
 -9 72 -5 85 36 128 c 1
 83 169 l 1
289 452 m 1
 195 447 l 1
 204 450 199 482 199 597 c 0
 199 712 200 723 209 731 c 0
 218 739 237 740 369 740 c 0
 519 740 519 740 531 728 c 0
 539 719 543 709 543 691 c 0
 543 639 506 591 453 576 c 0
 399 560 333 573 304 605 c 0
 298 611 292 617 290 617 c 2
 289 452 l 1
243 463 m 0
 353 463 443 373 443 263 c 0
 443 153 353 63 243 63 c 0
 133 63 43 153 43 263 c 0
 43 373 133 463 243 463 c 0
243 388 m 0
 174 388 118 332 118 263 c 0
 118 194 174 138 243 138 c 0
 312 138 368 194 368 263 c 0
 368 332 312 388 243 388 c 0
198 263 m 0
 198 288 218 308 243 308 c 0
 268 308 288 288 288 263 c 0
 288 238 268 218 243 218 c 0
 218 218 198 238 198 263 c 0
198 263 m 0
 198 238 218 218 243 218 c 0
 268 218 288 238 288 263 c 0
 288 288 268 308 243 308 c 0
 218 308 198 288 198 263 c 0
198 263 m 0
 198 288 218 308 243 308 c 0
 268 308 288 288 288 263 c 0
 288 238 268 218 243 218 c 0
 218 218 198 238 198 263 c 0
EndSplineSet
Validated: 37
EndChar

StartChar: uni0414
Encoding: 1044 1044 57
Width: 525
Flags: HW
LayerCount: 2
Fore
SplineSet
266 700 m 0
 318 700 371 680 412 639 c 0
 427 624 444 603 450 592 c 0
 473 548 473 545 473 285 c 2
 473 46 l 1
 463 36 l 2
 450 24 419 21 403 30 c 0
 389 38 383 51 383 81 c 0
 383 94 383 106 382 106 c 0
 381 106 373 101 365 95 c 0
 318 63 224 69 183 105 c 0
 179 108 176 110 175 109 c 0
 174 108 167 95 160 80 c 0
 149 57 143 52 129 45 c 0
 89 26 -2 41 7 65 c 0
 8 69 20 78 34 86 c 0
 48 94 64 105 69 113 c 0
 90 143 110 223 119 301 c 2
 124 344 l 1
 107 366 l 2
 42 448 47 563 120 637 c 0
 161 679 214 700 266 700 c 0
266 620 m 0
 197 620 141 564 141 495 c 0
 141 426 197 370 266 370 c 0
 335 370 391 426 391 495 c 0
 391 564 335 620 266 620 c 0
381 321 m 2
 380 321 l 0
 330 296 295 287 252 290 c 0
 236 291 219 294 216 295 c 0
 211 297 209 290 203 252 c 0
 199 223 198 204 200 198 c 0
 205 186 224 172 244 167 c 0
 266 161 326 165 346 173 c 0
 355 177 367 185 373 192 c 0
 383 204 383 206 383 263 c 0
 383 294 383 320 381 321 c 2
 381 321 l 2
221 495 m 0
 221 520 241 540 266 540 c 0
 291 540 311 520 311 495 c 0
 311 470 291 450 266 450 c 0
 241 450 221 470 221 495 c 0
221 495 m 0
 221 470 241 450 266 450 c 0
 291 450 311 470 311 495 c 0
 311 520 291 540 266 540 c 0
 241 540 221 520 221 495 c 0
221 495 m 0
 221 520 241 540 266 540 c 0
 291 540 311 520 311 495 c 0
 311 470 291 450 266 450 c 0
 241 450 221 470 221 495 c 0
EndSplineSet
Validated: 37
EndChar

StartChar: uni0416
Encoding: 1046 1046 59
Width: 750
Flags: HW
LayerCount: 2
Fore
SplineSet
371 860 m 0
 385 860 399 856 407 846 c 0
 416 835 417 834 417 718 c 2
 417 601 l 1
 443 592 l 2
 476 580 496 567 521 542 c 2
 542 521 l 1
 564 539 l 2
 600 567 624 611 624 650 c 0
 624 703 653 731 691 715 c 0
 714 705 720 688 717 647 c 0
 711 569 672 503 603 456 c 2
 581 441 l 1
 580 397 l 1
 580 354 l 1
 604 338 l 2
 674 291 718 210 718 130 c 0
 718 92 704 75 669 75 c 0
 641 75 624 101 624 142 c 0
 624 185 593 238 555 262 c 2
 542 270 l 1
 517 246 l 2
 493 223 454 200 428 194 c 2
 417 191 l 1
 417 73 l 1
 417 -45 l 1
 406 -55 l 2
 397 -63 391 -65 373 -65 c 0
 354 -65 348 -63 338 -53 c 2
 326 -41 l 1
 326 75 l 1
 326 191 l 1
 310 196 l 2
 280 206 256 220 229 245 c 2
 202 271 l 1
 185 259 l 2
 146 232 126 195 120 143 c 0
 114 91 103 75 70 75 c 0
 45 75 28 93 25 120 c 0
 22 148 34 204 49 235 c 0
 69 277 117 328 158 351 c 0
 162 353 164 365 165 396 c 2
 167 438 l 1
 143 454 l 2
 73 502 33 568 26 649 c 0
 23 688 29 705 52 715 c 0
 84 728 113 709 117 672 c 0
 126 597 140 568 187 534 c 2
 203 522 l 1
 229 546 l 2
 254 570 279 586 310 596 c 2
 326 601 l 1
 326 714 l 2
 326 776 328 831 330 837 c 0
 335 851 353 860 371 860 c 0
372 522 m 0
 303 522 247 467 247 398 c 0
 247 329 303 273 372 273 c 0
 441 273 497 329 497 398 c 0
 497 467 441 522 372 522 c 0
327 398 m 0
 327 423 347 442 372 442 c 0
 397 442 417 423 417 398 c 0
 417 373 397 353 372 353 c 0
 347 353 327 373 327 398 c 0
327 398 m 0
 327 373 347 353 372 353 c 0
 397 353 417 373 417 398 c 0
 417 423 397 442 372 442 c 0
 347 442 327 423 327 398 c 0
327 398 m 0
 327 423 347 442 372 442 c 0
 397 442 417 423 417 398 c 0
 417 373 397 353 372 353 c 0
 347 353 327 373 327 398 c 0
EndSplineSet
Validated: 37
EndChar

StartChar: uni0417
Encoding: 1047 1047 60
Width: 450
Flags: HW
LayerCount: 2
Fore
SplineSet
160 740 m 0
 198 740 237 736 265 727 c 0
 321 709 354 682 377 635 c 0
 391 605 401 553 397 522 c 0
 395 501 396 495 409 468 c 0
 440 404 440 339 409 279 c 0
 399 260 398 253 397 217 c 0
 396 114 346 49 250 24 c 0
 209 14 124 12 86 21 c 0
 40 32 17 49 11 74 c 0
 5 100 27 128 53 128 c 0
 67 128 104 118 115 111 c 0
 124 105 172 103 196 107 c 0
 231 114 271 134 283 152 c 0
 297 172 296 178 282 173 c 0
 276 171 258 168 242 167 c 0
 141 159 50 224 24 324 c 0
 -3 430 62 542 170 574 c 0
 198 582 252 583 278 575 c 0
 295 570 297 570 297 576 c 0
 297 600 258 636 222 647 c 0
 194 655 135 653 106 642 c 0
 57 624 54 623 38 631 c 0
 -6 652 6 708 58 726 c 0
 84 735 122 740 160 740 c 0
221 502 m 0
 152 502 96 447 96 378 c 0
 96 309 152 253 221 253 c 0
 290 253 346 309 346 378 c 0
 346 447 290 502 221 502 c 0
176 378 m 0
 176 403 196 422 221 422 c 0
 246 422 266 403 266 378 c 0
 266 353 246 333 221 333 c 0
 196 333 176 353 176 378 c 0
176 378 m 0
 176 353 196 332 221 332 c 0
 246 332 266 353 266 378 c 0
 266 403 246 422 221 422 c 0
 196 422 176 403 176 378 c 0
176 378 m 0
 176 403 196 422 221 422 c 0
 246 422 266 403 266 378 c 0
 266 353 246 333 221 333 c 0
 196 333 176 353 176 378 c 0
EndSplineSet
Validated: 37
EndChar

StartChar: uni0418
Encoding: 1048 1048 61
Width: 750
Flags: HW
LayerCount: 2
Fore
SplineSet
50 700 m 0
 58 700 66 699 73 695 c 0
 100 681 99 692 120 441 c 0
 131 314 140 208 140 205 c 0
 140 202 151 211 166 225 c 2
 192 250 l 1
 181 274 l 2
 143 355 160 444 225 509 c 0
 269 553 311 569 372 569 c 0
 409 569 449 559 473 544 c 2
 485 537 l 1
 551 599 l 2
 587 633 620 663 626 665 c 0
 632 667 642 667 650 666 c 0
 679 661 676 675 705 356 c 0
 719 196 731 62 731 57 c 0
 731 34 697 18 669 28 c 0
 639 39 641 31 619 285 c 0
 608 411 599 517 598 519 c 0
 597 521 586 512 572 498 c 2
 548 473 l 1
 557 454 l 2
 572 424 578 396 578 362 c 0
 578 252 498 165 386 153 c 0
 354 150 309 159 276 176 c 2
 251 188 l 1
 186 124 l 2
 148 87 116 60 110 58 c 0
 96 55 82 57 70 67 c 0
 60 75 64 43 29 435 c 0
 18 563 9 672 10 676 c 0
 15 691 32 700 50 700 c 0
370 487 m 0
 301 487 245 431 245 362 c 0
 245 293 301 238 370 238 c 0
 439 238 495 293 495 362 c 0
 495 431 439 487 370 487 c 0
325 362 m 0
 325 387 345 407 370 407 c 0
 395 407 415 387 415 362 c 0
 415 337 395 318 370 318 c 0
 345 318 325 337 325 362 c 0
325 362 m 0
 325 337 345 318 370 318 c 0
 395 318 415 337 415 362 c 0
 415 387 395 408 370 408 c 0
 345 408 325 387 325 362 c 0
325 362 m 0
 325 387 345 407 370 407 c 0
 395 407 415 387 415 362 c 0
 415 337 395 318 370 318 c 0
 345 318 325 337 325 362 c 0
EndSplineSet
Validated: 37
EndChar

StartChar: uni0419
Encoding: 1049 1049 62
Width: 750
Flags: HW
LayerCount: 2
Fore
SplineSet
516 730 m 0
 522 730 525 727 532 724 c 0
 562 709 570 677 549 657 c 0
 530 639 475 616 430 609 c 0
 415 607 414 606 414 589 c 0
 414 572 415 571 432 566 c 0
 442 563 458 557 468 551 c 2
 486 541 l 1
 507 561 l 2
 518 572 547 599 571 622 c 0
 615 665 631 675 647 671 c 0
 663 667 673 660 676 653 c 0
 679 646 700 429 707 335 c 0
 709 309 715 236 721 174 c 0
 727 102 730 59 728 53 c 0
 720 31 690 24 663 37 c 0
 656 41 646 48 643 54 c 0
 640 60 634 108 629 172 c 0
 624 231 618 297 616 319 c 0
 611 364 600 511 600 523 c 0
 600 529 594 525 574 505 c 2
 547 478 l 1
 557 459 l 2
 598 379 581 281 516 217 c 0
 452 155 359 140 279 179 c 2
 253 192 l 1
 188 129 l 2
 135 79 119 66 107 64 c 0
 88 61 69 69 64 83 c 0
 60 93 10 637 10 668 c 0
 10 675 14 686 19 692 c 0
 27 701 33 703 48 703 c 0
 70 703 90 694 97 681 c 0
 100 676 110 569 121 442 c 0
 132 315 142 210 143 209 c 0
 144 208 156 219 169 232 c 2
 193 256 l 1
 182 280 l 2
 168 310 163 335 163 365 c 0
 163 453 218 533 300 563 c 0
 324 572 324 571 324 588 c 2
 324 605 l 1
 286 614 l 2
 242 625 200 645 188 660 c 0
 178 673 176 700 185 713 c 0
 188 718 200 724 209 727 c 0
 224 731 230 730 264 717 c 0
 336 689 386 688 451 711 c 0
 491 725 506 730 516 730 c 0
369 494 m 0
 300 494 244 438 244 369 c 0
 244 300 300 244 369 244 c 0
 438 244 494 300 494 369 c 0
 494 438 438 494 369 494 c 0
324 369 m 0
 324 394 344 414 369 414 c 0
 394 414 414 394 414 369 c 0
 414 344 394 324 369 324 c 0
 344 324 324 344 324 369 c 0
324 369 m 0
 324 344 344 324 369 324 c 0
 394 324 414 344 414 369 c 0
 414 394 394 414 369 414 c 0
 344 414 324 394 324 369 c 0
324 369 m 0
 324 394 344 414 369 414 c 0
 394 414 414 394 414 369 c 0
 414 344 394 324 369 324 c 0
 344 324 324 344 324 369 c 0
EndSplineSet
Validated: 37
EndChar

StartChar: uni041A
Encoding: 1050 1050 63
Width: 650
Flags: HW
LayerCount: 2
Fore
SplineSet
206 750 m 0
 218 750 229 747 237 741 c 2
 248 733 l 1
 248 666 l 1
 248 600 l 1
 271 592 l 2
 284 588 304 578 317 570 c 0
 341 555 376 518 384 502 c 0
 390 489 392 491 404 511 c 0
 419 536 463 575 491 589 c 0
 561 623 660 579 626 529 c 0
 613 510 600 507 569 512 c 0
 536 517 516 511 489 486 c 0
 471 469 439 420 439 406 c 0
 439 403 445 396 452 389 c 0
 459 382 486 353 513 325 c 0
 557 278 562 271 562 258 c 0
 562 236 540 216 516 216 c 0
 499 216 497 218 450 265 c 0
 423 292 400 314 399 314 c 0
 398 314 390 302 381 289 c 0
 353 246 310 212 265 199 c 2
 248 194 l 1
 248 130 l 2
 248 71 247 66 240 59 c 0
 230 50 197 47 184 53 c 0
 169 61 167 75 167 136 c 2
 167 194 l 1
 143 201 l 2
 52 229 -7 321 1 420 c 0
 3 443 11 468 24 490 c 0
 46 537 96 579 149 595 c 2
 167 600 l 1
 167 665 l 2
 167 728 167 730 177 740 c 0
 184 747 194 750 206 750 c 0
205 525 m 0
 136 525 80 469 80 400 c 0
 80 331 136 275 205 275 c 0
 274 275 330 331 330 400 c 0
 330 469 274 525 205 525 c 0
160 400 m 0
 160 425 180 445 205 445 c 0
 230 445 250 425 250 400 c 0
 250 375 230 355 205 355 c 0
 180 355 160 375 160 400 c 0
160 400 m 0
 160 375 180 355 205 355 c 0
 230 355 250 375 250 400 c 0
 250 425 230 445 205 445 c 0
 180 445 160 425 160 400 c 0
160 400 m 0
 160 425 180 445 205 445 c 0
 230 445 250 425 250 400 c 0
 250 375 230 355 205 355 c 0
 180 355 160 375 160 400 c 0
EndSplineSet
Validated: 37
EndChar

StartChar: uni041B
Encoding: 1051 1051 64
Width: 550
Flags: HW
LayerCount: 2
Fore
SplineSet
278 740 m 0
 282 740 288 740 293 740 c 0
 388 738 462 684 492 596 c 0
 501 569 501 564 502 329 c 2
 504 90 l 1
 493 78 l 2
 484 68 481 66 460 66 c 0
 439 66 436 67 427 77 c 2
 417 89 l 1
 417 225 l 2
 417 300 416 360 415 360 c 0
 414 360 402 355 388 348 c 0
 359 333 311 322 284 324 c 2
 265 325 l 1
 263 245 l 2
 261 150 257 135 227 105 c 0
 197 76 175 66 126 65 c 0
 99 64 79 66 68 70 c 0
 33 81 12 105 12 133 c 0
 12 141 16 150 20 155 c 0
 33 170 43 171 71 163 c 0
 125 147 141 148 161 167 c 2
 173 178 l 1
 173 270 l 1
 173 361 l 1
 149 383 l 2
 101 428 79 492 88 564 c 0
 96 628 139 689 199 719 c 0
 233 736 247 740 278 740 c 0
294 656 m 0
 225 656 169 600 169 531 c 0
 169 462 225 406 294 406 c 0
 363 406 419 462 419 531 c 0
 419 600 363 656 294 656 c 0
249 531 m 0
 249 556 269 576 294 576 c 0
 319 576 339 556 339 531 c 0
 339 506 319 486 294 486 c 0
 269 486 249 506 249 531 c 0
249 531 m 0
 249 506 269 486 294 486 c 0
 319 486 339 506 339 531 c 0
 339 556 319 576 294 576 c 0
 269 576 249 556 249 531 c 0
249 531 m 0
 249 556 269 576 294 576 c 0
 319 576 339 556 339 531 c 0
 339 506 319 486 294 486 c 0
 269 486 249 506 249 531 c 0
EndSplineSet
Validated: 37
EndChar

StartChar: uni0423
Encoding: 1059 1059 72
Width: 525
Flags: HW
LayerCount: 2
Fore
SplineSet
60 649 m 0
 70 649 80 642 109 614 c 2
 145 578 l 1
 164 589 l 2
 212 614 273 618 328 600 c 0
 346 594 364 586 369 583 c 0
 377 577 379 579 412 612 c 0
 446 646 449 647 467 647 c 0
 484 647 487 645 500 631 c 0
 524 605 522 595 477 552 c 2
 439 516 l 1
 447 501 l 2
 471 457 480 391 466 345 c 0
 455 309 417 236 385 193 c 0
 319 103 193 -11 85 32 c 1
 40 62 62 118 118 114 c 0
 160 111 232 150 246 187 c 0
 247 189 218 189 207 192 c 0
 127 212 62 286 50 369 c 0
 44 414 54 468 75 504 c 2
 83 517 l 1
 49 550 l 2
 30 568 14 588 12 593 c 0
 3 615 32 649 60 649 c 0
263 520 m 0
 194 520 138 464 138 395 c 0
 138 326 194 270 263 270 c 0
 332 270 388 326 388 395 c 0
 388 464 332 520 263 520 c 0
218 395 m 0
 218 420 238 440 263 440 c 0
 288 440 308 420 308 395 c 0
 308 370 288 350 263 350 c 0
 238 350 218 370 218 395 c 0
218 395 m 0
 218 370 238 350 263 350 c 0
 288 350 308 370 308 395 c 0
 308 420 288 440 263 440 c 0
 238 440 218 420 218 395 c 0
218 395 m 0
 218 420 238 440 263 440 c 0
 288 440 308 420 308 395 c 0
 308 370 288 350 263 350 c 0
 238 350 218 370 218 395 c 0
EndSplineSet
Validated: 37
EndChar

StartChar: uni0426
Encoding: 1062 1062 75
Width: 775
Flags: HW
LayerCount: 2
Fore
SplineSet
300 750 m 1
 300 750 l 1
 323 750 334 737 334 710 c 0
 334 692 333 687 322 678 c 0
 315 672 306 667 303 667 c 0
 300 667 281 659 260 648 c 0
 206 621 158 573 133 523 c 0
 95 445 93 355 129 282 c 0
 163 213 236 153 309 134 c 2
 330 128 l 1
 330 160 l 1
 330 192 l 1
 306 201 l 2
 164 253 123 434 229 542 c 0
 274 588 331 609 397 604 c 0
 428 602 438 599 467 584 c 0
 574 530 615 410 563 302 c 0
 542 258 490 214 443 199 c 2
 421 192 l 1
 421 159 l 1
 421 127 l 1
 434 130 l 2
 515 147 588 202 622 272 c 0
 645 320 653 352 653 404 c 0
 653 453 646 486 627 523 c 0
 596 584 534 637 466 659 c 0
 424 673 412 693 425 729 c 0
 433 753 456 756 502 740 c 0
 595 708 670 644 709 562 c 0
 738 502 744 475 744 401 c 0
 744 354 743 333 737 311 c 0
 728 278 695 207 677 183 c 2
 665 167 l 1
 696 133 l 2
 727 98 732 85 722 66 c 0
 716 54 691 41 676 41 c 0
 664 41 658 45 633 72 c 2
 604 103 l 1
 569 81 l 2
 527 55 471 35 421 29 c 0
 382 24 365 24 326 29 c 0
 211 44 101 123 48 227 c 0
 17 288 4 356 12 424 c 0
 28 562 95 663 209 720 c 0
 249 740 279 750 300 750 c 1
377 522 m 0
 308 522 252 466 252 397 c 0
 252 328 308 272 377 272 c 0
 446 272 502 328 502 397 c 0
 502 466 446 522 377 522 c 0
332 397 m 0
 332 422 352 442 377 442 c 0
 402 442 422 422 422 397 c 0
 422 372 402 352 377 352 c 0
 352 352 332 372 332 397 c 0
332 397 m 0
 332 372 352 352 377 352 c 0
 402 352 422 372 422 397 c 0
 422 422 402 442 377 442 c 0
 352 442 332 422 332 397 c 0
332 397 m 0
 332 422 352 442 377 442 c 0
 402 442 422 422 422 397 c 0
 422 372 402 352 377 352 c 0
 352 352 332 372 332 397 c 0
EndSplineSet
Validated: 37
EndChar

StartChar: uni0427
Encoding: 1063 1063 76
Width: 550
Flags: HW
LayerCount: 2
Fore
SplineSet
448 830 m 0
 476 830 489 822 495 801 c 0
 498 790 499 654 498 376 c 2
 497 5 l 1
 486 -7 l 2
 474 -19 445 -24 429 -17 c 0
 407 -8 406 -5 406 146 c 0
 406 223 405 260 404 260 c 0
 403 260 397 256 389 251 c 0
 348 226 272 218 220 234 c 0
 147 257 92 319 76 396 c 0
 68 433 71 469 85 509 c 2
 95 539 l 1
 70 565 l 2
 31 606 22 652 20 730 c 0
 18 800 24 833 80 824 c 0
 89 823 97 821 102 815 c 0
 109 807 110 802 110 739 c 0
 107 702 106 675 126 645 c 0
 153 606 151 606 188 625 c 0
 249 655 313 657 372 629 c 0
 387 622 399 617 400 617 c 0
 401 617 402 656 402 705 c 2
 402 804 l 1
 414 817 l 2
 424 829 428 830 448 830 c 0
286 562 m 0
 217 562 161 506 161 437 c 0
 161 368 217 312 286 312 c 0
 355 312 411 368 411 437 c 0
 411 506 355 562 286 562 c 0
241 437 m 0
 241 462 261 482 286 482 c 0
 311 482 331 462 331 437 c 0
 331 412 311 392 286 392 c 0
 261 392 241 412 241 437 c 0
241 437 m 0
 241 412 261 392 286 392 c 0
 311 392 331 412 331 437 c 0
 331 462 311 482 286 482 c 0
 261 482 241 462 241 437 c 0
241 437 m 0
 241 462 261 482 286 482 c 0
 311 482 331 462 331 437 c 0
 331 412 311 392 286 392 c 0
 261 392 241 412 241 437 c 0
EndSplineSet
Validated: 37
EndChar

StartChar: uni0428
Encoding: 1064 1064 77
Width: 775
Flags: HW
LayerCount: 2
Fore
SplineSet
419 705 m 4
 419 723 433 745 446 748 c 4
 461 752 484 747 518 733 c 4
 570 712 604 689 646 647 c 4
 681 612 689 602 707 564 c 4
 738 500 742 476 742 397 c 4
 742 336 742 328 731 296 c 4
 708 227 677 178 627 129 c 4
 570 73 498 39 419 29 c 4
 380 24 367 24 330 29 c 5
 330 29 l 5
 208 45 100 120 46 227 c 4
 38 242 27 271 21 291 c 4
 12 322 10 335 10 383 c 4
 10 446 17 486 36 535 c 4
 68 616 129 681 211 722 c 4
 250 741 279 750 299 750 c 4
 322 750 333 737 333 711 c 5
 324.612304688 661.440429688 293.696289062 666.544921875 258 648 c 4
 205 621 156 574 131 523 c 4
 93 445 91 355 127 282 c 4
 160 214 234 152 306 134 c 6
 326 129 l 5
 328 160 l 6
 329 177 328 191 326 193 c 4
 324 195 315 198 306 201 c 4
 267 212 215 256 192 299 c 4
 170 339 162 399 172 444 c 4
 187 509 239 568 302 591 c 4
 313 595 323 600 325 601 c 4
 327 602 328 626 329 649 c 4
 332.909179688 741.008789062 423.283203125 729.751953125 420 647 c 5
 421 601 l 5
 442 594 l 6
 551 557 610 436 572 327 c 4
 551 267 502 219 441 199 c 6
 419 192 l 5
 419 159 l 5
 419 127 l 5
 433 130 l 6
 440 132 458 137 472 142 c 4
 532 164 590 213 618 266 c 4
 649 324 660 406 646 465 c 4
 626 550 557.978515625 623.944335938 467 659 c 4
 433.377929688 671.024414062 422.965820312 673.271484375 419 705 c 4
376 523 m 4
 307 523 251 467 251 398 c 4
 251 329 307 273 376 273 c 4
 445 273 501 329 501 398 c 4
 501 467 445 523 376 523 c 4
331 398 m 4
 331 423 351 443 376 443 c 4
 401 443 421 423 421 398 c 4
 421 373 401 353 376 353 c 4
 351 353 331 373 331 398 c 4
331 398 m 4
 331 423 351 443 376 443 c 4
 401 443 421 423 421 398 c 4
 421 373 401 353 376 353 c 4
 351 353 331 373 331 398 c 4
331 398 m 4
 331 373 351 353 376 353 c 4
 401 353 421 373 421 398 c 4
 421 423 401 443 376 443 c 4
 351 443 331 423 331 398 c 4
EndSplineSet
Validated: 37
EndChar

StartChar: uni0429
Encoding: 1065 1065 78
Width: 775
Flags: HW
LayerCount: 2
Fore
SplineSet
421 704 m 0
 421 720 430 740 441 746 c 0
 455 753 476 750 512 736 c 0
 568 714 604 691 648 647 c 0
 683 612 690 602 709 564 c 0
 739 502 745 473 745 395 c 0
 745 337 744 328 733 296 c 0
 720 255 703 220 681 188 c 2
 666 165 l 1
 696 131 l 2
 727 96 733 83 723 64 c 0
 717 52 692 39 677 39 c 0
 665 39 658 44 633 71 c 2
 604 102 l 1
 585 89 l 2
 556 69 501 45 466 36 c 0
 429 26 363 22 327 27 c 0
 227 41 128 103 70 187 c 0
 52 214 27 268 18 302 c 0
 7 344 8 429 20 478 c 0
 37 547 64 599 109 646 c 0
 162 702 250 750 299 750 c 0
 322 750 334 736 334 710 c 0
 330.618164062 679.327148438 313.44921875 671.099609375 287 661 c 0
 196 625 128 547 109 457 c 0
 100 412 102 348 116 309 c 0
 144 229 216 161 301 134 c 0
 313 130 325 126 327 126 c 0
 329 126 330 141 330 159 c 2
 330 192 l 1
 315 197 l 2
 249 218 196 273 176 341 c 0
 169 366 167 416 173 444 c 0
 188 510 248 576 307 593 c 0
 318 596 327 601 328 603 c 0
 329 605 331.840820312 619.993164062 331 642 c 0
 328.549804688 706.100585938 378.381835938 734.588867188 411 694 c 0
 421.827148438 680.52734375 421.383789062 659.180664062 422 637 c 2
 423 601 l 1
 444 594 l 2
 540 562 601 460 583 362 c 0
 569 284 512 218 439 196 c 2
 421 191 l 1
 421 158 l 1
 421 126 l 1
 434 128 l 2
 441 130 456 134 466 137 c 0
 546 163 616 233 640 311 c 0
 687 461 618 600 467 660 c 0
 435.52734375 671.096679688 425.067382812 674.170898438 421 704 c 0
377 522 m 0
 308 522 253 466 253 397 c 0
 253 328 308 272 377 272 c 0
 446 272 502 328 502 397 c 0
 502 466 446 522 377 522 c 0
333 397 m 0
 333 422 352 442 377 442 c 0
 402 442 422 422 422 397 c 0
 422 372 402 352 377 352 c 0
 352 352 333 372 333 397 c 0
332 397 m 0
 332 422 352 442 377 442 c 0
 402 442 422 422 422 397 c 0
 422 372 402 352 377 352 c 0
 352 352 332 372 332 397 c 0
332 397 m 0
 332 372 352 352 377 352 c 0
 402 352 422 372 422 397 c 0
 422 422 402 442 377 442 c 0
 352 442 332 422 332 397 c 0
EndSplineSet
Validated: 37
EndChar

StartChar: uni042C
Encoding: 1068 1068 79
Width: 500
Flags: HW
LayerCount: 2
Fore
SplineSet
97 770 m 4
 110 770 123 765 130 756 c 4
 138 746 138 740 138 607 c 4
 138 531 140 468 141 468 c 4
 142 468 153 473 165 479 c 4
 200 496 235 503 273 500 c 4
 454 487 536 271 408 145 c 4
 393 130 372 113 360 107 c 4
 301 76 223 75 164 105 c 6
 145 115 l 5
 109 81 l 6
 69 42 57 38 33 54 c 4
 18 64 10 77 10 93 c 4
 10 102 17 112 46 141 c 6
 82 178 l 5
 71 202 l 6
 65 215 58 235 56 245 c 4
 53 257 51 353 51 504 c 4
 51 770 50 758 79 767 c 4
 85 769 91 770 97 770 c 4
259 418 m 4
 190 418 134 362 134 293 c 4
 134 224 190 168 259 168 c 4
 328 168 384 224 384 293 c 4
 384 362 328 418 259 418 c 4
214 293 m 4
 214 318 234 338 259 338 c 4
 284 338 304 318 304 293 c 4
 304 268 284 248 259 248 c 4
 234 248 214 268 214 293 c 4
214 293 m 4
 214 268 234 248 259 248 c 4
 284 248 304 268 304 293 c 4
 304 318 284 338 259 338 c 4
 234 338 214 318 214 293 c 4
214 293 m 4
 214 318 234 338 259 338 c 4
 284 338 304 318 304 293 c 4
 304 268 284 248 259 248 c 4
 234 248 214 268 214 293 c 4
EndSplineSet
Validated: 37
EndChar

StartChar: uni042E
Encoding: 1070 1070 80
Width: 1025
Flags: HW
LayerCount: 2
Fore
SplineSet
617 770 m 0
 671 770 688 768 715 761 c 0
 893 712 1013 533 991 354 c 0
 970 187 846 55 682 26 c 0
 648 20 595 18 570 22 c 0
 514 31 453 54 412 81 c 0
 374 106 325 155 302 191 c 0
 270 241 259 270 244 340 c 2
 242 352 l 1
 185 352 l 1
 128 352 l 1
 128 209 l 1
 128 66 l 1
 117 59 l 2
 110 55 98 51 84 51 c 0
 66 51 60 53 51 61 c 2
 40 71 l 1
 40 386 l 1
 40 701 l 1
 50 713 l 2
 59 723 63 724 85 724 c 0
 104 724 113 722 120 716 c 0
 129 708 128 705 128 574 c 2
 128 440 l 1
 185 440 l 1
 242 440 l 1
 244 452 l 2
 276 611 367 714 514 759 c 0
 547 769 558 770 617 770 c 0
611 680 m 0
 593 680 575 678 556 674 c 0
 499 662 440 626 398 577 c 0
 376 551 346 489 339 457 c 0
 332 424 333 359 341 329 c 0
 353 280 379 235 416 198 c 0
 454 160 485 141 530 126 c 0
 576 111 574 111 574 152 c 2
 574 187 l 1
 552 194 l 2
 505 208 451 253 428 300 c 0
 411 333 406 360 406 399 c 0
 406 439 411 459 430 496 c 0
 484 599 611 638 717 584 c 0
 799 542 844 446 825 356 c 0
 809 279 758 219 686 195 c 2
 665 188 l 1
 664 152 l 1
 663 115 l 1
 676 118 l 2
 780 140 866 223 893 327 c 0
 904 367 903 430 891 472 c 0
 856 599 739 682 611 680 c 0
621 520 m 0
 552 520 496 464 496 395 c 0
 496 326 552 270 621 270 c 0
 690 270 746 326 746 395 c 0
 746 464 690 520 621 520 c 0
576 395 m 0
 576 420 596 440 621 440 c 0
 646 440 666 420 666 395 c 0
 666 370 646 350 621 350 c 0
 596 350 576 370 576 395 c 0
576 395 m 0
 576 370 596 350 621 350 c 0
 646 350 666 370 666 395 c 0
 666 420 646 440 621 440 c 0
 596 440 576 420 576 395 c 0
576 395 m 0
 576 420 596 440 621 440 c 0
 646 440 666 420 666 395 c 0
 666 370 646 350 621 350 c 0
 596 350 576 370 576 395 c 0
EndSplineSet
Validated: 37
EndChar

StartChar: uni042F
Encoding: 1071 1071 81
Width: 525
Flags: HW
LayerCount: 2
Fore
SplineSet
280 700 m 2
 308 700 318 699 334 695 c 0
 407 677 464 621 485 547 c 2
 490 529 l 1
 491 298 l 2
 492 121 491 64 489 56 c 0
 486 44 472 30 461 27 c 0
 435 19 410 33 403 57 c 0
 401 64 400 103 401 194 c 0
 401 264 402 322 402 322 c 0
 402 322 395 318 388 314 c 0
 357 294 323 285 280 285 c 0
 244 285 224 291 192 307 c 2
 170 318 l 1
 128 276 l 2
 105 253 84 233 82 232 c 0
 61 220 30 230 20 253 c 0
 9 277 15 290 67 341 c 2
 108 381 l 1
 97 402 l 2
 79 436 75 452 75 495 c 0
 75 537 77 549 93 582 c 0
 105 608 119 626 138 644 c 0
 157 662 169 670 192 681 c 0
 223 696 241 700 280 700 c 2
 280 700 l 2
279 617 m 0
 210 617 154 561 154 492 c 0
 154 423 210 367 279 367 c 0
 348 367 404 423 404 492 c 0
 404 561 348 617 279 617 c 0
324 492 m 0
 324 517 304 537 279 537 c 0
 254 537 234 517 234 492 c 0
 234 467 254 447 279 447 c 0
 304 447 324 467 324 492 c 0
324 492 m 0
 324 467 304 447 279 447 c 0
 254 447 234 467 234 492 c 0
 234 517 254 537 279 537 c 0
 304 537 324 517 324 492 c 0
324 492 m 0
 324 467 304 447 279 447 c 0
 254 447 234 467 234 492 c 0
 234 517 254 537 279 537 c 0
 304 537 324 517 324 492 c 0
EndSplineSet
Validated: 37
EndChar

StartChar: period
Encoding: 46 46 82
Width: 450
Flags: HW
LayerCount: 2
Fore
SplineSet
222 399 m 0
 332 399 422 309 422 199 c 0
 422 89 332 -1 222 -1 c 0
 112 -1 22 89 22 199 c 0
 22 309 112 399 222 399 c 0
347 199 m 1
 97 199 l 1
 97 130 153 74 222 74 c 0
 291 74 347 130 347 199 c 1
177 199 m 0
 177 224 197 244 222 244 c 0
 247 244 267 224 267 199 c 0
 267 174 247 154 222 154 c 0
 197 154 177 174 177 199 c 0
EndSplineSet
Validated: 5
EndChar

StartChar: a
Encoding: 97 97 83
Width: 500
Flags: HW
LayerCount: 2
Fore
SplineSet
248 800 m 0
 262 800 279 791 286 778 c 0
 290 771 296 750 303 719 c 0
 312 678 313 671 318 670 c 0
 321 669 333 663 346 657 c 0
 385 638 418 603 438 560 c 0
 450 534 455 513 457 483 c 0
 460 427 442 373 404 331 c 2
 391 317 l 1
 407 244 l 2
 438 110 451 47 449 36 c 0
 443 3 401 -10 375 13 c 0
 365 22 362 27 351 84 c 2
 343 127 l 1
 326 116 l 2
 277 82 207 84 166 120 c 0
 161 124 157 127 156 126 c 0
 155 125 151 103 146 78 c 0
 135 17 134 15 114 5 c 0
 101 -2 89 -1 74 6 c 0
 59 14 50 27 50 41 c 0
 50 47 57 83 66 122 c 0
 75 161 89 222 96 256 c 2
 108 318 l 1
 91 337 l 2
 72 357 53 392 46 420 c 0
 35 461 39 514 56 554 c 0
 74 597 112 637 153 657 c 0
 166 663 178 669 180 669 c 0
 185 669 186 672 197 723 c 0
 203 750 210 775 213 780 c 0
 219 790 236 800 248 800 c 0
249 599 m 0
 180 599 124 543 124 474 c 0
 124 405 180 349 249 349 c 0
 318 349 374 405 374 474 c 0
 374 543 318 599 249 599 c 0
248 303 m 0
 226 303 205 288 197 260 c 0
 189 231 201 198 227 185 c 0
 236 180 257 180 268 184 c 0
 294 194 309 230 300 262 c 0
 292 290 270 303 248 303 c 0
204 474 m 0
 204 499 224 519 249 519 c 0
 274 519 294 499 294 474 c 0
 294 449 274 429 249 429 c 0
 224 429 204 449 204 474 c 0
204 474 m 0
 204 449 224 429 249 429 c 0
 274 429 294 449 294 474 c 0
 294 499 274 519 249 519 c 0
 224 519 204 499 204 474 c 0
204 474 m 0
 204 499 224 519 249 519 c 0
 274 519 294 499 294 474 c 0
 294 449 274 429 249 429 c 0
 224 429 204 449 204 474 c 0
EndSplineSet
Validated: 37
EndChar

StartChar: b
Encoding: 98 98 84
Width: 550
Flags: HW
LayerCount: 2
Fore
SplineSet
226 800 m 1
 268 800 l 1
 309 800 l 1
 310 787 l 2
 311 775 312 775 321 772 c 0
 326 770 332 769 334 769 c 0
 336 769 348 764 362 757 c 0
 408 734 448 686 462 637 c 2
 466 620 l 1
 486 619 l 2
 507 618 514 614 525 600 c 0
 533 590 533 564 525 554 c 0
 514 540 507 536 486 535 c 2
 466 534 l 1
 460 515 l 2
 442 454 389 401 328 384 c 0
 316 381 312 379 311 375 c 0
 310 370 312 368 324 364 c 0
 368 349 412 314 436 270 c 0
 449 243 455 218 455 186 c 0
 455 154 449 128 436 101 c 0
 402 34 323 -6 242 2 c 1
 242 2 l 1
 172 12 111 63 91 128 c 2
 87 143 l 1
 66 144 l 2
 37 146 22 159 20 183 c 0
 18 209 36 226 68 229 c 2
 87 231 l 1
 91 246 l 2
 107 299 156 346 211 364 c 0
 229 370 230 378 215 382 c 0
 209 384 204 385 202 385 c 0
 200 385 188 390 174 397 c 0
 153 408 145 413 123 435 c 0
 101 457 97 464 86 486 c 0
 69 521 63 545 65 586 c 0
 67 643 83 679 123 719 c 0
 151 747 172 759 206 769 c 2
 225 775 l 1
 226 788 l 1
 226 800 l 1
270 705 m 0
 201 705 145 649 145 580 c 0
 145 511 201 455 270 455 c 0
 339 455 395 511 395 580 c 0
 395 649 339 705 270 705 c 0
268 291 m 0
 211 291 165 244 165 187 c 0
 165 130 211 83 268 83 c 0
 325 83 372 130 372 187 c 0
 372 244 325 291 268 291 c 0
225 580 m 0
 225 605 245 625 270 625 c 0
 295 625 315 605 315 580 c 0
 315 555 295 535 270 535 c 0
 245 535 225 555 225 580 c 0
225 580 m 0
 225 555 245 535 270 535 c 0
 295 535 315 555 315 580 c 0
 315 605 295 625 270 625 c 0
 245 625 225 605 225 580 c 0
225 580 m 0
 225 605 245 625 270 625 c 0
 295 625 315 605 315 580 c 0
 315 555 295 535 270 535 c 0
 245 535 225 555 225 580 c 0
EndSplineSet
Validated: 37
EndChar

StartChar: c
Encoding: 99 99 85
Width: 750
Flags: HW
LayerCount: 2
Fore
SplineSet
374 800 m 0
 421 800 443 797 485 784 c 0
 578 755 657 683 697 595 c 0
 725 533 739 444 723 423 c 0
 709 405 709 405 636 404 c 2
 570 403 l 1
 565 388 l 2
 550 335 502 281 450 260 c 0
 412 245 360 242 320 252 c 0
 267 266 216 307 192 356 c 0
 164 413 164 474 191 531 c 2
 203 556 l 1
 181 579 l 2
 169 592 158 603 157 603 c 0
 155 604 142 584 132 565 c 0
 80 462 104 332 191 251 c 0
 236 209 288 187 352 181 c 0
 388 178 399 174 408 161 c 0
 413 154 414 147 416 113 c 0
 418 65 417 33 411 22 c 0
 402 4 375 -5 357 3 c 1
 357 3 l 1
 347 8 338 17 334 27 c 0
 332 31 332 48 332 65 c 0
 332 95 332 96 326 97 c 0
 323 98 309 101 296 103 c 0
 227 116 164 150 114 203 c 0
 68 252 40 303 26 369 c 0
 18 406 18 479 25 513 c 0
 48 624 114 711 211 761 c 0
 266 790 310 800 374 800 c 0
371 715 m 0
 348 715 325 711 302 705 c 0
 281 699 247 684 228 672 c 2
 216 665 l 1
 241 641 l 1
 265 617 l 1
 284 627 l 2
 337 654 410 655 461 629 c 0
 513 603 551 557 566 505 c 2
 570 489 l 1
 603 489 l 2
 629 489 636 489 636 492 c 0
 636 501 622 545 612 565 c 0
 565 660 471 716 371 715 c 0
371 570 m 0
 302 570 246 514 246 445 c 0
 246 376 302 320 371 320 c 0
 440 320 496 376 496 445 c 0
 496 514 440 570 371 570 c 0
326 445 m 0
 326 470 346 490 371 490 c 0
 396 490 416 470 416 445 c 0
 416 420 396 400 371 400 c 0
 346 400 326 420 326 445 c 0
326 445 m 0
 326 420 346 400 371 400 c 0
 396 400 416 420 416 445 c 0
 416 470 396 490 371 490 c 0
 346 490 326 470 326 445 c 0
326 445 m 0
 326 470 346 490 371 490 c 0
 396 490 416 470 416 445 c 0
 416 420 396 400 371 400 c 0
 346 400 326 420 326 445 c 0
EndSplineSet
Validated: 37
EndChar

StartChar: d
Encoding: 100 100 86
Width: 650
Flags: HW
LayerCount: 2
Fore
SplineSet
248 770 m 0
 251 770 254 770 258 770 c 0
 340 769 424 736 490 679 c 0
 653 538 661 282 509 129 c 0
 451 71 377 35 293 24 c 0
 255 19 234 19 221 25 c 1
 221 25 l 1
 187 40 187 90 221 107 c 0
 225 109 241 112 261 113 c 0
 279 114 303 117 314 120 c 0
 401 141 480 212 511 297 c 0
 532 354 533 428 513 487 c 0
 490 555 434 619 370 650 c 0
 339 665 290 679 288 673 c 0
 288 672 288 656 288 637 c 2
 288 602 l 1
 297 600 l 2
 312 597 341 585 357 575 c 0
 386 557 419 520 434 490 c 0
 451 456 458 413 453 372 c 0
 447 318 428 277 390 241 c 0
 362 214 336 200 299 190 c 0
 270 182 214 182 186 190 c 0
 124 207 76 247 50 303 c 0
 38 330 32 351 30 381 c 0
 24 480 88 572 180 598 c 2
 196 603 l 1
 197 674 l 2
 198 753 199 754 217 765 c 0
 224 770 228 770 248 770 c 0
240 525 m 0
 171 525 115 469 115 400 c 0
 115 331 171 275 240 275 c 0
 309 275 365 331 365 400 c 0
 365 469 309 525 240 525 c 0
195 400 m 0
 195 425 215 445 240 445 c 0
 265 445 285 425 285 400 c 0
 285 375 265 355 240 355 c 0
 215 355 195 375 195 400 c 0
195 400 m 0
 195 375 215 355 240 355 c 0
 265 355 285 375 285 400 c 0
 285 425 265 445 240 445 c 0
 215 445 195 425 195 400 c 0
195 400 m 0
 195 425 215 445 240 445 c 0
 265 445 285 425 285 400 c 0
 285 375 265 355 240 355 c 0
 215 355 195 375 195 400 c 0
EndSplineSet
Validated: 37
EndChar

StartChar: e
Encoding: 101 101 87
Width: 650
Flags: HW
LayerCount: 2
Fore
SplineSet
474 760 m 0
 545 760 549 760 559 755 c 0
 587 742 593 703 570 682 c 0
 555 669 549 668 466 669 c 2
 392 669 l 1
 380 663 l 2
 370 658 366 655 361 644 c 0
 357 637 354 624 353 617 c 2
 352 604 l 1
 368 600 l 2
 401 592 431 575 459 548 c 0
 487 521 503 495 513 460 c 2
 518 442 l 1
 555 442 l 2
 587 442 594 441 602 437 c 0
 614 431 619 426 624 414 c 0
 633 393 623 368 602 357 c 0
 597 354 586 353 557 352 c 2
 518 350 l 1
 514 335 l 2
 495 267 439 213 370 195 c 2
 353 191 l 1
 354 182 l 2
 355 166 360 154 369 144 c 0
 384 126 384 126 473 126 c 2
 551 126 l 1
 563 119 l 2
 583 107 591 81 580 60 c 0
 574 49 568 44 557 39 c 0
 545 34 397 34 374 39 c 1
 349 44 328 56 308 76 c 0
 281 103 269 133 264 178 c 2
 262 194 l 1
 250 197 l 2
 243 199 229 204 218 209 c 0
 166 234 126 282 112 338 c 2
 109 350 l 1
 70 352 l 2
 26 353 18 356 7 372 c 0
 -2 386 -2 407 7 421 c 0
 18 438 29 441 71 441 c 2
 108 441 l 1
 112 457 l 2
 128 519 179 575 243 595 c 2
 265 602 l 1
 265 617 l 2
 265 670 299 723 347 746 c 0
 372 758 390 760 474 760 c 0
314 522 m 0
 245 522 189 467 189 398 c 0
 189 329 245 273 314 273 c 0
 383 273 439 329 439 398 c 0
 439 467 383 522 314 522 c 0
269 398 m 0
 269 423 289 442 314 442 c 0
 339 442 359 423 359 398 c 0
 359 373 339 353 314 353 c 0
 289 353 269 373 269 398 c 0
269 398 m 0
 269 373 289 352 314 352 c 0
 339 352 359 373 359 398 c 0
 359 423 339 442 314 442 c 0
 289 442 269 423 269 398 c 0
269 398 m 0
 269 423 289 442 314 442 c 0
 339 442 359 423 359 398 c 0
 359 373 339 353 314 353 c 0
 289 353 269 373 269 398 c 0
EndSplineSet
Validated: 37
EndChar

StartChar: f
Encoding: 102 102 88
Width: 750
Flags: HW
LayerCount: 2
Fore
SplineSet
227 770 m 0
 250 770 274 767 297 759 c 0
 360 738 413 683 429 621 c 2
 433 603 l 1
 561 602 l 2
 680 601 689 601 698 597 c 0
 709 592 717 579 719 566 c 0
 722 547 717 539 615 435 c 0
 562 381 516 336 512 334 c 0
 503 329 482 329 473 334 c 0
 469 336 447 356 425 379 c 2
 385 420 l 1
 378 413 l 2
 361 393 318 366 290 359 c 2
 276 356 l 1
 275 327 l 1
 275 298 l 1
 325 297 l 2
 383 296 391 294 402 277 c 0
 416 255 410 226 388 213 c 0
 377 207 377 207 326 207 c 2
 275 207 l 1
 275 175 l 2
 275 144 275 143 282 133 c 0
 291 121 302 113 317 111 c 0
 340 107 357 89 357 66 c 0
 357 35 333 16 299 21 c 0
 285 23 260 36 243 48 c 2
 230 57 l 1
 217 48 l 2
 200 35 186 29 168 24 c 0
 151 19 142 19 129 23 c 1
 129 23 l 1
 111 30 100 45 100 65 c 0
 100 79 104 90 115 99 c 0
 123 106 130 108 150 113 c 0
 160 115 177 130 181 139 c 0
 184 146 185 166 185 250 c 2
 185 354 l 1
 159 362 l 2
 94 383 45 436 27 504 c 0
 12 562 22 627 52 674 c 0
 92 735 158 769 227 770 c 0
230 686 m 0
 161 686 105 630 105 561 c 0
 105 492 161 436 230 436 c 0
 299 436 355 492 355 561 c 0
 355 630 299 686 230 686 c 0
489 515 m 1
 465 515 441 515 434 514 c 2
 423 512 l 1
 457 475 l 2
 476 455 493 439 494 439 c 0
 495 439 511 455 529 475 c 1
 529 475 l 1
 563 511 l 1
 548 513 l 2
 538 514 513 515 489 515 c 1
 489 515 l 1
185 561 m 0
 185 586 205 606 230 606 c 0
 255 606 275 586 275 561 c 0
 275 536 255 516 230 516 c 0
 205 516 185 536 185 561 c 0
185 561 m 0
 185 536 205 516 230 516 c 0
 255 516 275 536 275 561 c 0
 275 586 255 606 230 606 c 0
 205 606 185 586 185 561 c 0
185 561 m 0
 185 586 205 606 230 606 c 0
 255 606 275 586 275 561 c 0
 275 536 255 516 230 516 c 0
 205 516 185 536 185 561 c 0
EndSplineSet
Validated: 37
EndChar

StartChar: g
Encoding: 103 103 89
Width: 500
Flags: HW
LayerCount: 2
Fore
SplineSet
251 810 m 0
 276 810 302 809 318 805 c 0
 380 792 452 756 467 731 c 0
 478 713 471 695 430 626 c 0
 421 611 414 598 414 597 c 0
 414 596 419 587 426 577 c 0
 449 542 458 510 458 463 c 0
 458 388 430 333 373 296 c 0
 364 290 315 266 263 241 c 0
 211 216 169 195 169 194 c 0
 169 193 182 186 198 179 c 0
 253 154 410 76 423 68 c 0
 438 59 444 45 444 28 c 0
 444 4 429 -13 406 -15 c 0
 394 -16 384 -12 217 71 c 0
 120 119 38 162 34 165 c 0
 16 181 16 207 33 225 c 0
 37 229 64 244 94 258 c 0
 124 272 149 284 149 285 c 0
 149 286 142 291 133 297 c 0
 99 319 68 361 54 402 c 0
 44 431 42 482 49 512 c 0
 54 535 70 570 83 586 c 2
 91 597 l 1
 70 632 l 2
 29 698 26 709 36 729 c 0
 49 754 121 791 185 805 c 0
 201 809 226 810 251 810 c 0
254 721 m 0
 230 721 205 719 189 715 c 0
 165 709 136 698 136 694 c 0
 136 692 153 661 158 655 c 0
 160 653 164 653 175 658 c 0
 183 661 198 667 209 669 c 0
 247 678 294 673 330 657 c 2
 342 652 l 1
 355 672 l 2
 362 683 367 694 367 695 c 0
 367 698 325 714 304 718 c 0
 291 720 273 721 254 721 c 0
251 597 m 0
 182 597 126 541 126 472 c 0
 126 403 182 347 251 347 c 0
 320 347 376 403 376 472 c 0
 376 541 320 597 251 597 c 0
206 472 m 0
 206 497 226 517 251 517 c 0
 276 517 296 497 296 472 c 0
 296 447 276 427 251 427 c 0
 226 427 206 447 206 472 c 0
206 472 m 0
 206 447 226 427 251 427 c 0
 276 427 296 447 296 472 c 0
 296 497 276 517 251 517 c 0
 226 517 206 497 206 472 c 0
206 472 m 0
 206 497 226 517 251 517 c 0
 276 517 296 497 296 472 c 0
 296 447 276 427 251 427 c 0
 226 427 206 447 206 472 c 0
EndSplineSet
Validated: 37
EndChar

StartChar: h
Encoding: 104 104 90
Width: 750
Flags: HW
LayerCount: 2
Fore
SplineSet
289 750 m 0
 294 750 298 749 303 747 c 0
 320 740 330 725 330 706 c 0
 330 683 318 670 288 660 c 0
 246 646 212 625 182 595 c 0
 160 573 135 537 122 509 c 0
 114 491 102 451 104 446 c 0
 105 444 115 443 138 444 c 2
 170 445 l 1
 175 461 l 2
 177 470 183 485 188 495 c 0
 232 585 336 629 433 598 c 0
 496 578 550 523 567 461 c 2
 571 445 l 1
 604 444 l 1
 638 443 l 1
 638 450 l 2
 638 460 627 497 618 516 c 0
 599 557 560 601 522 626 c 0
 495 643 487 648 457 658 c 0
 443 663 429 669 426 672 c 0
 413 684 408 706 415 723 c 0
 420 735 426 741 437 746 c 0
 450 752 458 752 484 743 c 0
 611 701 701 600 726 468 c 0
 732 438 732 371 726 338 c 0
 706 226 634 128 533 78 c 0
 510 67 464 50 455 50 c 0
 446 50 430 58 423 66 c 0
 414 76 411 94 414 107 c 0
 418 122 430 132 453 140 c 0
 464 144 480 150 489 154 c 0
 539 177 589 226 617 282 c 0
 627 301 637 333 638 347 c 2
 639 357 l 1
 629 357 l 2
 623 357 608 356 595 356 c 2
 571 356 l 1
 569 345 l 2
 568 339 564 327 560 317 c 0
 535 260 480 214 417 199 c 0
 389 192 338 194 312 202 c 0
 264 217 223 246 197 287 c 0
 186 304 175 331 172 347 c 2
 171 355 l 1
 138 356 l 2
 120 357 104 357 103 357 c 0
 101 356 107 327 115 305 c 0
 129 266 152 232 185 201 c 0
 216 171 254 150 294 138 c 0
 328 128 342 96 324 69 c 0
 317 58 301 50 288 50 c 0
 283 50 267 54 254 58 c 1
 254 58 l 1
 169 86 102 142 56 222 c 0
 6 309 -4 419 30 521 c 0
 47 573 74 615 116 657 c 0
 157 698 199 724 254 742 c 0
 271 748 281 750 289 750 c 0
370 525 m 0
 301 525 245 469 245 400 c 0
 245 331 301 275 370 275 c 0
 439 275 495 331 495 400 c 0
 495 469 439 525 370 525 c 0
325 400 m 0
 325 425 345 445 370 445 c 0
 395 445 415 425 415 400 c 0
 415 375 395 355 370 355 c 0
 345 355 325 375 325 400 c 0
325 400 m 0
 325 375 345 355 370 355 c 0
 395 355 415 375 415 400 c 0
 415 425 395 445 370 445 c 0
 345 445 325 425 325 400 c 0
325 400 m 0
 325 425 345 445 370 445 c 0
 395 445 415 425 415 400 c 0
 415 375 395 355 370 355 c 0
 345 355 325 375 325 400 c 0
EndSplineSet
Validated: 37
EndChar

StartChar: i
Encoding: 105 105 91
Width: 450
Flags: HW
LayerCount: 2
Fore
SplineSet
222 800 m 2
 222 800 l 2
 236 800 249 794 259 781 c 0
 264 774 264 769 265 687 c 2
 266 601 l 1
 283 596 l 2
 348 578 404 521 423 451 c 0
 429 427 429 373 423 349 c 0
 404 279 348 221 283 203 c 2
 266 199 l 1
 266 114 l 2
 266 31 266 30 260 21 c 0
 257 16 251 9 247 6 c 0
 238 -1 214 -2 203 3 c 1
 203 3 l 1
 192 8 181 21 179 33 c 0
 178 38 178 68 179 99 c 0
 180 130 180 165 179 177 c 2
 177 199 l 1
 155 206 l 2
 124 216 103 229 78 254 c 0
 18 313 -1 396 29 475 c 0
 50 531 101 579 156 595 c 2
 178 601 l 1
 178 683 l 2
 178 762 178 764 184 776 c 0
 192 792 207 800 222 800 c 2
221 525 m 0
 152 525 96 469 96 400 c 0
 96 331 152 275 221 275 c 0
 290 275 346 331 346 400 c 0
 346 469 290 525 221 525 c 0
176 400 m 0
 176 425 196 445 221 445 c 0
 246 445 266 425 266 400 c 0
 266 375 246 355 221 355 c 0
 196 355 176 375 176 400 c 0
176 400 m 0
 176 375 196 355 221 355 c 0
 246 355 266 375 266 400 c 0
 266 425 246 445 221 445 c 0
 196 445 176 425 176 400 c 0
176 400 m 0
 176 425 196 445 221 445 c 0
 246 445 266 425 266 400 c 0
 266 375 246 355 221 355 c 0
 196 355 176 375 176 400 c 0
EndSplineSet
Validated: 37
EndChar

StartChar: j
Encoding: 106 106 92
Width: 550
Flags: HW
LayerCount: 2
Fore
SplineSet
476 770 m 0
 478 770 481 769 483 769 c 0
 497 767 511 756 517 744 c 0
 528 719 522 705 482 667 c 2
 453 639 l 1
 464 619 l 2
 498 555 494 471 454 411 c 0
 429 373 386 342 342 329 c 2
 323 323 l 1
 322 228 l 2
 321 146 320 132 316 120 c 0
 292 47 220 7 142 24 c 0
 88 36 44 79 33 134 c 0
 26 169 30 191 47 203 c 0
 54 208 59 209 75 209 c 0
 90 209 95 208 101 204 c 0
 113 195 117 187 120 169 c 0
 123 145 126 137 136 126 c 0
 148 114 160 109 177 109 c 0
 194 109 209 116 219 129 c 0
 232 145 233 149 234 239 c 2
 235 322 l 1
 228 324 l 2
 191 332 159 348 134 372 c 0
 89 414 70 462 70 527 c 0
 70 601 102 660 163 701 c 0
 225 742 308 746 375 710 c 2
 390 702 l 1
 422 733 l 2
 452 762 462 770 476 770 c 0
278 652 m 0
 209 652 153 596 153 527 c 0
 153 458 209 402 278 402 c 0
 347 402 403 458 403 527 c 0
 403 596 347 652 278 652 c 0
233 527 m 0
 233 552 253 572 278 572 c 0
 303 572 323 552 323 527 c 0
 323 502 303 482 278 482 c 0
 253 482 233 502 233 527 c 0
233 527 m 0
 233 502 253 482 278 482 c 0
 303 482 323 502 323 527 c 0
 323 552 303 572 278 572 c 0
 253 572 233 552 233 527 c 0
233 527 m 0
 233 552 253 572 278 572 c 0
 303 572 323 552 323 527 c 0
 323 502 303 482 278 482 c 0
 253 482 233 502 233 527 c 0
EndSplineSet
Validated: 37
EndChar

StartChar: k
Encoding: 107 107 93
Width: 600
Flags: HW
LayerCount: 2
Fore
SplineSet
227 750 m 0
 238 750 250 746 258 738 c 0
 271 725 272 720 272 658 c 2
 272 601 l 1
 282 599 l 2
 336 585 382 548 408 498 c 2
 418 480 l 1
 466 528 l 2
 492 554 517 577 521 579 c 0
 537 587 557 582 570 568 c 0
 579 559 582 551 582 539 c 0
 582 522 575 512 517 456 c 2
 461 401 l 1
 516 346 l 2
 583 279 589 270 578 245 c 0
 567 221 541 212 518 223 c 0
 512 226 491 244 463 273 c 0
 438 298 418 318 418 318 c 0
 418 318 413 309 407 298 c 0
 383 252 334 214 284 202 c 2
 272 199 l 1
 272 143 l 2
 272 81 271 76 258 63 c 0
 247 52 227 47 212 53 c 0
 201 57 192 65 188 74 c 0
 184 82 183 90 183 141 c 2
 183 198 l 1
 167 203 l 2
 134 211 105 229 79 256 c 0
 52 285 36 312 27 348 c 0
 -2 460 67 576 177 600 c 2
 183 601 l 1
 183 659 l 2
 183 711 184 717 188 726 c 0
 195 741 211 750 227 750 c 0
227 525 m 0
 158 525 102 469 102 400 c 0
 102 331 158 275 227 275 c 0
 296 275 352 331 352 400 c 0
 352 469 296 525 227 525 c 0
182 400 m 0
 182 425 202 445 227 445 c 0
 252 445 272 425 272 400 c 0
 272 375 252 355 227 355 c 0
 202 355 182 375 182 400 c 0
182 400 m 0
 182 375 202 355 227 355 c 0
 252 355 272 375 272 400 c 0
 272 425 252 445 227 445 c 0
 202 445 182 425 182 400 c 0
182 400 m 0
 182 425 202 445 227 445 c 0
 252 445 272 425 272 400 c 0
 272 375 252 355 227 355 c 0
 202 355 182 375 182 400 c 0
EndSplineSet
Validated: 37
EndChar

StartChar: l
Encoding: 108 108 94
Width: 600
Flags: HW
LayerCount: 2
Fore
SplineSet
67 750 m 0
 81 750 92 742 122 712 c 2
 153 681 l 1
 173 691 l 2
 200 706 223 711 257 713 c 0
 320 716 370 698 413 657 c 0
 477 596 495 503 465 421 c 0
 444 364 388 314 330 299 c 2
 310 295 l 1
 308 244 310 200 310 148 c 1
 323 159 l 2
 353 183 388 195 431 195 c 0
 478 195 506 185 534 157 c 0
 572 119 583 59 557 36 c 0
 545 25 541 25 397 25 c 0
 314 25 257 27 252 28 c 0
 239 32 223 37 223 49 c 2
 223 294 l 1
 206 299 l 2
 151 313 101 354 75 409 c 0
 46 468 50 552 83 605 c 2
 90 616 l 1
 57 649 l 2
 22 684 19 692 21 710 c 0
 24 730 41 747 61 750 c 0
 63 750 65 750 67 750 c 0
269 628 m 0
 200 628 144 572 144 503 c 0
 144 434 200 378 269 378 c 0
 338 378 394 434 394 503 c 0
 394 572 338 628 269 628 c 0
224 503 m 0
 224 528 244 548 269 548 c 0
 294 548 314 528 314 503 c 0
 314 478 294 458 269 458 c 0
 244 458 224 478 224 503 c 0
224 503 m 0
 224 478 244 458 269 458 c 0
 294 458 314 478 314 503 c 0
 314 528 294 548 269 548 c 0
 244 548 224 528 224 503 c 0
224 503 m 0
 224 528 244 548 269 548 c 0
 294 548 314 528 314 503 c 0
 314 478 294 458 269 458 c 0
 244 458 224 478 224 503 c 0
EndSplineSet
Validated: 37
EndChar

StartChar: m
Encoding: 109 109 95
Width: 750
Flags: HW
LayerCount: 2
Fore
SplineSet
380 660 m 0
 401 660 422 659 437 656 c 0
 485 647 534 627 575 599 c 2
 598 583 l 1
 618 603 l 2
 642 629 651 634 668 634 c 0
 689 634 704 622 711 602 c 0
 717 583 709 567 681 540 c 2
 660 520 l 1
 665 515 l 2
 682 496 706 450 719 411 c 0
 750 319 743 224 700 134 c 0
 683 99 670 87 648 87 c 0
 628 87 611 101 605 119 c 0
 601 132 602 140 619 174 c 0
 638 214 646 242 648 285 c 0
 651 362 631 420 580 479 c 0
 541 525 492 552 424 567 c 2
 417 569 l 1
 417 535 l 1
 417 501 l 1
 424 499 l 2
 468 489 509 463 537 428 c 0
 577 377 593 308 576 235 c 0
 562 174 511 122 454 100 c 0
 403 81 342 81 290 101 c 0
 254 116 214 151 194 185 c 0
 152 256 156 354 204 419 c 0
 234 459 269 484 311 496 c 0
 321 499 329 501 329 501 c 0
 330 502 331 566 330 567 c 0
 327 570 280 556 258 546 c 0
 216 526 182 499 154 461 c 0
 117 412 100 360 100 296 c 0
 100 243 108 216 132 167 c 0
 149 133 150 118 135 102 c 0
 114 79 79 83 61 111 c 0
 42 141 23 191 15 234 c 0
 8 269 9 331 16 364 c 0
 27 414 45 457 72 498 c 2
 87 520 l 1
 64 544 l 2
 49 559 40 570 39 575 c 0
 38 579 37 584 36 586 c 0
 32 599 49 625 64 631 c 0
 85 640 101 633 130 604 c 2
 151 584 l 1
 170 597 l 2
 209 624 255 643 305 654 c 0
 324 658 353 660 380 660 c 0
374 420 m 0
 305 420 249 364 249 295 c 0
 249 226 305 170 374 170 c 0
 443 170 499 226 499 295 c 0
 499 364 443 420 374 420 c 0
329 295 m 0
 329 320 349 340 374 340 c 0
 399 340 419 320 419 295 c 0
 419 270 399 250 374 250 c 0
 349 250 329 270 329 295 c 0
329 295 m 0
 329 270 349 250 374 250 c 0
 399 250 419 270 419 295 c 0
 419 320 399 340 374 340 c 0
 349 340 329 320 329 295 c 0
329 295 m 0
 329 320 349 340 374 340 c 0
 399 340 419 320 419 295 c 0
 419 270 399 250 374 250 c 0
 349 250 329 270 329 295 c 0
EndSplineSet
Validated: 37
EndChar

StartChar: n
Encoding: 110 110 96
Width: 750
Flags: HW
LayerCount: 2
Fore
SplineSet
688 720 m 0
 700 720 712 715 720 705 c 0
 730 692 730 685 725 627 c 0
 719 561 707 420 693 247 c 0
 687 175 681 111 680 107 c 0
 677 90 655 76 635 76 c 0
 619 76 611 83 549 146 c 2
 488 209 l 1
 481 204 l 2
 427 166 339 161 277 192 c 0
 181 243 134 360 178 470 c 1
 189 493 l 1
 164 518 l 2
 148 534 139 541 138 539 c 0
 137 537 136 523 135 506 c 0
 132 441 110 187 101 107 c 0
 99 90 96 74 94 70 c 0
 83 48 56 39 33 49 c 0
 22 54 15 64 11 76 c 0
 9 83 12 138 32 365 c 0
 45 519 57 649 58 654 c 0
 62 681 92 697 118 686 c 0
 124 684 149 660 189 620 c 2
 251 558 l 1
 260 564 l 2
 312 595 382 602 444 581 c 0
 497 562 546 514 565 463 c 0
 576 434 579 410 578 374 c 0
 577 337 573 322 559 292 c 2
 549 272 l 1
 574 247 l 2
 588 233 599 223 600 223 c 0
 601 223 602 233 603 247 c 0
 612 379 637 671 641 687 c 0
 646 708 668 720 688 720 c 0
369 507 m 0
 300 507 244 451 244 382 c 0
 244 313 300 258 369 258 c 0
 438 258 494 313 494 382 c 0
 494 451 438 507 369 507 c 0
324 382 m 0
 324 407 344 427 369 427 c 0
 394 427 414 407 414 382 c 0
 414 357 394 338 369 338 c 0
 344 338 324 357 324 382 c 0
324 382 m 0
 324 357 344 338 369 338 c 0
 394 338 414 357 414 382 c 0
 414 407 394 428 369 428 c 0
 344 428 324 407 324 382 c 0
324 382 m 0
 324 407 344 427 369 427 c 0
 394 427 414 407 414 382 c 0
 414 357 394 338 369 338 c 0
 344 338 324 357 324 382 c 0
EndSplineSet
Validated: 37
EndChar

StartChar: o
Encoding: 111 111 97
Width: 800
Flags: HW
HStem: 350 90<346.481 423.519> 678 92<273.235 491.533>
VStem: 340 90<117.579 186 356.481 433.519> 668 92<282.258 501.853>
LayerCount: 2
Fore
SplineSet
396 770 m 0
 470 770 543 748 607 706 c 0
 634 688 676 648 697 620 c 0
 747 553 774 463 770 378 c 0
 765 280 728 197 660 129 c 0
 606 75 544 41 468 26 c 0
 435 19 375 18 343 23 c 0
 258 36 188 71 129 129 c 0
 74 184 41 246 26 323 c 0
 18 361 18 424 25 461 c 0
 50 593 138 700 263 746 c 0
 306 762 351 770 396 770 c 0
405 678 m 0
 376 678 342 675 322 670 c 0
 276 658 239 636 202 601 c 0
 160 561 133 517 119 463 c 0
 80 315 173 158 323 119 c 0
 352 111 350 109 350 150 c 2
 350 186 l 1
 334 190 l 2
 267 209 210 264 190 330 c 0
 180 364 179 413 187 450 c 0
 203 521 261 581 334 601 c 0
 369 611 425 610 458 600 c 0
 523 580 577 529 598 465 c 0
 620 400 612 333 576 279 c 0
 547 236 499 201 450 189 c 2
 440 187 l 1
 440 150 l 2
 440 121 440 114 443 114 c 0
 453 114 499 128 517 137 c 0
 591 172 648 240 669 318 c 0
 677 347 681 387 678 418 c 0
 667 545 564 655 439 675 c 0
 430 677 418 678 405 678 c 0
395 520 m 0
 326 520 270 464 270 395 c 0
 270 326 326 270 395 270 c 0
 464 270 520 326 520 395 c 0
 520 464 464 520 395 520 c 0
350 395 m 0
 350 420 370 440 395 440 c 0
 420 440 440 420 440 395 c 0
 440 370 420 350 395 350 c 0
 370 350 350 370 350 395 c 0
350 395 m 0
 350 370 370 350 395 350 c 0
 420 350 440 370 440 395 c 0
 440 420 420 440 395 440 c 0
 370 440 350 420 350 395 c 0
350 395 m 0
 350 420 370 440 395 440 c 0
 420 440 440 420 440 395 c 0
 440 370 420 350 395 350 c 0
 370 350 350 370 350 395 c 0
EndSplineSet
Validated: 37
EndChar

StartChar: p
Encoding: 112 112 98
Width: 500
Flags: HW
LayerCount: 2
Fore
SplineSet
66 740 m 0
 71 740 76 739 81 737 c 0
 89 734 99 726 122 702 c 0
 144 679 154 670 156 672 c 0
 163 678 194 692 211 697 c 0
 234 703 276 706 300 702 c 0
 343 695 381 676 414 645 c 0
 461 600 483 546 479 482 c 0
 476 422 454 375 412 336 c 0
 372 299 325 281 267 281 c 0
 227 281 191 291 157 312 c 2
 146 319 l 1
 145 182 l 1
 144 45 l 1
 138 35 l 2
 126 17 101 10 81 19 c 1
 81 19 l 1
 69 24 59 37 57 47 c 2
 57 534 l 1
 63 552 l 2
 66 562 73 578 78 589 c 2
 88 608 l 1
 58 638 l 2
 24 670 18 679 20 697 c 0
 22 722 44 740 66 740 c 0
272 616 m 0
 203 616 147 560 147 491 c 0
 147 422 203 366 272 366 c 0
 341 366 397 422 397 491 c 0
 397 560 341 616 272 616 c 0
227 491 m 0
 227 516 247 536 272 536 c 0
 297 536 317 516 317 491 c 0
 317 466 297 446 272 446 c 0
 247 446 227 466 227 491 c 0
227 491 m 0
 227 466 247 446 272 446 c 0
 297 446 317 466 317 491 c 0
 317 516 297 536 272 536 c 0
 247 536 227 516 227 491 c 0
227 491 m 0
 227 516 247 536 272 536 c 0
 297 536 317 516 317 491 c 0
 317 466 297 446 272 446 c 0
 247 446 227 466 227 491 c 0
EndSplineSet
Validated: 37
EndChar

StartChar: q
Encoding: 113 113 99
Width: 600
Flags: HW
LayerCount: 2
Fore
SplineSet
221 660 m 0
 253 660 283 652 312 638 c 0
 367 611 404 565 420 502 c 0
 426 479 426 435 421 412 c 0
 416 392 409 370 399 354 c 2
 391 341 l 1
 433 299 l 2
 456 276 475 258 476 258 c 0
 477 258 485 265 494 274 c 0
 504 285 515 292 521 295 c 0
 559 313 598 274 579 237 c 0
 577 233 567 222 557 212 c 2
 539 194 l 1
 558 174 l 2
 584 148 589 137 583 117 c 0
 578 100 557 85 540 85 c 0
 536 85 529 87 524 89 c 0
 517 92 493 115 422 186 c 2
 329 279 l 1
 319 273 l 2
 305 264 284 256 265 251 c 0
 251 247 244 247 218 247 c 0
 191 247 185 248 168 253 c 0
 62 282 -4 379 12 485 c 0
 19 534 36 567 71 601 c 0
 109 638 152 657 207 660 c 0
 212 660 216 660 221 660 c 0
216 578 m 0
 147 578 91 522 91 453 c 0
 91 384 147 328 216 328 c 0
 285 328 341 384 341 453 c 0
 341 522 285 578 216 578 c 0
171 453 m 0
 171 478 191 498 216 498 c 0
 241 498 261 478 261 453 c 0
 261 428 241 408 216 408 c 0
 191 408 171 428 171 453 c 0
171 453 m 0
 171 428 191 408 216 408 c 0
 241 408 261 428 261 453 c 0
 261 478 241 498 216 498 c 0
 191 498 171 478 171 453 c 0
171 453 m 0
 171 478 191 498 216 498 c 0
 241 498 261 478 261 453 c 0
 261 428 241 408 216 408 c 0
 191 408 171 428 171 453 c 0
EndSplineSet
Validated: 37
EndChar

StartChar: r
Encoding: 114 114 100
Width: 525
Flags: HW
LayerCount: 2
Fore
SplineSet
251 700 m 2
 251 700 l 2
 290 700 308 696 339 681 c 0
 362 670 374 662 393 644 c 0
 412 626 426 608 438 582 c 0
 454 549 456 537 456 495 c 0
 456 452 452 436 434 402 c 2
 423 381 l 1
 464 341 l 2
 516 290 522 277 511 253 c 0
 501 230 470 220 449 232 c 0
 447 233 426 253 403 276 c 2
 361 318 l 1
 339 307 l 2
 307 291 287 285 251 285 c 0
 208 285 174 294 143 314 c 0
 136 318 129 322 129 322 c 0
 129 322 130 264 130 194 c 0
 131 103 130 64 128 57 c 0
 121 33 96 19 70 27 c 0
 59 30 45 44 42 56 c 0
 40 64 39 121 40 298 c 2
 41 529 l 1
 46 547 l 2
 67 621 124 677 197 695 c 0
 213 699 223 700 251 700 c 2
252 617 m 0
 183 617 127 561 127 492 c 0
 127 423 183 367 252 367 c 0
 321 367 377 423 377 492 c 0
 377 561 321 617 252 617 c 0
207 492 m 0
 207 517 227 537 252 537 c 0
 277 537 297 517 297 492 c 0
 297 467 277 447 252 447 c 0
 227 447 207 467 207 492 c 0
207 492 m 0
 207 467 227 447 252 447 c 0
 277 447 297 467 297 492 c 0
 297 517 277 537 252 537 c 0
 227 537 207 517 207 492 c 0
207 492 m 0
 207 517 227 537 252 537 c 0
 277 537 297 517 297 492 c 0
 297 467 277 447 252 447 c 0
 227 447 207 467 207 492 c 0
EndSplineSet
Validated: 37
EndChar

StartChar: s
Encoding: 115 115 101
Width: 700
Flags: HW
LayerCount: 2
Fore
SplineSet
340 820 m 2
 355 820 369 814 378 801 c 0
 384 792 384 788 384 738 c 0
 384 691 384 685 379 677 c 0
 368 659 333 650 318 662 c 0
 309 669 299 668 270 661 c 0
 214 647 159 611 124 566 c 2
 115 554 l 1
 139 538 l 2
 152 529 164 522 166 521 c 0
 168 520 176 528 184 537 c 0
 208 566 241 589 281 600 c 0
 313 609 368 609 398 600 c 0
 469 578 519 528 543 456 c 0
 549 439 550 430 550 395 c 2
 550 354 l 1
 575 338 l 2
 651 288 666 275 669 257 c 0
 672 242 668 229 645 195 c 0
 591 113 508 58 410 38 c 2
 385 33 l 1
 384 15 l 2
 382 -12 366 -28 342 -30 c 0
 331 -31 327 -29 318 -24 c 2
 299 -13 296 -5 295 55 c 0
 295 104 295 108 301 116 c 0
 309 127 322 134 338 136 c 0
 350 137 353 136 362 130 c 0
 375 121 385 121 422 133 c 0
 467 147 500 169 537 207 c 0
 551 222 563 235 562 237 c 0
 561 239 550 247 537 256 c 2
 513 272 l 1
 493 251 l 2
 458 213 417 192 363 185 c 0
 306 178 248 196 203 234 c 0
 181 253 165 274 151 303 c 0
 134 338 130 354 130 398 c 2
 130 437 l 1
 78 473 l 2
 49 493 22 512 18 517 c 0
 3 536 8 555 37 598 c 0
 90 678 182 738 275 754 c 2
 295 757 l 1
 296 774 l 2
 298 795 305 808 320 815 c 0
 327 818 333 820 340 820 c 2
340 520 m 0
 271 520 215 464 215 395 c 0
 215 326 271 270 340 270 c 0
 409 270 465 326 465 395 c 0
 465 464 409 520 340 520 c 0
295 395 m 0
 295 420 315 440 340 440 c 0
 365 440 385 420 385 395 c 0
 385 370 365 350 340 350 c 0
 315 350 295 370 295 395 c 0
295 395 m 0
 295 370 315 350 340 350 c 0
 365 350 385 370 385 395 c 0
 385 420 365 440 340 440 c 0
 315 440 295 420 295 395 c 0
295 395 m 0
 295 420 315 440 340 440 c 0
 365 440 385 420 385 395 c 0
 385 370 365 350 340 350 c 0
 315 350 295 370 295 395 c 0
EndSplineSet
Validated: 37
EndChar

StartChar: t
Encoding: 116 116 102
Width: 500
Flags: HW
LayerCount: 2
Fore
SplineSet
248 690 m 1
 346 690 442 690 448 688 c 0
 459 685 473 673 477 661 c 0
 484 643 477 621 461 609 c 2
 451 602 l 1
 370 601 l 1
 288 600 l 1
 288 526 l 1
 288 451 l 1
 306 446 l 2
 369 428 420 377 442 312 c 0
 450 289 452 269 451 237 c 0
 449 196 440 167 420 135 c 0
 406 113 375 82 353 69 c 0
 311 44 256 34 208 43 c 1
 208 43 l 1
 185 47 169 52 151 61 c 0
 97 88 58 136 43 193 c 0
 38 211 37 219 37 247 c 0
 37 294 46 326 68 361 c 0
 96 404 136 434 182 446 c 2
 199 451 l 1
 201 492 l 2
 202 515 202 548 202 566 c 2
 201 600 l 1
 120 601 l 2
 50 602 38 603 32 606 c 0
 -3 626 5 679 45 688 c 0
 52 690 150 690 248 690 c 1
 248 690 l 1
245 368 m 0
 176 368 120 312 120 243 c 0
 120 174 176 118 245 118 c 0
 314 118 370 174 370 243 c 0
 370 312 314 368 245 368 c 0
200 243 m 0
 200 268 220 288 245 288 c 0
 270 288 290 268 290 243 c 0
 290 218 270 198 245 198 c 0
 220 198 200 218 200 243 c 0
200 243 m 0
 200 218 220 198 245 198 c 0
 270 198 290 218 290 243 c 0
 290 268 270 288 245 288 c 0
 220 288 200 268 200 243 c 0
200 243 m 0
 200 268 220 288 245 288 c 0
 270 288 290 268 290 243 c 0
 290 218 270 198 245 198 c 0
 220 198 200 218 200 243 c 0
EndSplineSet
Validated: 37
EndChar

StartChar: u
Encoding: 117 117 103
Width: 800
Flags: HW
LayerCount: 2
Fore
SplineSet
394 680 m 0
 401 680 407 679 414 676 c 0
 426 670 435 661 438 647 c 0
 441 637 441 636 455 633 c 0
 474 629 511 610 530 595 c 0
 563 569 592 522 603 479 c 0
 615 430 607 371 582 329 c 2
 574 315 l 1
 600 290 l 2
 614 276 625 264 626 265 c 0
 652 297 675 358 677 406 c 0
 679 443 682 454 693 464 c 0
 701 471 717 478 725 478 c 0
 733 478 748 472 756 464 c 0
 772 450 774 431 767 380 c 0
 756 295 722 226 662 166 c 0
 602 106 531 70 445 58 c 0
 422 55 380 54 358 56 c 0
 297 63 235 85 184 119 c 0
 151 141 104 188 83 220 c 0
 45 277 25 337 21 407 c 0
 19 438 22 452 34 464 c 0
 54 484 90 480 105 456 c 0
 109 449 111 442 113 416 c 0
 117 364 129 321 151 285 c 0
 157 275 163 266 164 265 c 0
 165 264 177 276 191 290 c 2
 217 316 l 1
 209 330 l 2
 160 413 182 529 259 594 c 0
 279 611 314 629 335 633 c 0
 349 636 351 637 352 644 c 0
 356 665 374 679 394 680 c 0
395 558 m 0
 326 558 270 502 270 433 c 0
 270 364 326 308 395 308 c 0
 464 308 520 364 520 433 c 0
 520 502 464 558 395 558 c 0
281 251 m 1
 255 227 l 2
 241 214 230 202 230 201 c 0
 230 197 267 175 289 167 c 0
 307 160 340 150 347 150 c 0
 349 150 350 159 350 186 c 2
 350 221 l 1
 336 226 l 2
 328 228 312 235 301 241 c 2
 281 251 l 1
510 250 m 1
 491 241 l 2
 480 236 465 229 456 226 c 2
 440 221 l 1
 440 186 l 2
 440 166 442 150 443 150 c 0
 444 150 453 152 464 155 c 0
 502 165 536 180 560 199 c 0
 560 199 550 211 536 225 c 2
 510 250 l 1
350 433 m 0
 350 458 370 478 395 478 c 0
 420 478 440 458 440 433 c 0
 440 408 420 388 395 388 c 0
 370 388 350 408 350 433 c 0
350 433 m 0
 350 408 370 388 395 388 c 0
 420 388 440 408 440 433 c 0
 440 458 420 478 395 478 c 0
 370 478 350 458 350 433 c 0
350 433 m 0
 350 458 370 478 395 478 c 0
 420 478 440 458 440 433 c 0
 440 408 420 388 395 388 c 0
 370 388 350 408 350 433 c 0
EndSplineSet
Validated: 37
EndChar

StartChar: v
Encoding: 118 118 104
Width: 650
Flags: HW
LayerCount: 2
Fore
SplineSet
266 760 m 0
 274 760 281 760 289 760 c 0
 362 757 422 739 466 709 c 0
 475 703 484 698 485 698 c 0
 486 698 499 708 514 718 c 0
 529 728 551 741 562 746 c 0
 580 755 584 756 596 755 c 0
 614 754 625 746 633 729 c 0
 645 705 634 681 607 668 c 0
 587 659 538 629 534 625 c 0
 532 623 532 616 534 604 c 0
 538 571 529 529 508 488 c 0
 489 451 463 420 427 397 c 0
 416 390 406 384 406 384 c 0
 406 384 413 375 422 365 c 0
 520 264 493 95 369 32 c 0
 358 26 340 19 329 16 c 0
 303 9 258 8 232 13 c 0
 154 28 91 85 69 161 c 0
 57 204 62 241 72 285 c 0
 83 318 99 344 121 366 c 0
 136 381 139 385 135 386 c 0
 132 387 124 392 116 397 c 0
 29 453 -14 577 25 655 c 0
 57 718 152 759 266 760 c 0
274 670 m 0
 221 670 168 660 136 641 c 0
 108 624 100 614 100 590 c 0
 100 495 193 428 302 443 c 0
 365 452 416 490 435 542 c 0
 438 551 441 567 443 579 c 0
 446 599 446 600 441 611 c 0
 435 623 420 635 399 646 c 0
 367 662 321 670 274 670 c 0
274 344 m 0
 205 344 149 288 149 219 c 0
 149 150 205 94 274 94 c 0
 343 94 399 150 399 219 c 0
 399 288 343 344 274 344 c 0
229 219 m 0
 229 244 249 264 274 264 c 0
 299 264 319 244 319 219 c 0
 319 194 299 174 274 174 c 0
 249 174 229 194 229 219 c 0
229 219 m 0
 229 194 249 174 274 174 c 0
 299 174 319 194 319 219 c 0
 319 244 299 264 274 264 c 0
 249 264 229 244 229 219 c 0
229 219 m 0
 229 244 249 264 274 264 c 0
 299 264 319 244 319 219 c 0
 319 194 299 174 274 174 c 0
 249 174 229 194 229 219 c 0
EndSplineSet
Validated: 37
EndChar

StartChar: w
Encoding: 119 119 105
Width: 750
Flags: HW
LayerCount: 2
Fore
SplineSet
369 720 m 2
 369 720 l 2
 389 720 409 706 414 690 c 0
 415 685 416 637 416 572 c 2
 416 461 l 1
 426 459 l 2
 461 450 495 430 521 402 c 2
 539 382 l 1
 555 395 l 2
 596 428 621 472 625 525 c 0
 627 552 628 556 636 565 c 0
 646 577 655 581 671 581 c 0
 687 581 697 577 707 565 c 0
 720 551 722 535 716 496 c 0
 705 423 662 357 597 314 c 0
 583 305 577 299 577 296 c 0
 577 294 578 279 579 263 c 0
 582 200 561 149 516 105 c 0
 488 77 456 59 418 50 c 0
 397 45 354 43 333 47 c 1
 333 47 l 1
 286 56 241 81 213 114 c 0
 178 155 162 195 160 248 c 0
 159 265 161 283 162 288 c 2
 164 298 l 1
 144 311 l 2
 82 352 35 424 23 496 c 0
 17 533 19 549 30 564 c 0
 45 585 88 586 104 565 c 0
 110 557 112 547 115 518 c 0
 120 467 144 425 183 394 c 0
 191 388 198 382 199 382 c 0
 200 382 205 387 210 394 c 0
 232 422 273 449 313 459 c 2
 323 461 l 1
 323 573 l 2
 323 646 323 687 325 691 c 0
 331 707 351 720 369 720 c 2
369 375 m 0
 300 375 244 319 244 250 c 0
 244 181 300 125 369 125 c 0
 438 125 494 181 494 250 c 0
 494 319 438 375 369 375 c 0
324 250 m 0
 324 275 344 295 369 295 c 0
 394 295 414 275 414 250 c 0
 414 225 394 205 369 205 c 0
 344 205 324 225 324 250 c 0
324 250 m 0
 324 225 344 205 369 205 c 0
 394 205 414 225 414 250 c 0
 414 275 394 295 369 295 c 0
 344 295 324 275 324 250 c 0
324 250 m 0
 324 275 344 295 369 295 c 0
 394 295 414 275 414 250 c 0
 414 225 394 205 369 205 c 0
 344 205 324 225 324 250 c 0
EndSplineSet
Validated: 37
EndChar

StartChar: x
Encoding: 120 120 106
Width: 600
Flags: W
HStem: 330 90<256.481 333.519> 630 20G<50 75 520.5 527.5>
VStem: 250 90<336.481 413.519>
LayerCount: 2
Fore
SplineSet
524 650 m 2
 531 650 538 649 544 646 c 0
 553 641 561 632 566 623 c 0
 571 614 571 596 566 586 c 0
 564 582 544 560 517 532 c 2
 472 486 l 1
 481 470 l 2
 498 438 506 404 504 366 c 0
 502 330 495 301 479 275 c 2
 471 263 l 1
 517 217 l 2
 563 172 568 166 570 152 c 0
 573 130 555 106 531 101 c 0
 523 99 520 99 511 102 c 0
 500 106 497 107 437 169 c 2
 408 199 l 1
 402 195 l 2
 341 157 250 157 192 194 c 2
 182 201 l 1
 165 183 l 2
 107 122 92 108 83 104 c 0
 74 100 64 99 55 102 c 2
 29 110 13 137 22 160 c 0
 25 167 33 177 72 216 c 2
 119 262 l 1
 111 277 l 2
 101 294 96 306 91 327 c 0
 85 350 85 399 91 422 c 0
 96 442 104 463 113 477 c 2
 119 488 l 1
 73 534 l 2
 48 559 26 583 24 586 c 0
 10 614 34 650 66 650 c 0
 84 650 90 644 139 594 c 2
 182 550 l 1
 191 556 l 2
 250 593 336 593 396 557 c 2
 408 550 l 1
 452 595 l 2
 476 620 499 642 504 645 c 0
 509 648 517 650 524 650 c 2
295 500 m 0
 226 500 170 444 170 375 c 0
 170 306 226 250 295 250 c 0
 364 250 420 306 420 375 c 0
 420 444 364 500 295 500 c 0
250 375 m 4
 250 400 270 420 295 420 c 4
 320 420 340 400 340 375 c 4
 340 350 320 330 295 330 c 4
 270 330 250 350 250 375 c 4
EndSplineSet
Validated: 37
EndChar

StartChar: y
Encoding: 121 121 107
Width: 520
Flags: HW
LayerCount: 2
Fore
SplineSet
57 740 m 2
 57 740 l 2
 71 740 85 729 113 702 c 2
 144 672 l 1
 165 683 l 2
 225 713 298 711 355 680 c 2
 370 672 l 1
 402 703 l 2
 436 737 445 742 464 739 c 0
 484 736 502 714 502 694 c 0
 502 679 496 669 465 638 c 2
 434 608 l 1
 444 588 l 2
 458 561 463 537 465 502 c 0
 466 468 463 443 452 415 c 0
 428 354 372 305 314 293 c 2
 302 290 l 1
 302 212 l 2
 303 135 303 134 309 125 c 0
 315 115 327 109 343 106 c 0
 367 102 384 86 386 65 c 0
 389 37 369 15 340 15 c 0
 318 15 278 32 266 47 c 0
 261 53 260 53 247 43 c 0
 232 31 217 24 199 19 c 0
 181 14 169 14 156 19 c 1
 156 19 l 1
 144 23 133 33 130 46 c 0
 123 72 141 96 175 106 c 0
 196 112 207 121 210 133 c 0
 211 138 212 173 212 216 c 2
 212 289 l 1
 194 295 l 2
 159 305 120 330 97 358 c 0
 64 397 48 441 48 492 c 0
 48 531 57 568 74 596 c 2
 80 607 l 1
 50 638 l 2
 33 656 18 673 16 678 c 0
 6 701 16 724 40 735 c 0
 46 738 51 740 57 740 c 2
257 619 m 0
 188 619 132 563 132 494 c 0
 132 425 188 369 257 369 c 0
 326 369 382 425 382 494 c 0
 382 563 326 619 257 619 c 0
212 494 m 0
 212 519 232 539 257 539 c 0
 282 539 302 519 302 494 c 0
 302 469 282 449 257 449 c 0
 232 449 212 469 212 494 c 0
212 494 m 0
 212 469 232 449 257 449 c 0
 282 449 302 469 302 494 c 0
 302 519 282 539 257 539 c 0
 232 539 212 519 212 494 c 0
212 494 m 0
 212 519 232 539 257 539 c 0
 282 539 302 519 302 494 c 0
 302 469 282 449 257 449 c 0
 232 449 212 469 212 494 c 0
EndSplineSet
Validated: 37
EndChar

StartChar: z
Encoding: 122 122 108
Width: 450
Flags: HW
LayerCount: 2
Fore
SplineSet
122 740 m 0
 156 740 161 730 266 625 c 0
 328 564 383 507 389 499 c 0
 422 453 435 391 424 338 c 0
 415 294 398 260 370 231 c 0
 343 203 304 180 273 175 c 0
 268 174 262 174 260 173 c 0
 258 172 268 160 290 138 c 2
 323 104 l 1
 349 106 l 2
 386 108 401 101 410 81 c 0
 420 59 413 34 393 22 c 0
 382 16 380 16 338 15 c 0
 300 14 294 15 286 19 c 0
 274 25 64 233 49 254 c 0
 35 274 22 301 15 325 c 0
 11 341 10 351 10 378 c 0
 10 408 11 415 17 434 c 0
 35 494 71 538 122 564 c 0
 140 573 168 582 177 582 c 0
 183 582 180 586 150 616 c 2
 116 650 l 1
 86 650 l 2
 47 650 36 655 27 677 c 0
 19 697 25 719 42 731 c 0
 52 738 54 738 93 739 c 0
 105 739 114 740 122 740 c 0
219 502 m 0
 150 502 94 447 94 378 c 0
 94 309 150 253 219 253 c 0
 288 253 344 309 344 378 c 0
 344 447 288 502 219 502 c 0
174 378 m 0
 174 403 194 422 219 422 c 0
 244 422 264 403 264 378 c 0
 264 353 244 333 219 333 c 0
 194 333 174 353 174 378 c 0
174 378 m 0
 174 353 194 332 219 332 c 0
 244 332 264 353 264 378 c 0
 264 403 244 422 219 422 c 0
 194 422 174 403 174 378 c 0
174 378 m 0
 174 403 194 422 219 422 c 0
 244 422 264 403 264 378 c 0
 264 353 244 333 219 333 c 0
 194 333 174 353 174 378 c 0
EndSplineSet
Validated: 37
EndChar

StartChar: delta
Encoding: 948 948 112
Width: 625
Flags: HW
LayerCount: 2
Fore
SplineSet
308.186523438 800 m 1
 308.186523438 800 l 1
 322.44140625 800 339.251953125 790.245117188 346.551757812 777.736328125 c 0
 350.765625 770.517578125 356.545898438 750.009765625 363.138671875 718.89453125 c 0
 370.6953125 683.233398438 373.329101562 673.349609375 376.920898438 670.575195312 c 0
 441.108398438 647.721679688 489.244140625 593.760742188 504.646484375 527.390625 c 1
 540.149414062 527.390625 l 2
 582.643554688 527.358398438 593.31640625 523.985351562 604.526367188 507.044921875 c 0
 613.780273438 493.115234375 613.805664062 471.705078125 604.618164062 457.823242188 c 0
 594.0078125 441.790039062 585.471679688 439.077148438 541.237304688 437.685546875 c 2
 504.502929688 436.529296875 l 1
 495.43359375 397.819335938 475.030273438 362.69140625 445.900390625 335.631835938 c 1
 449.049804688 326.580078125 455.77734375 301.443359375 461.99609375 275.23828125 c 2
 494.791992188 156.00390625 l 2
 505.889648438 114.586914062 511.116210938 94.8564453125 513.1875 83.3984375 c 0
 515.524414062 77.978515625 516.708007812 72.12109375 516.708007812 66.19921875 c 2
 516.708007812 66.1982421875 l 2
 516.708007812 52.6416015625 510.272460938 38.7666015625 497.38671875 29.1396484375 c 0
 490.354492188 23.8857421875 486.075195312 23.5986328125 403.791992188 22.86328125 c 2
 217.123046875 22.3037109375 l 2
 133.724609375 22.3037109375 132.33203125 22.404296875 123.63671875 28.3115234375 c 0
 118.78125 31.6162109375 112.397460938 37.57421875 109.452148438 41.552734375 c 0
 103.55859375 49.5087890625 101.372070312 68.1884765625 104.288085938 80.3076171875 c 0
 106.231445312 91.6103515625 111.452148438 111.315429688 122.874023438 153.940429688 c 2
 155.669921875 273.173828125 l 2
 162.739257812 302.966796875 170.471679688 331.400390625 172.850585938 336.359375 c 0
 172.875 336.409179688 172.90625 336.458984375 172.9296875 336.508789062 c 0
 144.190429688 363.517578125 124.078125 398.421875 115.124023438 436.831054688 c 1
 78.470703125 437.984375 l 2
 34.236328125 439.375976562 25.7001953125 442.088867188 15.08984375 458.123046875 c 0
 5.90234375 472.004882812 5.9267578125 493.4140625 15.1806640625 507.344726562 c 0
 26.3916015625 524.284179688 37.064453125 527.657226562 79.5576171875 527.689453125 c 2
 115.158203125 527.689453125 l 1
 126.583984375 573.342773438 168.262695312 632.575195312 219.204101562 660.314453125 c 0
 227.234375 664.392578125 235.53125 667.922851562 244.038085938 670.881835938 c 0
 246.772460938 674.498046875 249.467773438 686.151367188 257.572265625 723.153320312 c 0
 263.421875 749.866210938 270.5 775.4296875 273.299804688 779.9609375 c 0
 279.669921875 790.267578125 296.61328125 800 308.186523438 800 c 1
309.854492188 607.180664062 m 0
 240.826171875 607.180664062 184.869140625 551.22265625 184.869140625 482.1953125 c 0
 184.869140625 413.16796875 240.827148438 357.209960938 309.854492188 357.2109375 c 0
 378.880859375 357.2109375 434.838867188 413.16796875 434.838867188 482.1953125 c 0
 434.838867188 551.22265625 378.880859375 607.1796875 309.854492188 607.180664062 c 0
250.65625 291.192382812 m 1
 250.65625 291.192382812 l 2
 247.538085938 278.780273438 242.854492188 261.255859375 236.02734375 235.776367188 c 2
 206.34765625 127.172851562 l 2
 204.513671875 120.568359375 203.020507812 115.21484375 201.458007812 109.609375 c 1
 201.572265625 109.606445312 201.68359375 109.604492188 201.797851562 109.6015625 c 2
 399.541015625 110.419921875 l 2
 405.953125 110.419921875 411.103515625 110.413085938 416.559570312 110.408203125 c 1
 414.905273438 116.34375 413.284179688 122.15625 411.318359375 129.236328125 c 2
 381.638671875 237.840820312 l 2
 375.236328125 261.734375 370.745117188 278.541992188 367.635742188 290.79296875 c 1
 348.8984375 285.122070312 329.430664062 282.233398438 309.854492188 282.219726562 c 0
 289.783203125 282.22265625 269.826171875 285.248046875 250.65625 291.192382812 c 1
264.864257812 482.1953125 m 0
 264.864257812 507.041015625 285.006835938 527.18359375 309.853515625 527.18359375 c 0
 334.700195312 527.18359375 354.84375 507.041015625 354.84375 482.1953125 c 0
 354.84375 457.348632812 334.700195312 437.206054688 309.853515625 437.206054688 c 0
 285.006835938 437.206054688 264.864257812 457.348632812 264.864257812 482.1953125 c 0
264.853515625 482.1953125 m 0
 264.853515625 457.342773438 285.000976562 437.1953125 309.853515625 437.1953125 c 0
 334.706054688 437.1953125 354.854492188 457.342773438 354.854492188 482.1953125 c 0
 354.854492188 507.047851562 334.706054688 527.1953125 309.853515625 527.1953125 c 0
 285.000976562 527.1953125 264.853515625 507.047851562 264.853515625 482.1953125 c 0
264.859375 482.1953125 m 0
 264.859375 507.044921875 285.00390625 527.189453125 309.853515625 527.189453125 c 0
 334.703125 527.189453125 354.848632812 507.044921875 354.848632812 482.1953125 c 0
 354.848632812 457.345703125 334.703125 437.200195312 309.853515625 437.200195312 c 0
 285.00390625 437.200195312 264.859375 457.345703125 264.859375 482.1953125 c 0
EndSplineSet
Validated: 41
EndChar

StartChar: theta
Encoding: 952 952 116
Width: 775
Flags: HW
LayerCount: 2
Fore
SplineSet
386 770 m 1
 386 770 l 1
 607 770 785 582 760 352 c 0
 743 196 627 63 476 28 c 0
 433 18 337 17 298 27 c 1
 298 27 l 1
 188 55 100 126 51 225 c 0
 -15 358 -1 507 89 626 c 0
 137 690 225 745 303 761 c 0
 331 767 359 770 386 770 c 1
386 681 m 1
 386 681 l 1
 311 681 236 652 180 594 c 0
 34 444 93 194 291 123 c 0
 307 117 325 113 332 113 c 0
 344 113 345 114 343 149 c 1
 343 149 l 1
 342 185 l 1
 312 196 l 2
 252 218 207 264 186 322 c 2
 176 351 l 1
 148 352 l 2
 122 354 120 355 114 374 c 0
 109 389 109 398 114 414 c 0
 120 434 121 435 148 437 c 0
 176 439 176 439 184 463 c 0
 201 513 252 569 299 590 c 0
 331 604 400 609 440 600 c 0
 503 586 561 532 586 466 c 2
 598 434 l 1
 619 437 l 2
 631 439 643 438 648 434 c 0
 660 425 665 390 657 370 c 0
 651 356 647 353 625 352 c 0
 609 351 598 347 596 342 c 0
 569 283 527 211 442 187 c 0
 434 185 432 177 432 147 c 2
 432 111 l 1
 455 115 l 2
 514 124 595 184 631 243 c 0
 702 360 682 511 583 603 c 0
 527 655 456 681 386 681 c 1
261 390 m 0
 261 459 317 515 386 515 c 0
 455 515 511 459 511 390 c 0
 511 321 455 265 386 265 c 0
 317 265 261 321 261 390 c 0
261 390 m 0
 261 321 317 265 386 265 c 0
 455 265 511 321 511 390 c 0
 511 459 455 515 386 515 c 0
 317 515 261 459 261 390 c 0
261 390 m 0
 261 321 317 265 386 265 c 0
 455 265 511 321 511 390 c 0
 511 459 455 515 386 515 c 0
 317 515 261 459 261 390 c 0
341 390 m 0
 341 415 361 435 386 435 c 0
 411 435 431 415 431 390 c 0
 431 365 411 345 386 345 c 0
 361 345 341 365 341 390 c 0
341 390 m 0
 341 365 361 345 386 345 c 0
 411 345 431 365 431 390 c 0
 431 415 411 435 386 435 c 0
 361 435 341 415 341 390 c 0
341 390 m 0
 341 415 361 435 386 435 c 0
 411 435 431 415 431 390 c 0
 431 365 411 345 386 345 c 0
 361 345 341 365 341 390 c 0
EndSplineSet
Validated: 37
EndChar

StartChar: lambda
Encoding: 955 955 119
Width: 650
Flags: HW
LayerCount: 2
Fore
SplineSet
274 763 m 0
 310 763 343 754 362 743 c 0
 408 721 443 686 465 640 c 0
 488 591 490 525 467 466 c 0
 459 449 441 424 428 409 c 2
 404 382 l 1
 438 358 l 2
 478 329 495 309 515 271 c 0
 527 248 530 235 532 192 c 0
 534 140 534 140 552 126 c 0
 562 118 582 106 597 99 c 0
 634 82 641 76 641 55 c 0
 641 33 620 10 600 10 c 0
 583 10 550 27 515 52 c 2
 490 70 l 1
 445 48 l 2
 420 35 384 23 360 18 c 0
 312 8 232 8 186 17 c 0
 109 32 49 67 24 110 c 0
 12 130 10 141 10 168 c 0
 10 251 51 320 135 377 c 2
 148 386 l 1
 137 394 l 2
 117 409 88 453 76 487 c 0
 41 590 90 700 191 747 c 0
 216 758 246 763 274 763 c 0
274 678 m 0
 205 678 149 622 149 553 c 0
 149 484 205 428 274 428 c 0
 343 428 399 484 399 553 c 0
 399 622 343 678 274 678 c 0
275 324 m 0
 240 324 230 322 199 307 c 0
 94 255 64 156 141 116 c 0
 185 93 269 85 339 96 c 0
 433 111 470 158 439 222 c 0
 422 256 393 283 347 307 c 0
 319 321 310 324 275 324 c 0
229 553 m 0
 229 578 249 598 274 598 c 0
 299 598 319 578 319 553 c 0
 319 528 299 508 274 508 c 0
 249 508 229 528 229 553 c 0
229 553 m 0
 229 528 249 508 274 508 c 0
 299 508 319 528 319 553 c 0
 319 578 299 598 274 598 c 0
 249 598 229 578 229 553 c 0
229 553 m 0
 229 578 249 598 274 598 c 0
 299 598 319 578 319 553 c 0
 319 528 299 508 274 508 c 0
 249 508 229 528 229 553 c 0
EndSplineSet
Validated: 37
EndChar

StartChar: xi
Encoding: 958 958 122
Width: 650
Flags: HW
LayerCount: 2
Fore
SplineSet
340 810 m 2
 340 810 l 2
 519 810 531 808 541 798 c 0
 548 791 552 781 552 767 c 0
 552 753 548 743 541 736 c 0
 531 726 524 725 445 725 c 2
 359 725 l 1
 359 656 l 1
 359 587 l 1
 386 577 l 2
 442 558 490 509 508 455 c 2
 517 428 l 1
 558 428 l 2
 608 428 619 420 619 384 c 0
 619 353 611 348 560 345 c 2
 518 342 l 1
 508 315 l 2
 485 257 441 214 386 195 c 2
 359 186 l 1
 359 127 l 1
 359 68 l 1
 442 68 l 2
 518 68 525 68 538 58 c 0
 554 45 557 16 544 -3 c 2
 535 -15 l 1
 320 -15 l 2
 122 -15 104 -14 97 -6 c 0
 78 16 84 51 107 62 c 0
 115 66 151 68 198 68 c 2
 275 68 l 1
 275 128 l 1
 275 188 l 1
 256 193 l 2
 196 210 151 261 127 318 c 1
 118 345 l 1
 75 345 l 2
 34 345 30 345 20 358 c 0
 5 377 6 399 22 415 c 0
 33 426 40 428 77 428 c 2
 119 428 l 1
 135 484 184 554 250 578 c 2
 275 587 l 1
 275 656 l 1
 275 725 l 1
 193 725 l 2
 121 725 108 727 98 735 c 0
 82 748 82 784 97 799 c 0
 107 809 115 810 253 810 c 0
 286 810 314 810 340 810 c 2
320 512 m 0
 251 512 195 456 195 387 c 0
 195 318 251 262 320 262 c 0
 389 262 445 318 445 387 c 0
 445 456 389 512 320 512 c 0
275 387 m 0
 275 412 295 432 320 432 c 0
 345 432 365 412 365 387 c 0
 365 362 345 342 320 342 c 0
 295 342 275 362 275 387 c 0
275 387 m 0
 275 362 295 342 320 342 c 0
 345 342 365 362 365 387 c 0
 365 412 345 432 320 432 c 0
 295 432 275 412 275 387 c 0
275 387 m 0
 275 412 295 432 320 432 c 0
 345 432 365 412 365 387 c 0
 365 362 345 342 320 342 c 0
 295 342 275 362 275 387 c 0
EndSplineSet
Validated: 37
EndChar

StartChar: pi
Encoding: 960 960 124
Width: 750
Flags: HW
LayerCount: 2
Fore
SplineSet
365 760 m 5
 365 760 l 5
 373 760 382 759 391 759 c 4
 490 754 556 726 630 652 c 4
 671 611 682 596 703 553 c 4
 742 473 754 389 736 304 c 4
 727 261 692 186 665 153 c 4
 628 108 543 55 481 39 c 4
 446 30 428 36 419 63 c 4
 409 95 418 107 466 126 c 4
 513 145 565 180 591 212 c 4
 677 317 668 483 569 582 c 4
 537 614 466 653 434 655 c 6
 415 657 l 5
 415 628 l 6
 415 596 414 598 462 577 c 4
 543 542 595 441 578 354 c 4
 552 220 421 147 292 195 c 4
 268 204 252 215 225 242 c 4
 171 297 144 398 184 479 c 4
 212 535 253 570 318 592 c 4
 326 595 327 601 327 627 c 4
 327 645 325 660 323 660 c 4
 308 660 251 635 222 616 c 4
 141 563 97 484 97 390 c 4
 97 278 154 186 254 136 c 4
 309 110 367 118 321 42 c 5
 305 26 261 43 239 47 c 5
 128 90 47 180 16 295 c 4
 -4 369 0 433 20 509 c 5
 51 601 119 678 207 721 c 4
 263 749 306 760 365 760 c 5
375 517 m 4
 306 517 250 461 250 392 c 4
 250 323 306 267 375 267 c 4
 444 267 500 323 500 392 c 4
 500 461 444 517 375 517 c 4
330 392 m 4
 330 417 350 437 375 437 c 4
 400 437 420 417 420 392 c 4
 420 367 400 347 375 347 c 4
 350 347 330 367 330 392 c 4
330 392 m 4
 330 367 350 347 375 347 c 4
 400 347 420 367 420 392 c 4
 420 417 400 437 375 437 c 4
 350 437 330 417 330 392 c 4
330 392 m 4
 330 417 350 437 375 437 c 4
 400 437 420 417 420 392 c 4
 420 367 400 347 375 347 c 4
 350 347 330 367 330 392 c 4
EndSplineSet
Validated: 37
EndChar

StartChar: sigma1
Encoding: 962 962 126
Width: 550
Flags: HW
LayerCount: 2
Fore
SplineSet
246 750 m 2
 246 750 l 1
 246 750 l 2
 292 750 339 740 379 721 c 2
 410 707 l 1
 426 726 l 2
 446 750 459 754 480 743 c 0
 499 733 507 720 507 701 c 0
 507 687 446 599 432 592 c 0
 417 585 393 597 386 615 c 0
 372 652 256 676 183 658 c 0
 169 655 156 649 155 645 c 0
 154 641 158 625 165 610 c 0
 175 586 178 583 188 587 c 0
 194 589 222 591 249 591 c 0
 309 591 345 575 388 535 c 0
 498 432 467 251 329 187 c 0
 291 170 233 169 185 176 c 0
 172 180 170 178 161 155 c 0
 150 126 152 124 193 115 c 0
 243 104 288 109 350 132 c 0
 373 140 382 146 384 156 c 0
 388 174 411 187 428 183 c 0
 446 178 507 91 507 70 c 0
 507 49 484 28 461 28 c 0
 447 28 440 32 427 48 c 2
 411 68 l 1
 379 54 l 2
 322 29 266 20 201 28 c 0
 159 33 96 50 65 66 c 0
 38 80 38 92 66 164 c 0
 78 195 88 222 88 225 c 0
 88 228 80 243 70 258 c 0
 26 327 15 443 82 520 c 0
 88 526 94 532 94 536 c 0
 94 540 83 571 69 606 c 0
 38 684 38 696 72 712 c 0
 108 729 177 745 227 749 c 0
 233 749 239 750 246 750 c 2
244 507 m 0
 175 507 119 451 119 382 c 0
 119 313 175 257 244 257 c 0
 313 257 369 313 369 382 c 0
 369 451 313 507 244 507 c 0
199 382 m 0
 199 407 219 427 244 427 c 0
 269 427 289 407 289 382 c 0
 289 357 269 337 244 337 c 0
 219 337 199 357 199 382 c 0
199 382 m 0
 199 357 219 337 244 337 c 0
 269 337 289 357 289 382 c 0
 289 407 269 427 244 427 c 0
 219 427 199 407 199 382 c 0
199 382 m 0
 199 407 219 427 244 427 c 0
 269 427 289 407 289 382 c 0
 289 357 269 337 244 337 c 0
 219 337 199 357 199 382 c 0
EndSplineSet
Validated: 37
EndChar

StartChar: sigma
Encoding: 963 963 127
Width: 550
Flags: HW
LayerCount: 2
Fore
SplineSet
246 750 m 2
 246 750 l 1
 246 750 l 2
 292 750 339 740 379 721 c 2
 410 707 l 1
 426 726 l 2
 446 750 459 754 480 743 c 0
 499 733 507 720 507 701 c 0
 507 687 446 599 432 592 c 0
 417 585 393 597 386 615 c 0
 372 652 256 676 183 658 c 0
 169 655 156 649 155 645 c 0
 154 641 158 625 165 610 c 0
 175 586 178 583 188 587 c 0
 194 589 222 591 249 591 c 0
 309 591 345 575 388 535 c 0
 498 432 467 251 329 187 c 0
 291 170 233 169 185 176 c 0
 172 180 170 178 161 155 c 0
 150 126 152 124 193 115 c 0
 243 104 288 109 350 132 c 0
 373 140 382 146 384 156 c 0
 388 174 411 187 428 183 c 0
 446 178 507 91 507 70 c 0
 507 49 484 28 461 28 c 0
 447 28 440 32 427 48 c 2
 411 68 l 1
 379 54 l 2
 322 29 266 20 201 28 c 0
 159 33 96 50 65 66 c 0
 38 80 38 92 66 164 c 0
 78 195 88 222 88 225 c 0
 88 228 80 243 70 258 c 0
 26 327 15 443 82 520 c 0
 88 526 94 532 94 536 c 0
 94 540 83 571 69 606 c 0
 38 684 38 696 72 712 c 0
 108 729 177 745 227 749 c 0
 233 749 239 750 246 750 c 2
244 507 m 0
 175 507 119 451 119 382 c 0
 119 313 175 257 244 257 c 0
 313 257 369 313 369 382 c 0
 369 451 313 507 244 507 c 0
199 382 m 0
 199 407 219 427 244 427 c 0
 269 427 289 407 289 382 c 0
 289 357 269 337 244 337 c 0
 219 337 199 357 199 382 c 0
199 382 m 0
 199 357 219 337 244 337 c 0
 269 337 289 357 289 382 c 0
 289 407 269 427 244 427 c 0
 219 427 199 407 199 382 c 0
199 382 m 0
 199 407 219 427 244 427 c 0
 269 427 289 407 289 382 c 0
 289 357 269 337 244 337 c 0
 219 337 199 357 199 382 c 0
EndSplineSet
Validated: 37
EndChar

StartChar: phi
Encoding: 966 966 130
Width: 775
Flags: HW
LayerCount: 2
Fore
SplineSet
384 860 m 1
 384 860 l 1
 422 860 428 851 428 794 c 2
 428 748 l 1
 468 739 l 2
 636 703 758 550 758 376 c 0
 758 268 725 188 650 112 c 0
 589 51 530 19 443 2 c 2
 428 -1 l 1
 428 -49 l 2
 428 -88 426 -99 418 -106 c 0
 404 -119 366 -118 352 -104 c 1
 352 -104 l 1
 343 -95 341 -86 341 -48 c 2
 341 -2 l 1
 301 7 l 2
 134 44 11 197 10 369 c 0
 9 472 42 557 110 631 c 0
 159 684 252 734 316 743 c 2
 341 747 l 1
 341 791 l 2
 341 849 348 860 384 860 c 1
341 653 m 1
 318 648 l 2
 276 639 219 606 186 573 c 0
 99 486 78 356 133 244 c 0
 151 208 200 155 232 136 c 0
 264 117 314 96 329 96 c 0
 340 96 341 99 341 132 c 0
 341 159 339 167 333 167 c 0
 316 167 267 194 240 218 c 0
 222 235 205 256 194 279 c 0
 168 332 168 401 194 465 c 1
 221 519 267 558 332 580 c 0
 340 583 341 590 341 618 c 2
 341 653 l 1
428 650 m 1
 428 617 l 2
 428 590 430 583 438 580 c 0
 501 559 554 514 578 461 c 0
 607 398 600 315 560 255 c 0
 538 221 488 182 453 172 c 2
 428 165 l 1
 428 130 l 1
 428 95 l 1
 448 99 l 2
 459 101 487 111 509 122 c 0
 626 179 690 315 658 440 c 0
 644 494 624 530 582 572 c 0
 540 614 491 641 450 647 c 2
 428 650 l 1
384 497 m 0
 315 497 259 441 259 372 c 0
 259 303 315 248 384 248 c 0
 453 248 509 303 509 372 c 0
 509 441 453 497 384 497 c 0
339 372 m 0
 339 397 359 417 384 417 c 0
 409 417 429 397 429 372 c 0
 429 347 409 328 384 328 c 0
 359 328 339 347 339 372 c 0
339 372 m 0
 339 347 359 328 384 328 c 0
 409 328 429 347 429 372 c 0
 429 397 409 418 384 418 c 0
 359 418 339 397 339 372 c 0
339 372 m 0
 339 397 359 417 384 417 c 0
 409 417 429 397 429 372 c 0
 429 347 409 328 384 328 c 0
 359 328 339 347 339 372 c 0
EndSplineSet
Validated: 37
EndChar

StartChar: psi
Encoding: 968 968 132
Width: 725
Flags: HW
LayerCount: 2
Fore
SplineSet
356 860 m 2
 356 860 l 2
 370 860 383 856 393 849 c 2
 407 838 l 1
 407 718 l 2
 407 625 409 597 414 597 c 0
 430 597 488 565 508 544 c 0
 520 532 532 522 535 522 c 0
 546 522 585 569 598 597 c 0
 606 614 613 642 615 663 c 0
 620 711 628 722 662 723 c 0
 695 724 708 709 708 672 c 0
 708 589 664 501 598 454 c 2
 572 436 l 1
 571 392 l 2
 570 340 559 305 529 265 c 0
 507 235 464 204 430 193 c 2
 407 186 l 1
 407 105 l 2
 407 13 405 17 457 -6 c 0
 479 -16 490 -24 494 -35 c 0
 502 -56 495 -72 477 -82 c 0
 447 -98 412 -90 380 -60 c 2
 366 -47 l 1
 352 -61 l 2
 325 -88 284 -98 257 -84 c 1
 257 -84 l 1
 237 -74 228 -51 237 -33 c 0
 244 -18 251 -13 292 5 c 2
 313 14 l 1
 315 101 l 1
 316 187 l 1
 293 194 l 2
 242 208 187 263 165 318 c 0
 157 339 153 360 153 391 c 0
 153 434 152 435 136 443 c 0
 90 465 40 531 21 591 c 0
 15 612 10 640 10 664 c 0
 10 710 19 723 53 723 c 0
 84 723 96 709 102 663 c 0
 109 604 132 558 169 529 c 2
 188 515 l 1
 213 541 l 2
 228 557 253 574 277 585 c 2
 316 603 l 1
 316 723 l 2
 316 841 316 844 328 852 c 0
 335 857 345 860 356 860 c 2
364 521 m 0
 295 521 239 465 239 396 c 0
 239 327 295 271 364 271 c 0
 433 271 489 327 489 396 c 0
 489 465 433 521 364 521 c 0
319 396 m 0
 319 421 339 441 364 441 c 0
 389 441 409 421 409 396 c 0
 409 371 389 351 364 351 c 0
 339 351 319 371 319 396 c 0
319 396 m 0
 319 371 339 351 364 351 c 0
 389 351 409 371 409 396 c 0
 409 421 389 441 364 441 c 0
 339 441 319 421 319 396 c 0
319 396 m 0
 319 421 339 441 364 441 c 0
 389 441 409 421 409 396 c 0
 409 371 389 351 364 351 c 0
 339 351 319 371 319 396 c 0
EndSplineSet
Validated: 37
EndChar

StartChar: omega
Encoding: 969 969 133
Width: 850
Flags: HW
LayerCount: 2
Fore
SplineSet
275 626 m 0
 365 668 460 671 559 623 c 0
 667 571 754 469 776 368 c 0
 784 332 780 245 769 204 c 2
 761 176 l 1
 784 176 l 2
 814 176 827 160 822 126 c 0
 817 90 807 85 735 85 c 0
 677 85 672 86 660 98 c 0
 643 115 644 126 666 181 c 0
 702 271 703 339 669 410 c 0
 633 486 552 553 477 569 c 2
 460 573 l 1
 460 536 l 1
 460 500 l 1
 483 493 l 2
 514 485 560 452 584 420 c 0
 655 327 630 180 531 118 c 0
 489 92 454 83 403 86 c 0
 347 89 302 109 265 149 c 0
 187 232 187 355 265 439 c 0
 287 463 345 497 362 497 c 0
 367 497 369 507 369 535 c 2
 369 573 l 1
 351 570 l 2
 341 568 316 557 294 547 c 0
 246 524 185 467 164 425 c 0
 122 342 123 281 168 172 c 0
 200 95 190 86 82 89 c 2
 82 89 l 2
 19 91 10 97 10 136 c 0
 10 164 22 176 50 176 c 0
 67 176 69 177 66 185 c 0
 64 190 59 213 54 235 c 0
 22 387 116 552 275 626 c 0
292 293 m 0
 292 362 348 418 417 418 c 0
 486 418 542 362 542 293 c 0
 542 224 486 168 417 168 c 0
 348 168 292 224 292 293 c 0
292 293 m 0
 292 224 348 168 417 168 c 0
 486 168 542 224 542 293 c 0
 542 362 486 418 417 418 c 0
 348 418 292 362 292 293 c 0
292 293 m 0
 292 224 348 168 417 168 c 0
 486 168 542 224 542 293 c 0
 542 362 486 418 417 418 c 0
 348 418 292 362 292 293 c 0
372 293 m 0
 372 318 392 338 417 338 c 0
 442 338 462 318 462 293 c 0
 462 268 442 248 417 248 c 0
 392 248 372 268 372 293 c 0
372 293 m 0
 372 268 392 248 417 248 c 0
 442 248 462 268 462 293 c 0
 462 318 442 338 417 338 c 0
 392 338 372 318 372 293 c 0
372 293 m 0
 372 318 392 338 417 338 c 0
 442 338 462 318 462 293 c 0
 462 268 442 248 417 248 c 0
 392 248 372 268 372 293 c 0
EndSplineSet
Validated: 37
EndChar

StartChar: uni0431
Encoding: 1073 1073 135
Width: 500
Flags: HW
LayerCount: 2
Fore
SplineSet
254 750 m 0
 445 750 440 751 453 725 c 0
 467 699 458 661 432 633 c 0
 399 597 322 571 269 577 c 0
 239 580 192 595 162 611 c 0
 150 617 139 623 137 624 c 0
 135 625 134 585 134 536 c 0
 134 487 134 446 135 446 c 0
 136 446 148 452 162 459 c 0
 201 479 245 486 286 480 c 0
 473 453 535 213 384 102 c 0
 347 75 319 65 270 63 c 0
 224 61 202 65 167 83 c 2
 144 95 l 1
 109 60 l 2
 78 29 72 25 59 25 c 0
 51 25 39 29 32 33 c 0
 17 42 7 62 11 78 c 0
 13 84 29 104 47 123 c 2
 81 158 l 1
 68 184 l 2
 61 199 53 221 51 235 c 0
 45 267 44 712 50 727 c 0
 59 750 64 750 254 750 c 0
259 397 m 0
 190 397 134 341 134 272 c 0
 134 203 190 147 259 147 c 0
 328 147 384 203 384 272 c 0
 384 341 328 397 259 397 c 0
214 272 m 0
 214 297 234 317 259 317 c 0
 284 317 304 297 304 272 c 0
 304 247 284 227 259 227 c 0
 234 227 214 247 214 272 c 0
EndSplineSet
Validated: 33
EndChar

StartChar: uni0433
Encoding: 1075 1075 137
Width: 550
Flags: HW
LayerCount: 2
Fore
SplineSet
83 169 m 1
 138 107 l 1
 101 66 l 1
 58 25 42 21 16 47 c 0
 -9 72 -5 85 36 128 c 1
 83 169 l 1
289 452 m 1
 195 447 l 1
 204 450 199 482 199 597 c 0
 199 712 200 723 209 731 c 0
 218 739 237 740 369 740 c 0
 519 740 519 740 531 728 c 0
 539 719 543 709 543 691 c 0
 543 639 506 591 453 576 c 0
 399 560 333 573 304 605 c 0
 298 611 292 617 290 617 c 2
 289 452 l 1
243 463 m 0
 353 463 443 373 443 263 c 0
 443 153 353 63 243 63 c 0
 133 63 43 153 43 263 c 0
 43 373 133 463 243 463 c 0
243 388 m 0
 174 388 118 332 118 263 c 0
 118 194 174 138 243 138 c 0
 312 138 368 194 368 263 c 0
 368 332 312 388 243 388 c 0
198 263 m 0
 198 288 218 308 243 308 c 0
 268 308 288 288 288 263 c 0
 288 238 268 218 243 218 c 0
 218 218 198 238 198 263 c 0
198 263 m 0
 198 238 218 218 243 218 c 0
 268 218 288 238 288 263 c 0
 288 288 268 308 243 308 c 0
 218 308 198 288 198 263 c 0
198 263 m 0
 198 288 218 308 243 308 c 0
 268 308 288 288 288 263 c 0
 288 238 268 218 243 218 c 0
 218 218 198 238 198 263 c 0
EndSplineSet
Validated: 37
EndChar

StartChar: uni0434
Encoding: 1076 1076 138
Width: 525
Flags: HW
LayerCount: 2
Fore
SplineSet
266 700 m 0
 318 700 371 680 412 639 c 0
 427 624 444 603 450 592 c 0
 473 548 473 545 473 285 c 2
 473 46 l 1
 463 36 l 2
 450 24 419 21 403 30 c 0
 389 38 383 51 383 81 c 0
 383 94 383 106 382 106 c 0
 381 106 373 101 365 95 c 0
 318 63 224 69 183 105 c 0
 179 108 176 110 175 109 c 0
 174 108 167 95 160 80 c 0
 149 57 143 52 129 45 c 0
 89 26 -2 41 7 65 c 0
 8 69 20 78 34 86 c 0
 48 94 64 105 69 113 c 0
 90 143 110 223 119 301 c 2
 124 344 l 1
 107 366 l 2
 42 448 47 563 120 637 c 0
 161 679 214 700 266 700 c 0
266 620 m 0
 197 620 141 564 141 495 c 0
 141 426 197 370 266 370 c 0
 335 370 391 426 391 495 c 0
 391 564 335 620 266 620 c 0
381 321 m 2
 380 321 l 0
 330 296 295 287 252 290 c 0
 236 291 219 294 216 295 c 0
 211 297 209 290 203 252 c 0
 199 223 198 204 200 198 c 0
 205 186 224 172 244 167 c 0
 266 161 326 165 346 173 c 0
 355 177 367 185 373 192 c 0
 383 204 383 206 383 263 c 0
 383 294 383 320 381 321 c 2
 381 321 l 2
221 495 m 0
 221 520 241 540 266 540 c 0
 291 540 311 520 311 495 c 0
 311 470 291 450 266 450 c 0
 241 450 221 470 221 495 c 0
221 495 m 0
 221 470 241 450 266 450 c 0
 291 450 311 470 311 495 c 0
 311 520 291 540 266 540 c 0
 241 540 221 520 221 495 c 0
221 495 m 0
 221 520 241 540 266 540 c 0
 291 540 311 520 311 495 c 0
 311 470 291 450 266 450 c 0
 241 450 221 470 221 495 c 0
EndSplineSet
Validated: 37
EndChar

StartChar: uni0436
Encoding: 1078 1078 140
Width: 750
Flags: HW
LayerCount: 2
Fore
SplineSet
371 860 m 0
 385 860 399 856 407 846 c 0
 416 835 417 834 417 718 c 2
 417 601 l 1
 443 592 l 2
 476 580 496 567 521 542 c 2
 542 521 l 1
 564 539 l 2
 600 567 624 611 624 650 c 0
 624 703 653 731 691 715 c 0
 714 705 720 688 717 647 c 0
 711 569 672 503 603 456 c 2
 581 441 l 1
 580 397 l 1
 580 354 l 1
 604 338 l 2
 674 291 718 210 718 130 c 0
 718 92 704 75 669 75 c 0
 641 75 624 101 624 142 c 0
 624 185 593 238 555 262 c 2
 542 270 l 1
 517 246 l 2
 493 223 454 200 428 194 c 2
 417 191 l 1
 417 73 l 1
 417 -45 l 1
 406 -55 l 2
 397 -63 391 -65 373 -65 c 0
 354 -65 348 -63 338 -53 c 2
 326 -41 l 1
 326 75 l 1
 326 191 l 1
 310 196 l 2
 280 206 256 220 229 245 c 2
 202 271 l 1
 185 259 l 2
 146 232 126 195 120 143 c 0
 114 91 103 75 70 75 c 0
 45 75 28 93 25 120 c 0
 22 148 34 204 49 235 c 0
 69 277 117 328 158 351 c 0
 162 353 164 365 165 396 c 2
 167 438 l 1
 143 454 l 2
 73 502 33 568 26 649 c 0
 23 688 29 705 52 715 c 0
 84 728 113 709 117 672 c 0
 126 597 140 568 187 534 c 2
 203 522 l 1
 229 546 l 2
 254 570 279 586 310 596 c 2
 326 601 l 1
 326 714 l 2
 326 776 328 831 330 837 c 0
 335 851 353 860 371 860 c 0
372 522 m 0
 303 522 247 467 247 398 c 0
 247 329 303 273 372 273 c 0
 441 273 497 329 497 398 c 0
 497 467 441 522 372 522 c 0
327 398 m 0
 327 423 347 442 372 442 c 0
 397 442 417 423 417 398 c 0
 417 373 397 353 372 353 c 0
 347 353 327 373 327 398 c 0
327 398 m 0
 327 373 347 353 372 353 c 0
 397 353 417 373 417 398 c 0
 417 423 397 442 372 442 c 0
 347 442 327 423 327 398 c 0
327 398 m 0
 327 423 347 442 372 442 c 0
 397 442 417 423 417 398 c 0
 417 373 397 353 372 353 c 0
 347 353 327 373 327 398 c 0
EndSplineSet
Validated: 37
EndChar

StartChar: uni0437
Encoding: 1079 1079 141
Width: 450
Flags: HW
LayerCount: 2
Fore
SplineSet
160 740 m 0
 198 740 237 736 265 727 c 0
 321 709 354 682 377 635 c 0
 391 605 401 553 397 522 c 0
 395 501 396 495 409 468 c 0
 440 404 440 339 409 279 c 0
 399 260 398 253 397 217 c 0
 396 114 346 49 250 24 c 0
 209 14 124 12 86 21 c 0
 40 32 17 49 11 74 c 0
 5 100 27 128 53 128 c 0
 67 128 104 118 115 111 c 0
 124 105 172 103 196 107 c 0
 231 114 271 134 283 152 c 0
 297 172 296 178 282 173 c 0
 276 171 258 168 242 167 c 0
 141 159 50 224 24 324 c 0
 -3 430 62 542 170 574 c 0
 198 582 252 583 278 575 c 0
 295 570 297 570 297 576 c 0
 297 600 258 636 222 647 c 0
 194 655 135 653 106 642 c 0
 57 624 54 623 38 631 c 0
 -6 652 6 708 58 726 c 0
 84 735 122 740 160 740 c 0
221 502 m 0
 152 502 96 447 96 378 c 0
 96 309 152 253 221 253 c 0
 290 253 346 309 346 378 c 0
 346 447 290 502 221 502 c 0
176 378 m 0
 176 403 196 422 221 422 c 0
 246 422 266 403 266 378 c 0
 266 353 246 333 221 333 c 0
 196 333 176 353 176 378 c 0
176 378 m 0
 176 353 196 332 221 332 c 0
 246 332 266 353 266 378 c 0
 266 403 246 422 221 422 c 0
 196 422 176 403 176 378 c 0
176 378 m 0
 176 403 196 422 221 422 c 0
 246 422 266 403 266 378 c 0
 266 353 246 333 221 333 c 0
 196 333 176 353 176 378 c 0
EndSplineSet
Validated: 37
EndChar

StartChar: uni0438
Encoding: 1080 1080 142
Width: 750
Flags: HW
LayerCount: 2
Fore
SplineSet
50 700 m 0
 58 700 66 699 73 695 c 0
 100 681 99 692 120 441 c 0
 131 314 140 208 140 205 c 0
 140 202 151 211 166 225 c 2
 192 250 l 1
 181 274 l 2
 143 355 160 444 225 509 c 0
 269 553 311 569 372 569 c 0
 409 569 449 559 473 544 c 2
 485 537 l 1
 551 599 l 2
 587 633 620 663 626 665 c 0
 632 667 642 667 650 666 c 0
 679 661 676 675 705 356 c 0
 719 196 731 62 731 57 c 0
 731 34 697 18 669 28 c 0
 639 39 641 31 619 285 c 0
 608 411 599 517 598 519 c 0
 597 521 586 512 572 498 c 2
 548 473 l 1
 557 454 l 2
 572 424 578 396 578 362 c 0
 578 252 498 165 386 153 c 0
 354 150 309 159 276 176 c 2
 251 188 l 1
 186 124 l 2
 148 87 116 60 110 58 c 0
 96 55 82 57 70 67 c 0
 60 75 64 43 29 435 c 0
 18 563 9 672 10 676 c 0
 15 691 32 700 50 700 c 0
370 487 m 0
 301 487 245 431 245 362 c 0
 245 293 301 238 370 238 c 0
 439 238 495 293 495 362 c 0
 495 431 439 487 370 487 c 0
325 362 m 0
 325 387 345 407 370 407 c 0
 395 407 415 387 415 362 c 0
 415 337 395 318 370 318 c 0
 345 318 325 337 325 362 c 0
325 362 m 0
 325 337 345 318 370 318 c 0
 395 318 415 337 415 362 c 0
 415 387 395 408 370 408 c 0
 345 408 325 387 325 362 c 0
325 362 m 0
 325 387 345 407 370 407 c 0
 395 407 415 387 415 362 c 0
 415 337 395 318 370 318 c 0
 345 318 325 337 325 362 c 0
EndSplineSet
Validated: 37
EndChar

StartChar: uni0439
Encoding: 1081 1081 143
Width: 750
Flags: HW
LayerCount: 2
Fore
SplineSet
516 730 m 0
 522 730 525 727 532 724 c 0
 562 709 570 677 549 657 c 0
 530 639 475 616 430 609 c 0
 415 607 414 606 414 589 c 0
 414 572 415 571 432 566 c 0
 442 563 458 557 468 551 c 2
 486 541 l 1
 507 561 l 2
 518 572 547 599 571 622 c 0
 615 665 631 675 647 671 c 0
 663 667 673 660 676 653 c 0
 679 646 700 429 707 335 c 0
 709 309 715 236 721 174 c 0
 727 102 730 59 728 53 c 0
 720 31 690 24 663 37 c 0
 656 41 646 48 643 54 c 0
 640 60 634 108 629 172 c 0
 624 231 618 297 616 319 c 0
 611 364 600 511 600 523 c 0
 600 529 594 525 574 505 c 2
 547 478 l 1
 557 459 l 2
 598 379 581 281 516 217 c 0
 452 155 359 140 279 179 c 2
 253 192 l 1
 188 129 l 2
 135 79 119 66 107 64 c 0
 88 61 69 69 64 83 c 0
 60 93 10 637 10 668 c 0
 10 675 14 686 19 692 c 0
 27 701 33 703 48 703 c 0
 70 703 90 694 97 681 c 0
 100 676 110 569 121 442 c 0
 132 315 142 210 143 209 c 0
 144 208 156 219 169 232 c 2
 193 256 l 1
 182 280 l 2
 168 310 163 335 163 365 c 0
 163 453 218 533 300 563 c 0
 324 572 324 571 324 588 c 2
 324 605 l 1
 286 614 l 2
 242 625 200 645 188 660 c 0
 178 673 176 700 185 713 c 0
 188 718 200 724 209 727 c 0
 224 731 230 730 264 717 c 0
 336 689 386 688 451 711 c 0
 491 725 506 730 516 730 c 0
369 494 m 0
 300 494 244 438 244 369 c 0
 244 300 300 244 369 244 c 0
 438 244 494 300 494 369 c 0
 494 438 438 494 369 494 c 0
324 369 m 0
 324 394 344 414 369 414 c 0
 394 414 414 394 414 369 c 0
 414 344 394 324 369 324 c 0
 344 324 324 344 324 369 c 0
324 369 m 0
 324 344 344 324 369 324 c 0
 394 324 414 344 414 369 c 0
 414 394 394 414 369 414 c 0
 344 414 324 394 324 369 c 0
324 369 m 0
 324 394 344 414 369 414 c 0
 394 414 414 394 414 369 c 0
 414 344 394 324 369 324 c 0
 344 324 324 344 324 369 c 0
EndSplineSet
Validated: 37
EndChar

StartChar: uni043A
Encoding: 1082 1082 144
Width: 650
Flags: HW
LayerCount: 2
Fore
SplineSet
206 750 m 0
 218 750 229 747 237 741 c 2
 248 733 l 1
 248 666 l 1
 248 600 l 1
 271 592 l 2
 284 588 304 578 317 570 c 0
 341 555 376 518 384 502 c 0
 390 489 392 491 404 511 c 0
 419 536 463 575 491 589 c 0
 561 623 660 579 626 529 c 0
 613 510 600 507 569 512 c 0
 536 517 516 511 489 486 c 0
 471 469 439 420 439 406 c 0
 439 403 445 396 452 389 c 0
 459 382 486 353 513 325 c 0
 557 278 562 271 562 258 c 0
 562 236 540 216 516 216 c 0
 499 216 497 218 450 265 c 0
 423 292 400 314 399 314 c 0
 398 314 390 302 381 289 c 0
 353 246 310 212 265 199 c 2
 248 194 l 1
 248 130 l 2
 248 71 247 66 240 59 c 0
 230 50 197 47 184 53 c 0
 169 61 167 75 167 136 c 2
 167 194 l 1
 143 201 l 2
 52 229 -7 321 1 420 c 0
 3 443 11 468 24 490 c 0
 46 537 96 579 149 595 c 2
 167 600 l 1
 167 665 l 2
 167 728 167 730 177 740 c 0
 184 747 194 750 206 750 c 0
205 525 m 0
 136 525 80 469 80 400 c 0
 80 331 136 275 205 275 c 0
 274 275 330 331 330 400 c 0
 330 469 274 525 205 525 c 0
160 400 m 0
 160 425 180 445 205 445 c 0
 230 445 250 425 250 400 c 0
 250 375 230 355 205 355 c 0
 180 355 160 375 160 400 c 0
160 400 m 0
 160 375 180 355 205 355 c 0
 230 355 250 375 250 400 c 0
 250 425 230 445 205 445 c 0
 180 445 160 425 160 400 c 0
160 400 m 0
 160 425 180 445 205 445 c 0
 230 445 250 425 250 400 c 0
 250 375 230 355 205 355 c 0
 180 355 160 375 160 400 c 0
EndSplineSet
Validated: 37
EndChar

StartChar: uni043B
Encoding: 1083 1083 145
Width: 550
Flags: HW
LayerCount: 2
Fore
SplineSet
278 740 m 0
 282 740 288 740 293 740 c 0
 388 738 462 684 492 596 c 0
 501 569 501 564 502 329 c 2
 504 90 l 1
 493 78 l 2
 484 68 481 66 460 66 c 0
 439 66 436 67 427 77 c 2
 417 89 l 1
 417 225 l 2
 417 300 416 360 415 360 c 0
 414 360 402 355 388 348 c 0
 359 333 311 322 284 324 c 2
 265 325 l 1
 263 245 l 2
 261 150 257 135 227 105 c 0
 197 76 175 66 126 65 c 0
 99 64 79 66 68 70 c 0
 33 81 12 105 12 133 c 0
 12 141 16 150 20 155 c 0
 33 170 43 171 71 163 c 0
 125 147 141 148 161 167 c 2
 173 178 l 1
 173 270 l 1
 173 361 l 1
 149 383 l 2
 101 428 79 492 88 564 c 0
 96 628 139 689 199 719 c 0
 233 736 247 740 278 740 c 0
294 656 m 0
 225 656 169 600 169 531 c 0
 169 462 225 406 294 406 c 0
 363 406 419 462 419 531 c 0
 419 600 363 656 294 656 c 0
249 531 m 0
 249 556 269 576 294 576 c 0
 319 576 339 556 339 531 c 0
 339 506 319 486 294 486 c 0
 269 486 249 506 249 531 c 0
249 531 m 0
 249 506 269 486 294 486 c 0
 319 486 339 506 339 531 c 0
 339 556 319 576 294 576 c 0
 269 576 249 556 249 531 c 0
249 531 m 0
 249 556 269 576 294 576 c 0
 319 576 339 556 339 531 c 0
 339 506 319 486 294 486 c 0
 269 486 249 506 249 531 c 0
EndSplineSet
Validated: 37
EndChar

StartChar: uni0443
Encoding: 1091 1091 153
Width: 525
Flags: HW
LayerCount: 2
Fore
SplineSet
60 649 m 0
 70 649 80 642 109 614 c 2
 145 578 l 1
 164 589 l 2
 212 614 273 618 328 600 c 0
 346 594 364 586 369 583 c 0
 377 577 379 579 412 612 c 0
 446 646 449 647 467 647 c 0
 484 647 487 645 500 631 c 0
 524 605 522 595 477 552 c 2
 439 516 l 1
 447 501 l 2
 471 457 480 391 466 345 c 0
 455 309 417 236 385 193 c 0
 319 103 193 -11 85 32 c 1
 40 62 62 118 118 114 c 0
 160 111 232 150 246 187 c 0
 247 189 218 189 207 192 c 0
 127 212 62 286 50 369 c 0
 44 414 54 468 75 504 c 2
 83 517 l 1
 49 550 l 2
 30 568 14 588 12 593 c 0
 3 615 32 649 60 649 c 0
263 520 m 0
 194 520 138 464 138 395 c 0
 138 326 194 270 263 270 c 0
 332 270 388 326 388 395 c 0
 388 464 332 520 263 520 c 0
218 395 m 0
 218 420 238 440 263 440 c 0
 288 440 308 420 308 395 c 0
 308 370 288 350 263 350 c 0
 238 350 218 370 218 395 c 0
218 395 m 0
 218 370 238 350 263 350 c 0
 288 350 308 370 308 395 c 0
 308 420 288 440 263 440 c 0
 238 440 218 420 218 395 c 0
218 395 m 0
 218 420 238 440 263 440 c 0
 288 440 308 420 308 395 c 0
 308 370 288 350 263 350 c 0
 238 350 218 370 218 395 c 0
EndSplineSet
Validated: 37
EndChar

StartChar: uni0446
Encoding: 1094 1094 156
Width: 775
Flags: HW
LayerCount: 2
Fore
SplineSet
300 750 m 1
 300 750 l 1
 323 750 334 737 334 710 c 0
 334 692 333 687 322 678 c 0
 315 672 306 667 303 667 c 0
 300 667 281 659 260 648 c 0
 206 621 158 573 133 523 c 0
 95 445 93 355 129 282 c 0
 163 213 236 153 309 134 c 2
 330 128 l 1
 330 160 l 1
 330 192 l 1
 306 201 l 2
 164 253 123 434 229 542 c 0
 274 588 331 609 397 604 c 0
 428 602 438 599 467 584 c 0
 574 530 615 410 563 302 c 0
 542 258 490 214 443 199 c 2
 421 192 l 1
 421 159 l 1
 421 127 l 1
 434 130 l 2
 515 147 588 202 622 272 c 0
 645 320 653 352 653 404 c 0
 653 453 646 486 627 523 c 0
 596 584 534 637 466 659 c 0
 424 673 412 693 425 729 c 0
 433 753 456 756 502 740 c 0
 595 708 670 644 709 562 c 0
 738 502 744 475 744 401 c 0
 744 354 743 333 737 311 c 0
 728 278 695 207 677 183 c 2
 665 167 l 1
 696 133 l 2
 727 98 732 85 722 66 c 0
 716 54 691 41 676 41 c 0
 664 41 658 45 633 72 c 2
 604 103 l 1
 569 81 l 2
 527 55 471 35 421 29 c 0
 382 24 365 24 326 29 c 0
 211 44 101 123 48 227 c 0
 17 288 4 356 12 424 c 0
 28 562 95 663 209 720 c 0
 249 740 279 750 300 750 c 1
377 522 m 0
 308 522 252 466 252 397 c 0
 252 328 308 272 377 272 c 0
 446 272 502 328 502 397 c 0
 502 466 446 522 377 522 c 0
332 397 m 0
 332 422 352 442 377 442 c 0
 402 442 422 422 422 397 c 0
 422 372 402 352 377 352 c 0
 352 352 332 372 332 397 c 0
332 397 m 0
 332 372 352 352 377 352 c 0
 402 352 422 372 422 397 c 0
 422 422 402 442 377 442 c 0
 352 442 332 422 332 397 c 0
332 397 m 0
 332 422 352 442 377 442 c 0
 402 442 422 422 422 397 c 0
 422 372 402 352 377 352 c 0
 352 352 332 372 332 397 c 0
EndSplineSet
Validated: 37
EndChar

StartChar: uni0447
Encoding: 1095 1095 157
Width: 550
Flags: HW
LayerCount: 2
Fore
SplineSet
448 830 m 0
 476 830 489 822 495 801 c 0
 498 790 499 654 498 376 c 2
 497 5 l 1
 486 -7 l 2
 474 -19 445 -24 429 -17 c 0
 407 -8 406 -5 406 146 c 0
 406 223 405 260 404 260 c 0
 403 260 397 256 389 251 c 0
 348 226 272 218 220 234 c 0
 147 257 92 319 76 396 c 0
 68 433 71 469 85 509 c 2
 95 539 l 1
 70 565 l 2
 31 606 22 652 20 730 c 0
 18 800 24 833 80 824 c 0
 89 823 97 821 102 815 c 0
 109 807 110 802 110 739 c 0
 107 702 106 675 126 645 c 0
 153 606 151 606 188 625 c 0
 249 655 313 657 372 629 c 0
 387 622 399 617 400 617 c 0
 401 617 402 656 402 705 c 2
 402 804 l 1
 414 817 l 2
 424 829 428 830 448 830 c 0
286 562 m 0
 217 562 161 506 161 437 c 0
 161 368 217 312 286 312 c 0
 355 312 411 368 411 437 c 0
 411 506 355 562 286 562 c 0
241 437 m 0
 241 462 261 482 286 482 c 0
 311 482 331 462 331 437 c 0
 331 412 311 392 286 392 c 0
 261 392 241 412 241 437 c 0
241 437 m 0
 241 412 261 392 286 392 c 0
 311 392 331 412 331 437 c 0
 331 462 311 482 286 482 c 0
 261 482 241 462 241 437 c 0
241 437 m 0
 241 462 261 482 286 482 c 0
 311 482 331 462 331 437 c 0
 331 412 311 392 286 392 c 0
 261 392 241 412 241 437 c 0
EndSplineSet
Validated: 37
EndChar

StartChar: uni0448
Encoding: 1096 1096 158
Width: 775
Flags: HW
LayerCount: 2
Fore
SplineSet
419 705 m 4
 419 723 433 745 446 748 c 4
 461 752 484 747 518 733 c 4
 570 712 604 689 646 647 c 4
 681 612 689 602 707 564 c 4
 738 500 742 476 742 397 c 4
 742 336 742 328 731 296 c 4
 708 227 677 178 627 129 c 4
 570 73 498 39 419 29 c 4
 380 24 367 24 330 29 c 5
 330 29 l 5
 208 45 100 120 46 227 c 4
 38 242 27 271 21 291 c 4
 12 322 10 335 10 383 c 4
 10 446 17 486 36 535 c 4
 68 616 129 681 211 722 c 4
 250 741 279 750 299 750 c 4
 322 750 333 737 333 711 c 5
 324.612304688 661.440429688 293.696289062 666.544921875 258 648 c 4
 205 621 156 574 131 523 c 4
 93 445 91 355 127 282 c 4
 160 214 234 152 306 134 c 6
 326 129 l 5
 328 160 l 6
 329 177 328 191 326 193 c 4
 324 195 315 198 306 201 c 4
 267 212 215 256 192 299 c 4
 170 339 162 399 172 444 c 4
 187 509 239 568 302 591 c 4
 313 595 323 600 325 601 c 4
 327 602 328 626 329 649 c 4
 332.909179688 741.008789062 423.283203125 729.751953125 420 647 c 5
 421 601 l 5
 442 594 l 6
 551 557 610 436 572 327 c 4
 551 267 502 219 441 199 c 6
 419 192 l 5
 419 159 l 5
 419 127 l 5
 433 130 l 6
 440 132 458 137 472 142 c 4
 532 164 590 213 618 266 c 4
 649 324 660 406 646 465 c 4
 626 550 557.978515625 623.944335938 467 659 c 4
 433.377929688 671.024414062 422.965820312 673.271484375 419 705 c 4
376 523 m 4
 307 523 251 467 251 398 c 4
 251 329 307 273 376 273 c 4
 445 273 501 329 501 398 c 4
 501 467 445 523 376 523 c 4
331 398 m 4
 331 423 351 443 376 443 c 4
 401 443 421 423 421 398 c 4
 421 373 401 353 376 353 c 4
 351 353 331 373 331 398 c 4
331 398 m 4
 331 423 351 443 376 443 c 4
 401 443 421 423 421 398 c 4
 421 373 401 353 376 353 c 4
 351 353 331 373 331 398 c 4
331 398 m 4
 331 373 351 353 376 353 c 4
 401 353 421 373 421 398 c 4
 421 423 401 443 376 443 c 4
 351 443 331 423 331 398 c 4
EndSplineSet
Validated: 37
EndChar

StartChar: uni0449
Encoding: 1097 1097 159
Width: 775
Flags: HW
LayerCount: 2
Fore
SplineSet
421 704 m 0
 421 720 430 740 441 746 c 0
 455 753 476 750 512 736 c 0
 568 714 604 691 648 647 c 0
 683 612 690 602 709 564 c 0
 739 502 745 473 745 395 c 0
 745 337 744 328 733 296 c 0
 720 255 703 220 681 188 c 2
 666 165 l 1
 696 131 l 2
 727 96 733 83 723 64 c 0
 717 52 692 39 677 39 c 0
 665 39 658 44 633 71 c 2
 604 102 l 1
 585 89 l 2
 556 69 501 45 466 36 c 0
 429 26 363 22 327 27 c 0
 227 41 128 103 70 187 c 0
 52 214 27 268 18 302 c 0
 7 344 8 429 20 478 c 0
 37 547 64 599 109 646 c 0
 162 702 250 750 299 750 c 0
 322 750 334 736 334 710 c 0
 330.618164062 679.327148438 313.44921875 671.099609375 287 661 c 0
 196 625 128 547 109 457 c 0
 100 412 102 348 116 309 c 0
 144 229 216 161 301 134 c 0
 313 130 325 126 327 126 c 0
 329 126 330 141 330 159 c 2
 330 192 l 1
 315 197 l 2
 249 218 196 273 176 341 c 0
 169 366 167 416 173 444 c 0
 188 510 248 576 307 593 c 0
 318 596 327 601 328 603 c 0
 329 605 331.840820312 619.993164062 331 642 c 0
 328.549804688 706.100585938 378.381835938 734.588867188 411 694 c 0
 421.827148438 680.52734375 421.383789062 659.180664062 422 637 c 2
 423 601 l 1
 444 594 l 2
 540 562 601 460 583 362 c 0
 569 284 512 218 439 196 c 2
 421 191 l 1
 421 158 l 1
 421 126 l 1
 434 128 l 2
 441 130 456 134 466 137 c 0
 546 163 616 233 640 311 c 0
 687 461 618 600 467 660 c 0
 435.52734375 671.096679688 425.067382812 674.170898438 421 704 c 0
377 522 m 0
 308 522 253 466 253 397 c 0
 253 328 308 272 377 272 c 0
 446 272 502 328 502 397 c 0
 502 466 446 522 377 522 c 0
333 397 m 0
 333 422 352 442 377 442 c 0
 402 442 422 422 422 397 c 0
 422 372 402 352 377 352 c 0
 352 352 333 372 333 397 c 0
332 397 m 0
 332 422 352 442 377 442 c 0
 402 442 422 422 422 397 c 0
 422 372 402 352 377 352 c 0
 352 352 332 372 332 397 c 0
332 397 m 0
 332 372 352 352 377 352 c 0
 402 352 422 372 422 397 c 0
 422 422 402 442 377 442 c 0
 352 442 332 422 332 397 c 0
EndSplineSet
Validated: 37
EndChar

StartChar: uni044C
Encoding: 1100 1100 160
Width: 500
Flags: HW
LayerCount: 2
Fore
SplineSet
97 770 m 4
 110 770 123 765 130 756 c 4
 138 746 138 740 138 607 c 4
 138 531 140 468 141 468 c 4
 142 468 153 473 165 479 c 4
 200 496 235 503 273 500 c 4
 454 487 536 271 408 145 c 4
 393 130 372 113 360 107 c 4
 301 76 223 75 164 105 c 6
 145 115 l 5
 109 81 l 6
 69 42 57 38 33 54 c 4
 18 64 10 77 10 93 c 4
 10 102 17 112 46 141 c 6
 82 178 l 5
 71 202 l 6
 65 215 58 235 56 245 c 4
 53 257 51 353 51 504 c 4
 51 770 50 758 79 767 c 4
 85 769 91 770 97 770 c 4
259 418 m 4
 190 418 134 362 134 293 c 4
 134 224 190 168 259 168 c 4
 328 168 384 224 384 293 c 4
 384 362 328 418 259 418 c 4
214 293 m 4
 214 318 234 338 259 338 c 4
 284 338 304 318 304 293 c 4
 304 268 284 248 259 248 c 4
 234 248 214 268 214 293 c 4
214 293 m 4
 214 268 234 248 259 248 c 4
 284 248 304 268 304 293 c 4
 304 318 284 338 259 338 c 4
 234 338 214 318 214 293 c 4
214 293 m 4
 214 318 234 338 259 338 c 4
 284 338 304 318 304 293 c 4
 304 268 284 248 259 248 c 4
 234 248 214 268 214 293 c 4
EndSplineSet
Validated: 37
EndChar

StartChar: uni044E
Encoding: 1102 1102 161
Width: 1025
Flags: HW
LayerCount: 2
Fore
SplineSet
617 770 m 0
 671 770 688 768 715 761 c 0
 893 712 1013 533 991 354 c 0
 970 187 846 55 682 26 c 0
 648 20 595 18 570 22 c 0
 514 31 453 54 412 81 c 0
 374 106 325 155 302 191 c 0
 270 241 259 270 244 340 c 2
 242 352 l 1
 185 352 l 1
 128 352 l 1
 128 209 l 1
 128 66 l 1
 117 59 l 2
 110 55 98 51 84 51 c 0
 66 51 60 53 51 61 c 2
 40 71 l 1
 40 386 l 1
 40 701 l 1
 50 713 l 2
 59 723 63 724 85 724 c 0
 104 724 113 722 120 716 c 0
 129 708 128 705 128 574 c 2
 128 440 l 1
 185 440 l 1
 242 440 l 1
 244 452 l 2
 276 611 367 714 514 759 c 0
 547 769 558 770 617 770 c 0
611 680 m 0
 593 680 575 678 556 674 c 0
 499 662 440 626 398 577 c 0
 376 551 346 489 339 457 c 0
 332 424 333 359 341 329 c 0
 353 280 379 235 416 198 c 0
 454 160 485 141 530 126 c 0
 576 111 574 111 574 152 c 2
 574 187 l 1
 552 194 l 2
 505 208 451 253 428 300 c 0
 411 333 406 360 406 399 c 0
 406 439 411 459 430 496 c 0
 484 599 611 638 717 584 c 0
 799 542 844 446 825 356 c 0
 809 279 758 219 686 195 c 2
 665 188 l 1
 664 152 l 1
 663 115 l 1
 676 118 l 2
 780 140 866 223 893 327 c 0
 904 367 903 430 891 472 c 0
 856 599 739 682 611 680 c 0
621 520 m 0
 552 520 496 464 496 395 c 0
 496 326 552 270 621 270 c 0
 690 270 746 326 746 395 c 0
 746 464 690 520 621 520 c 0
576 395 m 0
 576 420 596 440 621 440 c 0
 646 440 666 420 666 395 c 0
 666 370 646 350 621 350 c 0
 596 350 576 370 576 395 c 0
576 395 m 0
 576 370 596 350 621 350 c 0
 646 350 666 370 666 395 c 0
 666 420 646 440 621 440 c 0
 596 440 576 420 576 395 c 0
576 395 m 0
 576 420 596 440 621 440 c 0
 646 440 666 420 666 395 c 0
 666 370 646 350 621 350 c 0
 596 350 576 370 576 395 c 0
EndSplineSet
Validated: 37
EndChar

StartChar: uni044F
Encoding: 1103 1103 162
Width: 525
Flags: HW
LayerCount: 2
Fore
SplineSet
280 700 m 2
 308 700 318 699 334 695 c 0
 407 677 464 621 485 547 c 2
 490 529 l 1
 491 298 l 2
 492 121 491 64 489 56 c 0
 486 44 472 30 461 27 c 0
 435 19 410 33 403 57 c 0
 401 64 400 103 401 194 c 0
 401 264 402 322 402 322 c 0
 402 322 395 318 388 314 c 0
 357 294 323 285 280 285 c 0
 244 285 224 291 192 307 c 2
 170 318 l 1
 128 276 l 2
 105 253 84 233 82 232 c 0
 61 220 30 230 20 253 c 0
 9 277 15 290 67 341 c 2
 108 381 l 1
 97 402 l 2
 79 436 75 452 75 495 c 0
 75 537 77 549 93 582 c 0
 105 608 119 626 138 644 c 0
 157 662 169 670 192 681 c 0
 223 696 241 700 280 700 c 2
 280 700 l 2
279 617 m 0
 210 617 154 561 154 492 c 0
 154 423 210 367 279 367 c 0
 348 367 404 423 404 492 c 0
 404 561 348 617 279 617 c 0
324 492 m 0
 324 517 304 537 279 537 c 0
 254 537 234 517 234 492 c 0
 234 467 254 447 279 447 c 0
 304 447 324 467 324 492 c 0
324 492 m 0
 324 467 304 447 279 447 c 0
 254 447 234 467 234 492 c 0
 234 517 254 537 279 537 c 0
 304 537 324 517 324 492 c 0
324 492 m 0
 324 467 304 447 279 447 c 0
 254 447 234 467 234 492 c 0
 234 517 254 537 279 537 c 0
 304 537 324 517 324 492 c 0
EndSplineSet
Validated: 37
EndChar

StartChar: .notdef
Encoding: 65536 -1 163
Width: 450
Flags: W
HStem: 175 75<152.772 291.228> 375 45<197 247>
VStem: 22 75<306.416 375> 177 90<336.481 400> 347 75<306.416 375>
CounterMasks: 1 38
LayerCount: 2
Fore
SplineSet
222 575 m 4
 332 575 422 485 422 375 c 4
 422 265 332 175 222 175 c 4
 112 175 22 265 22 375 c 4
 22 485 112 575 222 575 c 4
347 375 m 5
 97 375 l 5
 97 306 153 250 222 250 c 4
 291 250 347 306 347 375 c 5
177 375 m 4
 177 400 197 420 222 420 c 4
 247 420 267 400 267 375 c 4
 267 350 247 330 222 330 c 4
 197 330 177 350 177 375 c 4
EndSplineSet
Validated: 5
EndChar

StartChar: dotlessi
Encoding: 305 305 276
Width: 450
Flags: HW
LayerCount: 2
Fore
SplineSet
222 800 m 2
 222 800 l 2
 236 800 249 794 259 781 c 0
 264 774 264 769 265 687 c 2
 266 601 l 1
 283 596 l 2
 348 578 404 521 423 451 c 0
 429 427 429 373 423 349 c 0
 404 279 348 221 283 203 c 2
 266 199 l 1
 266 114 l 2
 266 31 266 30 260 21 c 0
 257 16 251 9 247 6 c 0
 238 -1 214 -2 203 3 c 1
 203 3 l 1
 192 8 181 21 179 33 c 0
 178 38 178 68 179 99 c 0
 180 130 180 165 179 177 c 2
 177 199 l 1
 155 206 l 2
 124 216 103 229 78 254 c 0
 18 313 -1 396 29 475 c 0
 50 531 101 579 156 595 c 2
 178 601 l 1
 178 683 l 2
 178 762 178 764 184 776 c 0
 192 792 207 800 222 800 c 2
221 525 m 0
 152 525 96 469 96 400 c 0
 96 331 152 275 221 275 c 0
 290 275 346 331 346 400 c 0
 346 469 290 525 221 525 c 0
176 400 m 0
 176 425 196 445 221 445 c 0
 246 445 266 425 266 400 c 0
 266 375 246 355 221 355 c 0
 196 355 176 375 176 400 c 0
176 400 m 0
 176 375 196 355 221 355 c 0
 246 355 266 375 266 400 c 0
 266 425 246 445 221 445 c 0
 196 445 176 425 176 400 c 0
176 400 m 0
 176 425 196 445 221 445 c 0
 246 445 266 425 266 400 c 0
 266 375 246 355 221 355 c 0
 196 355 176 375 176 400 c 0
EndSplineSet
Validated: 37
EndChar

StartChar: uni0237
Encoding: 567 567 277
Width: 550
Flags: HW
LayerCount: 2
Fore
SplineSet
476 770 m 0
 478 770 481 769 483 769 c 0
 497 767 511 756 517 744 c 0
 528 719 522 705 482 667 c 2
 453 639 l 1
 464 619 l 2
 498 555 494 471 454 411 c 0
 429 373 386 342 342 329 c 2
 323 323 l 1
 322 228 l 2
 321 146 320 132 316 120 c 0
 292 47 220 7 142 24 c 0
 88 36 44 79 33 134 c 0
 26 169 30 191 47 203 c 0
 54 208 59 209 75 209 c 0
 90 209 95 208 101 204 c 0
 113 195 117 187 120 169 c 0
 123 145 126 137 136 126 c 0
 148 114 160 109 177 109 c 0
 194 109 209 116 219 129 c 0
 232 145 233 149 234 239 c 2
 235 322 l 1
 228 324 l 2
 191 332 159 348 134 372 c 0
 89 414 70 462 70 527 c 0
 70 601 102 660 163 701 c 0
 225 742 308 746 375 710 c 2
 390 702 l 1
 422 733 l 2
 452 762 462 770 476 770 c 0
278 652 m 0
 209 652 153 596 153 527 c 0
 153 458 209 402 278 402 c 0
 347 402 403 458 403 527 c 0
 403 596 347 652 278 652 c 0
233 527 m 0
 233 552 253 572 278 572 c 0
 303 572 323 552 323 527 c 0
 323 502 303 482 278 482 c 0
 253 482 233 502 233 527 c 0
233 527 m 0
 233 502 253 482 278 482 c 0
 303 482 323 502 323 527 c 0
 323 552 303 572 278 572 c 0
 253 572 233 552 233 527 c 0
233 527 m 0
 233 552 253 572 278 572 c 0
 303 572 323 552 323 527 c 0
 323 502 303 482 278 482 c 0
 253 482 233 502 233 527 c 0
EndSplineSet
Validated: 37
EndChar

StartChar: comma
Encoding: 44 44 281
Width: 450
Flags: HW
LayerCount: 2
Fore
SplineSet
115 135 m 5
 104 154 97 176 97 200 c 5
 97 176 104 154 115 135 c 5
396 103 m 5
 358 2 179 -140 69 -96 c 5
 50 -84 34 -56 50 -33 c 4
 73 2 139 -23 172 7 c 4
 186 17 211 49 211 56 c 5
 396 103 l 5
267 200 m 4
 267 175 247 155 222 155 c 4
 197 155 177 175 177 200 c 4
 177 225 197 245 222 245 c 4
 247 245 267 225 267 200 c 4
267 200 m 4
 267 175 247 155 222 155 c 4
 197 155 177 175 177 200 c 4
 177 225 197 245 222 245 c 4
 247 245 267 225 267 200 c 4
222 400 m 4
 332 400 422 310 422 200 c 4
 422 90 332 0 222 0 c 4
 112 0 22 90 22 200 c 4
 22 310 112 400 222 400 c 4
347 200 m 5
 97 200 l 5
 97 131 153 75 222 75 c 4
 291 75 347 131 347 200 c 5
267 200 m 4
 267 175 247 155 222 155 c 4
 197 155 177 175 177 200 c 4
 177 225 197 245 222 245 c 4
 247 245 267 225 267 200 c 4
347 200 m 5
 347 131 291 75 222 75 c 5
 222 75 l 5
 291 75 347 131 347 200 c 5
 97 200 l 5
 347 200 l 5
EndSplineSet
Validated: 37
EndChar

StartChar: Oslash
Encoding: 216 216 284
Width: 800
Flags: HW
HStem: 350 90<346.481 423.519> 678 92<273.235 491.533>
VStem: 340 90<117.579 186 356.481 433.519> 668 92<282.258 501.853>
LayerCount: 2
Fore
SplineSet
395.514648438 770 m 0
 469.86328125 770.044921875 543.64453125 748.368164062 607.169921875 706.099609375 c 0
 633.868164062 688.3359375 675.803710938 648.163085938 696.665039062 620.3671875 c 0
 746.587890625 553.848632812 773.772460938 463.7265625 769.641601562 378.440429688 c 0
 764.90234375 280.612304688 728.249023438 196.965820312 660.350585938 129.03125 c 0
 606.30078125 74.955078125 544.032226562 41.6552734375 468.426757812 26.396484375 c 0
 435.118164062 19.673828125 374.124023438 17.90625 342.544921875 22.7470703125 c 0
 258.017578125 35.7060546875 187.762695312 70.7666015625 129.211914062 129.2109375 c 0
 74.3896484375 183.934570312 41.3125 245.951171875 25.982421875 322.76171875 c 0
 18.4765625 360.366210938 17.9580078125 424.045898438 24.8564453125 461.1015625 c 0
 49.4892578125 593.426757812 138.604492188 700.041992188 263.16796875 746.21484375 c 0
 306.091796875 762.125976562 350.905273438 769.97265625 395.514648438 770 c 0
404.591796875 677.706054688 m 0
 375.741210938 677.923828125 342.151367188 674.907226562 321.735351562 669.538085938 c 0
 276.05859375 657.524414062 238.833007812 636.211914062 201.532226562 600.715820312 c 0
 159.3125 560.538085938 133.379882812 517.202148438 119.100585938 462.96484375 c 0
 80.1220703125 314.9140625 172.697265625 158.494140625 322.530273438 119.241210938 c 0
 351.979492188 111.526367188 349.586914062 108.797851562 349.586914062 150.083984375 c 2
 349.586914062 185.995117188 l 1
 333.931640625 190.341796875 l 2
 266.700195312 209.010742188 209.639648438 264.219726562 189.657226562 329.936523438 c 0
 179.323242188 363.920898438 178.047851562 413.14453125 186.5390625 450.29296875 c 0
 202.7890625 521.384765625 261.37890625 581.294921875 334.076171875 601.157226562 c 0
 368.90234375 610.671875 424.827148438 610.158203125 458.215820312 600.016601562 c 0
 523.357421875 580.229492188 576.247070312 529.068359375 597.553710938 465.229492188 c 0
 619.362304688 399.884765625 611.4921875 332.462890625 575.784179688 278.750976562 c 0
 547.157226562 235.690429688 499.1015625 201.39453125 450.408203125 189.2734375 c 2
 439.763671875 186.623046875 l 1
 439.763671875 150.3984375 l 2
 439.763671875 121.13671875 440.435546875 114.173828125 443.24609375 114.173828125 c 0
 452.901367188 114.173828125 498.435546875 128.12890625 516.682617188 136.6796875 c 0
 590.858398438 171.438476562 648.208984375 239.642578125 669.025390625 317.84765625 c 0
 676.685546875 346.6328125 680.118164062 387.262695312 677.504882812 418.239257812 c 0
 666.799804688 545.118164062 564.787109375 655.221679688 439.315429688 675.323242188 c 0
 429.841796875 676.840820312 417.706054688 677.607421875 404.591796875 677.706054688 c 0
395.026367188 519.984375 m 0
 326.045898438 519.984375 270.041992188 463.981445312 270.041992188 395 c 0
 270.041992188 326.01953125 326.045898438 270.014648438 395.026367188 270.014648438 c 0
 464.0078125 270.014648438 520.01171875 326.01953125 520.01171875 395 c 0
 520.010742188 463.981445312 464.0078125 519.984375 395.026367188 519.984375 c 0
350.038085938 395 m 0
 350.038085938 419.846679688 370.1796875 439.98828125 395.026367188 439.98828125 c 0
 419.872070312 439.98828125 440.015625 419.846679688 440.015625 395 c 0
 440.015625 370.153320312 419.872070312 350.010742188 395.026367188 350.010742188 c 0
 370.1796875 350.010742188 350.038085938 370.153320312 350.038085938 395 c 0
350.02734375 395 m 0
 350.02734375 370.147460938 370.173828125 350 395.026367188 350 c 0
 419.87890625 350 440.02734375 370.147460938 440.02734375 395 c 0
 440.02734375 419.852539062 419.87890625 440 395.026367188 440 c 0
 370.173828125 440 350.02734375 419.852539062 350.02734375 395 c 0
350.032226562 395 m 0
 350.032226562 419.849609375 370.176757812 439.994140625 395.026367188 439.994140625 c 0
 419.875976562 439.994140625 440.021484375 419.849609375 440.021484375 395 c 0
 440.021484375 370.150390625 419.875976562 350.005859375 395.026367188 350.005859375 c 0
 370.176757812 350.005859375 350.032226562 370.150390625 350.032226562 395 c 0
111.639648438 172.62890625 m 1
 184.205078125 121.735351562 l 1
 125.233398438 62.763671875 81.84375 19.5166015625 71.5185546875 17.544921875 c 0
 65.748046875 16.44921875 57.021484375 16.1484375 52.1259765625 16.8779296875 c 0
 40.888671875 18.5517578125 23.11328125 33.6591796875 18.765625 45.2275390625 c 1
 18.7841796875 45.2109375 l 1
 14.4560546875 56.7294921875 16.4130859375 73.9345703125 23.177734375 83.82421875 c 0
 26.283203125 88.36328125 89.373046875 151.609375 111.639648438 172.62890625 c 1
760.473632812 760.483398438 m 1
 760.473632812 760.482421875 l 1
 770.059570312 750.896484375 775.3203125 736.534179688 773.015625 720.615234375 c 0
 771.758789062 711.927734375 737.185546875 676.94921875 679.522460938 618.24609375 c 1
 614.604492188 677.153320312 l 1
 670.771484375 733.3203125 704.494140625 766.798828125 716.810546875 770.860351562 c 0
 733.463867188 776.348632812 749.609375 771.346679688 760.473632812 760.483398438 c 1
EndSplineSet
Validated: 37
EndChar

StartChar: oslash
Encoding: 248 248 285
Width: 800
Flags: W
HStem: 350 90<346.481 423.519> 678 92<273.235 491.533>
VStem: 340 90<117.579 186 356.481 433.519> 668 92<282.258 501.853>
LayerCount: 2
Fore
SplineSet
395.514648438 770 m 0
 469.86328125 770.044921875 543.64453125 748.368164062 607.169921875 706.099609375 c 0
 633.868164062 688.3359375 675.803710938 648.163085938 696.665039062 620.3671875 c 0
 746.587890625 553.848632812 773.772460938 463.7265625 769.641601562 378.440429688 c 0
 764.90234375 280.612304688 728.249023438 196.965820312 660.350585938 129.03125 c 0
 606.30078125 74.955078125 544.032226562 41.6552734375 468.426757812 26.396484375 c 0
 435.118164062 19.673828125 374.124023438 17.90625 342.544921875 22.7470703125 c 0
 258.017578125 35.7060546875 187.762695312 70.7666015625 129.211914062 129.2109375 c 0
 74.3896484375 183.934570312 41.3125 245.951171875 25.982421875 322.76171875 c 0
 18.4765625 360.366210938 17.9580078125 424.045898438 24.8564453125 461.1015625 c 0
 49.4892578125 593.426757812 138.604492188 700.041992188 263.16796875 746.21484375 c 0
 306.091796875 762.125976562 350.905273438 769.97265625 395.514648438 770 c 0
404.591796875 677.706054688 m 0
 375.741210938 677.923828125 342.151367188 674.907226562 321.735351562 669.538085938 c 0
 276.05859375 657.524414062 238.833007812 636.211914062 201.532226562 600.715820312 c 0
 159.3125 560.538085938 133.379882812 517.202148438 119.100585938 462.96484375 c 0
 80.1220703125 314.9140625 172.697265625 158.494140625 322.530273438 119.241210938 c 0
 351.979492188 111.526367188 349.586914062 108.797851562 349.586914062 150.083984375 c 2
 349.586914062 185.995117188 l 1
 333.931640625 190.341796875 l 2
 266.700195312 209.010742188 209.639648438 264.219726562 189.657226562 329.936523438 c 0
 179.323242188 363.920898438 178.047851562 413.14453125 186.5390625 450.29296875 c 0
 202.7890625 521.384765625 261.37890625 581.294921875 334.076171875 601.157226562 c 0
 368.90234375 610.671875 424.827148438 610.158203125 458.215820312 600.016601562 c 0
 523.357421875 580.229492188 576.247070312 529.068359375 597.553710938 465.229492188 c 0
 619.362304688 399.884765625 611.4921875 332.462890625 575.784179688 278.750976562 c 0
 547.157226562 235.690429688 499.1015625 201.39453125 450.408203125 189.2734375 c 2
 439.763671875 186.623046875 l 1
 439.763671875 150.3984375 l 2
 439.763671875 121.13671875 440.435546875 114.173828125 443.24609375 114.173828125 c 0
 452.901367188 114.173828125 498.435546875 128.12890625 516.682617188 136.6796875 c 0
 590.858398438 171.438476562 648.208984375 239.642578125 669.025390625 317.84765625 c 0
 676.685546875 346.6328125 680.118164062 387.262695312 677.504882812 418.239257812 c 0
 666.799804688 545.118164062 564.787109375 655.221679688 439.315429688 675.323242188 c 0
 429.841796875 676.840820312 417.706054688 677.607421875 404.591796875 677.706054688 c 0
395.026367188 519.984375 m 0
 326.045898438 519.984375 270.041992188 463.981445312 270.041992188 395 c 0
 270.041992188 326.01953125 326.045898438 270.014648438 395.026367188 270.014648438 c 0
 464.0078125 270.014648438 520.01171875 326.01953125 520.01171875 395 c 0
 520.010742188 463.981445312 464.0078125 519.984375 395.026367188 519.984375 c 0
350.038085938 395 m 0
 350.038085938 419.846679688 370.1796875 439.98828125 395.026367188 439.98828125 c 0
 419.872070312 439.98828125 440.015625 419.846679688 440.015625 395 c 0
 440.015625 370.153320312 419.872070312 350.010742188 395.026367188 350.010742188 c 0
 370.1796875 350.010742188 350.038085938 370.153320312 350.038085938 395 c 0
350.02734375 395 m 0
 350.02734375 370.147460938 370.173828125 350 395.026367188 350 c 0
 419.87890625 350 440.02734375 370.147460938 440.02734375 395 c 0
 440.02734375 419.852539062 419.87890625 440 395.026367188 440 c 0
 370.173828125 440 350.02734375 419.852539062 350.02734375 395 c 0
350.032226562 395 m 0
 350.032226562 419.849609375 370.176757812 439.994140625 395.026367188 439.994140625 c 0
 419.875976562 439.994140625 440.021484375 419.849609375 440.021484375 395 c 0
 440.021484375 370.150390625 419.875976562 350.005859375 395.026367188 350.005859375 c 0
 370.176757812 350.005859375 350.032226562 370.150390625 350.032226562 395 c 0
111.639648438 172.62890625 m 1
 184.205078125 121.735351562 l 1
 125.233398438 62.763671875 81.84375 19.5166015625 71.5185546875 17.544921875 c 0
 65.748046875 16.44921875 57.021484375 16.1484375 52.1259765625 16.8779296875 c 0
 40.888671875 18.5517578125 23.11328125 33.6591796875 18.765625 45.2275390625 c 1
 18.7841796875 45.2109375 l 1
 14.4560546875 56.7294921875 16.4130859375 73.9345703125 23.177734375 83.82421875 c 0
 26.283203125 88.36328125 89.373046875 151.609375 111.639648438 172.62890625 c 1
760.473632812 760.483398438 m 1
 760.473632812 760.482421875 l 1
 770.059570312 750.896484375 775.3203125 736.534179688 773.015625 720.615234375 c 0
 771.758789062 711.927734375 737.185546875 676.94921875 679.522460938 618.24609375 c 1
 614.604492188 677.153320312 l 1
 670.771484375 733.3203125 704.494140625 766.798828125 716.810546875 770.860351562 c 0
 733.463867188 776.348632812 749.609375 771.346679688 760.473632812 760.483398438 c 1
EndSplineSet
Validated: 37
EndChar

StartChar: dollar
Encoding: 36 36 286
Width: 700
Flags: HW
LayerCount: 2
Fore
SplineSet
340 820 m 1
 340 820 l 1
 355 820 369 814 378 801 c 0
 384 792 384 788 384 738 c 0
 384 691 384 685 379 677 c 0
 368 659 333 650 318 662 c 0
 309 669 299 668 270 661 c 0
 214 647 159 611 124 566 c 2
 115 554 l 1
 139 538 l 2
 152 529 164 522 166 521 c 0
 168 520 176 528 184 537 c 0
 208 566 241 589 281 600 c 0
 313 609 368 609 398 600 c 0
 469 578 519 528 543 456 c 0
 549 439 550 430 550 395 c 2
 550 354 l 1
 575 338 l 2
 651 288 666 275 669 257 c 0
 672 242 668 229 645 195 c 0
 591 113 508 58 410 38 c 2
 385 33 l 1
 384 15 l 2
 382 -12 366 -28 342 -30 c 0
 331 -31 327 -29 318 -24 c 2
 318 -24 l 1
 299 -13 296 -5 295 55 c 0
 295 104 295 108 301 116 c 0
 309 127 322 134 338 136 c 0
 350 137 353 136 362 130 c 0
 375 121 385 121 422 133 c 0
 467 147 500 169 537 207 c 0
 551 222 563 235 562 237 c 0
 561 239 550 247 537 256 c 2
 513 272 l 1
 493 251 l 2
 458 213 417 192 363 185 c 0
 306 178 248 196 203 234 c 0
 181 253 165 274 151 303 c 0
 134 338 130 354 130 398 c 2
 130 437 l 1
 78 473 l 2
 49 493 22 512 18 517 c 0
 3 536 8 555 37 598 c 0
 90 678 182 738 275 754 c 2
 295 757 l 1
 296 774 l 2
 298 795 305 808 320 815 c 0
 327 818 333 820 340 820 c 2
 340 820 l 1
215 395 m 1
 215 326 271 270 340 270 c 0
 409 270 465 326 465 395 c 1
 215 395 l 1
295 395 m 0
 295 420 315 440 340 440 c 0
 365 440 385 420 385 395 c 0
 385 370 365 350 340 350 c 0
 315 350 295 370 295 395 c 0
295 395 m 0
 295 420 315 440 340 440 c 0
 365 440 385 420 385 395 c 0
 385 370 365 350 340 350 c 0
 315 350 295 370 295 395 c 0
295 395 m 0
 295 370 315 350 340 350 c 0
 365 350 385 370 385 395 c 0
 385 420 365 440 340 440 c 0
 315 440 295 420 295 395 c 0
EndSplineSet
Validated: 37
EndChar

StartChar: at
Encoding: 64 64 287
Width: 750
Flags: HW
LayerCount: 2
Fore
SplineSet
374 800 m 1
 421 800 443 797 485 784 c 0
 578 755 657 683 697 595 c 0
 725 533 739 444 723 423 c 0
 709 405 709 405 636 404 c 2
 570 403 l 1
 565 388 l 2
 550 335 502 281 450 260 c 0
 412 245 360 242 320 252 c 0
 267 266 216 307 192 356 c 0
 164 413 164 474 191 531 c 2
 203 556 l 1
 181 579 l 2
 169 592 158 603 157 603 c 0
 155 604 142 584 132 565 c 0
 80 462 104 332 191 251 c 0
 236 209 288 187 352 181 c 0
 388 178 399 174 408 161 c 0
 413 154 414 147 416 113 c 0
 418 65 417 33 411 22 c 0
 402 4 375 -5 357 3 c 1
 357 3 l 1
 347 8 338 17 334 27 c 0
 332 31 332 48 332 65 c 0
 332 95 332 96 326 97 c 0
 323 98 309 101 296 103 c 0
 227 116 164 150 114 203 c 0
 68 252 40 303 26 369 c 0
 18 406 18 479 25 513 c 0
 48 624 114 711 211 761 c 0
 266 790 310 800 374 800 c 1
 374 800 l 1
371 715 m 1
 348 715 325 711 302 705 c 0
 281 699 247 684 228 672 c 2
 216 665 l 1
 241 641 l 1
 265 617 l 1
 284 627 l 2
 337 654 410 655 461 629 c 0
 513 603 551 557 566 505 c 2
 570 489 l 1
 603 489 l 2
 629 489 636 489 636 492 c 0
 636 501 622 545 612 565 c 0
 565 660 471 716 371 715 c 1
 371 715 l 1
246 445 m 1
 246 376 302 320 371 320 c 0
 440 320 496 376 496 445 c 1
 246 445 l 1
326 445 m 0
 326 470 346 490 371 490 c 0
 396 490 416 470 416 445 c 0
 416 420 396 400 371 400 c 0
 346 400 326 420 326 445 c 0
326 445 m 0
 326 470 346 490 371 490 c 0
 396 490 416 470 416 445 c 0
 416 420 396 400 371 400 c 0
 346 400 326 420 326 445 c 0
326 445 m 0
 326 420 346 400 371 400 c 0
 396 400 416 420 416 445 c 0
 416 470 396 490 371 490 c 0
 346 490 326 470 326 445 c 0
EndSplineSet
Validated: 37
EndChar

StartChar: bar
Encoding: 124 124 288
Width: 450
Flags: HW
LayerCount: 2
Fore
SplineSet
222 800 m 1
 222 800 l 1
 236 800 249 794 259 781 c 0
 264 774 264 769 265 687 c 2
 266 601 l 1
 283 596 l 2
 348 578 404 521 423 451 c 0
 429 427 429 373 423 349 c 0
 404 279 348 221 283 203 c 2
 266 199 l 1
 266 114 l 2
 266 31 266 30 260 21 c 0
 257 16 251 9 247 6 c 0
 238 -1 214 -2 203 3 c 1
 203 3 l 1
 192 8 181 21 179 33 c 0
 178 38 178 68 179 99 c 0
 180 130 180 165 179 177 c 2
 177 199 l 1
 155 206 l 2
 124 216 103 229 78 254 c 0
 18 313 -1 396 29 475 c 0
 50 531 101 579 156 595 c 2
 178 601 l 1
 178 683 l 2
 178 762 178 764 184 776 c 0
 192 792 207 800 222 800 c 1
 222 800 l 1
96 400 m 1
 96 331 152 275 221 275 c 0
 290 275 346 331 346 400 c 1
 96 400 l 1
176 400 m 0
 176 425 196 445 221 445 c 0
 246 445 266 425 266 400 c 0
 266 375 246 355 221 355 c 0
 196 355 176 375 176 400 c 0
176 400 m 0
 176 425 196 445 221 445 c 0
 246 445 266 425 266 400 c 0
 266 375 246 355 221 355 c 0
 196 355 176 375 176 400 c 0
176 400 m 0
 176 375 196 355 221 355 c 0
 246 355 266 375 266 400 c 0
 266 425 246 445 221 445 c 0
 196 445 176 425 176 400 c 0
EndSplineSet
Validated: 37
EndChar

StartChar: slash
Encoding: 47 47 289
Width: 500
Flags: HW
LayerCount: 2
Fore
SplineSet
420 752 m 0
 428 752 435 750 442 746 c 0
 454 739 462 727 464 711 c 0
 465 702 464 699 423 627 c 2
 380 552 l 1
 393 539 l 2
 441 491 460 413 441 343 c 0
 435 319 407 272 390 255 c 0
 339 204 261 182 196 199 c 2
 179 203 l 1
 137 130 l 2
 95 58 94 57 85 52 c 0
 80 49 71 47 66 46 c 0
 55 45 34 55 27 65 c 1
 27 65 l 1
 20 75 17 93 21 104 c 0
 23 109 38 134 54 160 c 0
 70 186 88 217 93 228 c 2
 102 248 l 1
 87 265 l 2
 65 289 53 312 44 346 c 0
 22 428 47 507 113 561 c 0
 159 599 227 615 283 601 c 2
 304 596 l 1
 345 667 l 2
 385 736 386 738 397 745 c 0
 404 750 412 752 420 752 c 0
367 400 m 1
 117 400 l 1
 117 331 173 275 242 275 c 0
 311 275 367 331 367 400 c 1
197 400 m 0
 197 425 217 445 242 445 c 0
 267 445 287 425 287 400 c 0
 287 375 267 355 242 355 c 0
 217 355 197 375 197 400 c 0
EndSplineSet
Validated: 37
EndChar

StartChar: backslash
Encoding: 92 92 290
Width: 500
Flags: HW
LayerCount: 2
Fore
SplineSet
62 753 m 0
 69 753 77 752 84 749 c 0
 92 746 94 742 136 671 c 2
 180 596 l 1
 197 601 l 2
 262 618 339 596 390 545 c 0
 407 528 435 481 441 457 c 0
 460 387 441 309 393 261 c 2
 380 248 l 1
 423 175 l 2
 465 103 465 101 464 91 c 0
 464 85 462 77 460 72 c 0
 455 62 436 48 424 47 c 1
 424 47 l 1
 412 46 396 52 388 61 c 0
 384 65 370 91 355 118 c 0
 340 145 323 175 316 185 c 2
 303 204 l 1
 281 199 l 2
 249 192 224 193 190 202 c 0
 108 223 51 285 37 369 c 0
 27 428 48 495 88 536 c 2
 103 552 l 1
 62 623 l 2
 22 692 22 694 21 707 c 0
 20 725 29 739 42 747 c 0
 48 750 55 753 62 753 c 0
367 400 m 1
 117 400 l 1
 117 331 173 275 242 275 c 0
 311 275 367 331 367 400 c 1
197 400 m 0
 197 425 217 445 242 445 c 0
 267 445 287 425 287 400 c 0
 287 375 267 355 242 355 c 0
 217 355 197 375 197 400 c 0
EndSplineSet
Validated: 37
EndChar

StartChar: currency
Encoding: 164 164 291
Width: 600
Flags: HW
LayerCount: 2
Fore
SplineSet
524 650 m 1
 524 650 l 2
 531 650 538 649 544 646 c 0
 553 641 561 632 566 623 c 0
 571 614 571 596 566 586 c 0
 564 582 544 560 517 532 c 2
 472 486 l 1
 481 470 l 2
 498 438 506 404 504 366 c 0
 502 330 495 301 479 275 c 2
 471 263 l 1
 517 217 l 2
 563 172 568 166 570 152 c 0
 573 130 555 106 531 101 c 0
 523 99 520 99 511 102 c 0
 500 106 497 107 437 169 c 2
 408 199 l 1
 402 195 l 2
 341 157 250 157 192 194 c 2
 182 201 l 1
 165 183 l 2
 107 122 92 108 83 104 c 0
 74 100 64 99 55 102 c 2
 55 102 l 1
 29 110 13 137 22 160 c 0
 25 167 33 177 72 216 c 2
 119 262 l 1
 111 277 l 2
 101 294 96 306 91 327 c 0
 85 350 85 399 91 422 c 0
 96 442 104 463 113 477 c 2
 119 488 l 1
 73 534 l 2
 48 559 26 583 24 586 c 0
 10 614 34 650 66 650 c 0
 84 650 90 644 139 594 c 2
 182 550 l 1
 191 556 l 2
 250 593 336 593 396 557 c 2
 408 550 l 1
 452 595 l 2
 476 620 499 642 504 645 c 0
 509 648 517 650 524 650 c 1
 524 650 l 1
170 375 m 1
 170 306 226 250 295 250 c 0
 364 250 420 306 420 375 c 1
 170 375 l 1
250 375 m 0
 250 400 270 420 295 420 c 0
 320 420 340 400 340 375 c 0
 340 350 320 330 295 330 c 0
 270 330 250 350 250 375 c 0
250 375 m 0
 250 400 270 420 295 420 c 0
 320 420 340 400 340 375 c 0
 340 350 320 330 295 330 c 0
 270 330 250 350 250 375 c 0
250 375 m 0
 250 350 270 330 295 330 c 0
 320 330 340 350 340 375 c 0
 340 400 320 420 295 420 c 0
 270 420 250 400 250 375 c 0
EndSplineSet
Validated: 37
EndChar

StartChar: questiondown
Encoding: 191 191 292
Width: 450
Flags: HW
LayerCount: 2
Fore
SplineSet
220 800 m 0
 235 800 251 799 266 796 c 0
 307 789 343 769 373 739 c 0
 416 696 438 640 434 579 c 0
 429 493 370 412 281 388 c 1
 270 386 l 1
 270 351 l 2
 270 322 269 316 264 306 c 0
 255 289 248 284 216 280 c 0
 195 277 182 273 169 267 c 0
 147 256 125 233 115 211 c 0
 108 196 107 191 107 162 c 0
 107 132 108 128 115 114 c 0
 125 94 138 77 156 66 c 0
 177 53 194 49 231 48 c 0
 262 47 264 47 274 39 c 0
 304 16 300 -29 268 -43 c 0
 256 -48 238 -50 218 -50 c 0
 193 -50 165 -45 142 -36 c 0
 100 -20 52 23 32 64 c 0
 15 98 11 118 11 161 c 0
 11 205 14 223 32 259 c 0
 42 279 49 288 71 310 c 0
 100 339 126 355 158 364 c 0
 173 368 175 370 176 376 c 0
 177 383 175 383 156 389 c 0
 127 398 102 412 78 435 c 0
 14 496 -6 580 23 663 c 0
 42 719 91 769 147 788 c 0
 170 796 195 800 220 800 c 0
97 592 m 1
 97 523 153 467 222 467 c 0
 291 467 347 523 347 592 c 1
 267 592 l 1
 267 567 247 547 222 547 c 0
 197 547 177 567 177 592 c 1
 97 592 l 1
EndSplineSet
Validated: 33
EndChar

StartChar: exclamdown
Encoding: 161 161 293
Width: 450
Flags: HW
LayerCount: 2
Fore
SplineSet
219 800 m 0
 260 800 303 788 337 766 c 0
 362 750 396 712 409 688 c 0
 454 602 437 503 365 435 c 0
 341 412 322 401 292 391 c 2
 271 384 l 1
 269 184 l 2
 267 -36 269 -24 250 -40 c 0
 242 -46 232 -50 223 -50 c 0
 202 -51 182 -37 176 -15 c 0
 174 -6 173 58 173 192 c 0
 173 361 173 386 169 386 c 0
 167 386 158 388 151 391 c 0
 84 413 34 467 15 536 c 0
 8 561 8 618 15 644 c 0
 36 721 100 780 179 796 c 0
 192 799 205 800 219 800 c 0
347 590 m 1
 97 590 l 1
 97 521 153 465 222 465 c 0
 291 465 347 521 347 590 c 1
177 590 m 0
 177 565 197 545 222 545 c 0
 247 545 267 565 267 590 c 0
 267 615 247 635 222 635 c 0
 197 635 177 615 177 590 c 0
177 590 m 0
 177 615 197 635 222 635 c 0
 247 635 267 615 267 590 c 0
 267 565 247 545 222 545 c 0
 197 545 177 565 177 590 c 0
177 590 m 0
 177 615 197 635 222 635 c 0
 247 635 267 615 267 590 c 0
 267 565 247 545 222 545 c 0
 197 545 177 565 177 590 c 0
EndSplineSet
Validated: 37
EndChar

StartChar: uni044A
Encoding: 1098 1098 294
Width: 550
Flags: HW
LayerCount: 2
Fore
SplineSet
465 169 m 1
 512 128 l 1
 553 85 557 72 532 47 c 0
 506 21 490 25 447 66 c 1
 410 107 l 1
 465 169 l 1
259 452 m 1
 259 617 l 2
 257 617 250 611 244 605 c 0
 215 573 149 560 95 576 c 0
 42 591 6 639 6 691 c 0
 6 709 9 719 17 728 c 0
 29 740 29 740 179 740 c 0
 311 740 330 739 339 731 c 0
 348 723 349 712 349 597 c 0
 349 482 344 450 353 447 c 1
 259 452 l 1
306 463 m 0
 416 463 506 373 506 263 c 0
 506 153 416 63 306 63 c 0
 196 63 106 153 106 263 c 0
 106 373 196 463 306 463 c 0
306 388 m 0
 237 388 181 332 181 263 c 0
 181 194 237 138 306 138 c 0
 375 138 431 194 431 263 c 0
 431 332 375 388 306 388 c 0
351 263 m 0
 351 238 331 218 306 218 c 0
 281 218 261 238 261 263 c 0
 261 288 281 308 306 308 c 0
 331 308 351 288 351 263 c 0
EndSplineSet
Validated: 37
EndChar

StartChar: uni044B
Encoding: 1099 1099 295
Width: 950
Flags: HW
LayerCount: 2
Fore
SplineSet
707 800 m 2
 707 800 l 2
 721 800 734 794 744 781 c 0
 749 774 749 769 750 687 c 2
 751 601 l 1
 768 596 l 2
 833 578 889 521 908 451 c 0
 914 427 914 373 908 349 c 0
 889 279 833 221 768 203 c 2
 751 199 l 1
 751 114 l 2
 751 31 751 30 745 21 c 0
 742 16 736 9 732 6 c 0
 723 -1 699 -2 688 3 c 1
 688 3 l 1
 677 8 666 21 664 33 c 0
 663 38 663 68 664 99 c 0
 665 130 665 165 664 177 c 2
 662 199 l 1
 640 206 l 2
 609 216 588 229 563 254 c 0
 503 313 484 396 514 475 c 0
 535 531 586 579 641 595 c 2
 663 601 l 1
 663 683 l 2
 663 762 663 764 669 776 c 0
 677 792 692 800 707 800 c 2
706 525 m 0
 637 525 581 469 581 400 c 0
 581 331 637 275 706 275 c 0
 775 275 831 331 831 400 c 0
 831 469 775 525 706 525 c 0
661 400 m 0
 661 425 681 445 706 445 c 0
 731 445 751 425 751 400 c 0
 751 375 731 355 706 355 c 0
 681 355 661 375 661 400 c 0
661 400 m 0
 661 375 681 355 706 355 c 0
 731 355 751 375 751 400 c 0
 751 425 731 445 706 445 c 0
 681 445 661 425 661 400 c 0
661 400 m 0
 661 425 681 445 706 445 c 0
 731 445 751 425 751 400 c 0
 751 375 731 355 706 355 c 0
 681 355 661 375 661 400 c 0
97 770 m 0
 110 770 123 765 130 756 c 0
 138 746 138 740 138 607 c 0
 138 531 140 468 141 468 c 0
 142 468 153 473 165 479 c 0
 200 496 235 503 273 500 c 0
 454 487 536 271 408 145 c 0
 393 130 372 113 360 107 c 0
 301 76 223 75 164 105 c 2
 145 115 l 1
 109 81 l 2
 69 42 57 38 33 54 c 0
 18 64 10 77 10 93 c 0
 10 102 17 112 46 141 c 2
 82 178 l 1
 71 202 l 2
 65 215 58 235 56 245 c 0
 53 257 51 353 51 504 c 0
 51 770 50 758 79 767 c 0
 85 769 91 770 97 770 c 0
259 418 m 0
 190 418 134 362 134 293 c 0
 134 224 190 168 259 168 c 0
 328 168 384 224 384 293 c 0
 384 362 328 418 259 418 c 0
214 293 m 0
 214 318 234 338 259 338 c 0
 284 338 304 318 304 293 c 0
 304 268 284 248 259 248 c 0
 234 248 214 268 214 293 c 0
214 293 m 0
 214 268 234 248 259 248 c 0
 284 248 304 268 304 293 c 0
 304 318 284 338 259 338 c 0
 234 338 214 318 214 293 c 0
214 293 m 0
 214 318 234 338 259 338 c 0
 284 338 304 318 304 293 c 0
 304 268 284 248 259 248 c 0
 234 248 214 268 214 293 c 0
EndSplineSet
Validated: 37
EndChar

